<?xml version="1.0" encoding="UTF-8"?>
<svg id="Ebene_1" data-name="Ebene 1" xmlns="http://www.w3.org/2000/svg" width="1920" height="605" xmlns:xlink="http://www.w3.org/1999/xlink" viewBox="0 0 1920 605">
  <defs>
    <style>
      .cls-1 {
        fill: url(#Unbenannter_Verlauf_5-32);
      }

      .cls-1, .cls-2, .cls-3, .cls-4, .cls-5, .cls-6, .cls-7, .cls-8, .cls-9, .cls-10, .cls-11, .cls-12, .cls-13, .cls-14, .cls-15, .cls-16, .cls-17, .cls-18, .cls-19, .cls-20, .cls-21, .cls-22, .cls-23, .cls-24, .cls-25, .cls-26, .cls-27, .cls-28, .cls-29, .cls-30, .cls-31, .cls-32, .cls-33 {
        stroke-width: 0px;
      }

      .cls-2 {
        fill: url(#Unbenannter_Verlauf_5-30);
      }

      .cls-3 {
        fill: url(#Unbenannter_Verlauf_5-31);
      }

      .cls-4 {
        fill: url(#Unbenannter_Verlauf_5-16);
      }

      .cls-5 {
        fill: url(#Unbenannter_Verlauf_5-17);
      }

      .cls-6 {
        fill: url(#Unbenannter_Verlauf_5-14);
      }

      .cls-7 {
        fill: url(#Unbenannter_Verlauf_5-18);
      }

      .cls-8 {
        fill: url(#Unbenannter_Verlauf_5-19);
      }

      .cls-9 {
        fill: url(#Unbenannter_Verlauf_5-15);
      }

      .cls-10 {
        fill: url(#Unbenannter_Verlauf_5-11);
      }

      .cls-11 {
        fill: url(#Unbenannter_Verlauf_5-10);
      }

      .cls-12 {
        fill: url(#Unbenannter_Verlauf_5-24);
      }

      .cls-13 {
        fill: url(#Unbenannter_Verlauf_5-21);
      }

      .cls-14 {
        fill: url(#Unbenannter_Verlauf_5-28);
      }

      .cls-15 {
        fill: url(#Unbenannter_Verlauf_5-25);
      }

      .cls-16 {
        fill: url(#Unbenannter_Verlauf_5-29);
      }

      .cls-17 {
        fill: url(#Unbenannter_Verlauf_5-26);
      }

      .cls-18 {
        fill: url(#Unbenannter_Verlauf_5-13);
      }

      .cls-19 {
        fill: url(#Unbenannter_Verlauf_5-12);
      }

      .cls-20 {
        fill: url(#Unbenannter_Verlauf_5-23);
      }

      .cls-21 {
        fill: url(#Unbenannter_Verlauf_5-22);
      }

      .cls-22 {
        fill: url(#Unbenannter_Verlauf_5-20);
      }

      .cls-23 {
        fill: url(#Unbenannter_Verlauf_5-27);
      }

      .cls-34 {
        clip-path: url(#clippath);
      }

      .cls-24 {
        fill: none;
      }

      .cls-25 {
        fill: url(#Unbenannter_Verlauf_5-2);
      }

      .cls-26 {
        fill: url(#Unbenannter_Verlauf_5-6);
      }

      .cls-27 {
        fill: url(#Unbenannter_Verlauf_5-5);
      }

      .cls-28 {
        fill: url(#Unbenannter_Verlauf_5-3);
      }

      .cls-29 {
        fill: url(#Unbenannter_Verlauf_5-8);
      }

      .cls-30 {
        fill: url(#Unbenannter_Verlauf_5-7);
      }

      .cls-31 {
        fill: url(#Unbenannter_Verlauf_5-9);
      }

      .cls-32 {
        fill: url(#Unbenannter_Verlauf_5-4);
      }

      .cls-33 {
        fill: url(#Unbenannter_Verlauf_5);
      }

      .cls-35 {
        opacity: .4;
      }
    </style>
    <clipPath id="clippath">
      <rect class="cls-24" width="1920" height="605"/>
    </clipPath>
    <linearGradient id="Unbenannter_Verlauf_5" data-name="Unbenannter Verlauf 5" x1="-282.95" y1="241.41" x2="2164.5" y2="241.41" gradientUnits="userSpaceOnUse">
      <stop offset="0" stop-color="#00dafa"/>
      <stop offset=".1" stop-color="#1ee3ee"/>
      <stop offset=".3" stop-color="#65fbd2"/>
      <stop offset=".73" stop-color="#39a6f6"/>
      <stop offset=".94" stop-color="#5ae7da"/>
      <stop offset="1" stop-color="#65fbd2"/>
    </linearGradient>
    <linearGradient id="Unbenannter_Verlauf_5-2" data-name="Unbenannter Verlauf 5" x1="-272.77" y1="236.32" x2="2164.52" y2="236.32" xlink:href="#Unbenannter_Verlauf_5"/>
    <linearGradient id="Unbenannter_Verlauf_5-3" data-name="Unbenannter Verlauf 5" x1="-262.8" y1="231.25" x2="2164.54" y2="231.25" xlink:href="#Unbenannter_Verlauf_5"/>
    <linearGradient id="Unbenannter_Verlauf_5-4" data-name="Unbenannter Verlauf 5" x1="-253.06" y1="229.03" x2="2164.56" y2="229.03" xlink:href="#Unbenannter_Verlauf_5"/>
    <linearGradient id="Unbenannter_Verlauf_5-5" data-name="Unbenannter Verlauf 5" x1="-243.6" y1="231.5" x2="2164.58" y2="231.5" xlink:href="#Unbenannter_Verlauf_5"/>
    <linearGradient id="Unbenannter_Verlauf_5-6" data-name="Unbenannter Verlauf 5" x1="-234.46" y1="233.97" x2="2164.6" y2="233.97" xlink:href="#Unbenannter_Verlauf_5"/>
    <linearGradient id="Unbenannter_Verlauf_5-7" data-name="Unbenannter Verlauf 5" x1="-225.7" y1="236.44" x2="2164.63" y2="236.44" xlink:href="#Unbenannter_Verlauf_5"/>
    <linearGradient id="Unbenannter_Verlauf_5-8" data-name="Unbenannter Verlauf 5" x1="-217.38" y1="238.91" x2="2164.66" y2="238.91" xlink:href="#Unbenannter_Verlauf_5"/>
    <linearGradient id="Unbenannter_Verlauf_5-9" data-name="Unbenannter Verlauf 5" x1="-209.6" y1="241.38" x2="2164.69" y2="241.38" xlink:href="#Unbenannter_Verlauf_5"/>
    <linearGradient id="Unbenannter_Verlauf_5-10" data-name="Unbenannter Verlauf 5" x1="-202.46" y1="243.85" x2="2164.72" y2="243.85" xlink:href="#Unbenannter_Verlauf_5"/>
    <linearGradient id="Unbenannter_Verlauf_5-11" data-name="Unbenannter Verlauf 5" x1="-196.1" y1="246.33" x2="2164.75" y2="246.33" xlink:href="#Unbenannter_Verlauf_5"/>
    <linearGradient id="Unbenannter_Verlauf_5-12" data-name="Unbenannter Verlauf 5" x1="-190.74" y1="248.8" x2="2164.78" y2="248.8" xlink:href="#Unbenannter_Verlauf_5"/>
    <linearGradient id="Unbenannter_Verlauf_5-13" data-name="Unbenannter Verlauf 5" x1="-186.66" y1="251.28" x2="2164.82" y2="251.28" xlink:href="#Unbenannter_Verlauf_5"/>
    <linearGradient id="Unbenannter_Verlauf_5-14" data-name="Unbenannter Verlauf 5" x1="-184.2" y1="253.75" x2="2164.86" y2="253.75" xlink:href="#Unbenannter_Verlauf_5"/>
    <linearGradient id="Unbenannter_Verlauf_5-15" data-name="Unbenannter Verlauf 5" x1="-183.71" y1="256.23" x2="2164.89" y2="256.23" xlink:href="#Unbenannter_Verlauf_5"/>
    <linearGradient id="Unbenannter_Verlauf_5-16" data-name="Unbenannter Verlauf 5" x1="-183.67" y1="258.71" x2="2164.93" y2="258.71" xlink:href="#Unbenannter_Verlauf_5"/>
    <linearGradient id="Unbenannter_Verlauf_5-17" data-name="Unbenannter Verlauf 5" x1="-183.45" y1="261.19" x2="2164.97" y2="261.19" xlink:href="#Unbenannter_Verlauf_5"/>
    <linearGradient id="Unbenannter_Verlauf_5-18" data-name="Unbenannter Verlauf 5" x1="-183.2" y1="263.67" x2="2165.01" y2="263.67" xlink:href="#Unbenannter_Verlauf_5"/>
    <linearGradient id="Unbenannter_Verlauf_5-19" data-name="Unbenannter Verlauf 5" x1="-183.29" y1="266.15" x2="2165.05" y2="266.15" xlink:href="#Unbenannter_Verlauf_5"/>
    <linearGradient id="Unbenannter_Verlauf_5-20" data-name="Unbenannter Verlauf 5" x1="-183.4" y1="268.63" x2="2165.1" y2="268.63" xlink:href="#Unbenannter_Verlauf_5"/>
    <linearGradient id="Unbenannter_Verlauf_5-21" data-name="Unbenannter Verlauf 5" x1="-183.48" y1="271.12" x2="2165.14" y2="271.12" xlink:href="#Unbenannter_Verlauf_5"/>
    <linearGradient id="Unbenannter_Verlauf_5-22" data-name="Unbenannter Verlauf 5" x1="-183.54" y1="273.6" x2="2165.18" y2="273.6" xlink:href="#Unbenannter_Verlauf_5"/>
    <linearGradient id="Unbenannter_Verlauf_5-23" data-name="Unbenannter Verlauf 5" x1="-183.59" y1="276.09" x2="2165.23" y2="276.09" xlink:href="#Unbenannter_Verlauf_5"/>
    <linearGradient id="Unbenannter_Verlauf_5-24" data-name="Unbenannter Verlauf 5" x1="-183.63" y1="278.57" x2="2165.27" y2="278.57" xlink:href="#Unbenannter_Verlauf_5"/>
    <linearGradient id="Unbenannter_Verlauf_5-25" data-name="Unbenannter Verlauf 5" x1="-183.67" y1="281.06" x2="2165.32" y2="281.06" xlink:href="#Unbenannter_Verlauf_5"/>
    <linearGradient id="Unbenannter_Verlauf_5-26" data-name="Unbenannter Verlauf 5" x1="-183.71" y1="283.55" x2="2165.37" y2="283.55" xlink:href="#Unbenannter_Verlauf_5"/>
    <linearGradient id="Unbenannter_Verlauf_5-27" data-name="Unbenannter Verlauf 5" x1="-183.75" y1="286.04" x2="2165.41" y2="286.04" xlink:href="#Unbenannter_Verlauf_5"/>
    <linearGradient id="Unbenannter_Verlauf_5-28" data-name="Unbenannter Verlauf 5" x1="-183.78" y1="288.53" x2="2165.46" y2="288.53" xlink:href="#Unbenannter_Verlauf_5"/>
    <linearGradient id="Unbenannter_Verlauf_5-29" data-name="Unbenannter Verlauf 5" x1="-183.81" y1="291.02" x2="2165.51" y2="291.02" xlink:href="#Unbenannter_Verlauf_5"/>
    <linearGradient id="Unbenannter_Verlauf_5-30" data-name="Unbenannter Verlauf 5" x1="-183.84" y1="293.51" x2="2165.55" y2="293.51" xlink:href="#Unbenannter_Verlauf_5"/>
    <linearGradient id="Unbenannter_Verlauf_5-31" data-name="Unbenannter Verlauf 5" x1="-183.87" y1="296.01" x2="2165.6" y2="296.01" xlink:href="#Unbenannter_Verlauf_5"/>
    <linearGradient id="Unbenannter_Verlauf_5-32" data-name="Unbenannter Verlauf 5" x1="-183.9" y1="298.5" x2="2165.65" y2="298.5" xlink:href="#Unbenannter_Verlauf_5"/>
  </defs>
  <g class="cls-34">
    <g class="cls-35">
      <path class="cls-33" d="m-50.17,486.27c-4.81,0-9.57-.08-14.3-.24-33.77-1.05-64.39-6.29-91-15.56-14.57-5.08-28.11-11.44-40.24-18.91-12.85-7.92-24.43-17.28-34.42-27.83-10.04-10.6-18.84-22.79-26.16-36.25-7.22-13.26-13.07-27.89-17.4-43.48-4.3-15.5-7.15-32.1-8.44-49.35-1.3-17.3-1.06-35.42.71-53.85,1.79-18.65,5.18-37.82,10.05-56.98,4.97-19.54,11.57-39.31,19.59-58.75,16.84-40.8,39.92-80.28,68.58-117.33l.06.05c-28.66,37.05-51.73,76.52-68.57,117.31-8.02,19.44-14.62,39.2-19.59,58.74-4.88,19.16-8.26,38.33-10.05,56.97-1.77,18.43-2.01,36.54-.71,53.84,1.3,17.24,4.14,33.84,8.44,49.34,4.33,15.58,10.18,30.21,17.39,43.47,7.32,13.45,16.12,25.64,26.15,36.23,19.44,20.52,44.55,36.24,74.63,46.72,26.61,9.27,57.22,14.51,90.98,15.56,30.88,1.03,63.65-1.31,97.4-6.97,29.53-4.95,59.11-12.38,85.53-21.51,21.15-7.3,41.75-16.25,61.23-26.58,18.21-9.66,36.05-20.86,53.03-33.3,29.97-21.95,58.19-48.24,86.27-80.4,15.66-17.93,31.33-37.96,47.91-61.25,14.6-20.51,27.9-40.69,40.77-60.2,20.55-31.17,39.96-60.61,59.76-83.55,10.55-12.23,20.53-21.85,30.5-29.44,11.03-8.38,21.92-14.19,33.3-17.74,10.25-3.2,20.42-4.51,31.1-4,9.53.47,19,2.4,28.15,5.72,8.71,3.16,17.43,7.7,25.89,13.47,8,5.46,16.05,12.22,23.95,20.09,7.37,7.35,14.87,15.96,22.31,25.57,12.91,16.7,26.29,37.32,40.92,63.04,13.02,22.9,25.75,47.52,38.05,71.32,12,23.23,24.41,47.25,36.9,69.24,13.99,24.63,26.68,44.21,38.81,59.87,14.53,18.75,28.61,32.46,43.04,41.9,7.81,5.11,15.82,8.99,23.82,11.53,8.01,2.54,16.27,3.83,24.57,3.83.39,0,.78,0,1.17,0,7.41-.11,14.77-1.24,21.89-3.36,6.8-2.03,13.61-5.03,20.23-8.92,12.26-7.21,24.21-17.53,36.55-31.56,10.46-11.9,20.98-26.16,33.1-44.88,10.7-16.52,20.94-33.87,31.79-52.24,22.65-38.35,46.06-78.01,73.53-108.88,7.1-7.98,14.31-15.17,21.43-21.38,7.64-6.66,15.48-12.45,23.3-17.22,8.3-5.06,16.88-9.14,25.51-12.15,9.07-3.16,18.5-5.23,28.03-6.16,4.02-.39,7.98-.58,11.87-.58,61.25,0,107.59,46.86,152.5,92.27,7.01,7.09,14.26,14.42,21.39,21.38,11.15,10.85,20.27,19.16,28.71,26.13,10.48,8.66,20.12,15.45,29.47,20.76,22.01,12.49,43.08,16.95,64.42,13.65,6.79-1.07,13.42-2.9,19.7-5.44,6.02-2.43,11.92-5.59,17.55-9.4,10.48-7.09,20.27-16.49,29.93-28.74,8.23-10.44,16.46-23.13,25.16-38.79,8.21-14.78,16.16-30.96,22.95-44.96,1.63-3.37,3.28-6.81,4.89-10.15,17.24-35.86,35.08-72.95,58.41-103.31,12.61-16.4,25.61-29.33,39.75-39.5,7.69-5.53,15.8-10.28,24.13-14.1,8.75-4.02,18.03-7.17,27.58-9.34,12.93-2.93,25.21-3.88,38.67-3.02,12.3.79,24.46,2.99,38.53,5.53,15.85,2.86,33.82,6.11,56.44,8.1,26.14,2.31,53.69,2.5,84.21.59,48.31-3.02,96.4-11.22,142.93-24.36l.02.07c-46.53,13.15-94.63,21.34-142.94,24.37-30.53,1.91-58.08,1.72-84.22-.59-22.62-2-40.59-5.24-56.44-8.1-14.07-2.54-26.23-4.74-38.53-5.53-13.45-.87-25.73.09-38.65,3.01-9.54,2.17-18.81,5.32-27.56,9.34-8.32,3.82-16.43,8.57-24.12,14.1-14.13,10.17-27.13,23.09-39.74,39.49-23.33,30.35-41.16,67.44-58.41,103.3-1.6,3.33-3.26,6.78-4.89,10.15-6.8,14.01-14.74,30.19-22.96,44.97-8.7,15.66-16.94,28.35-25.17,38.79-9.66,12.25-19.45,21.66-29.94,28.76-5.63,3.81-11.54,6.97-17.56,9.4-6.29,2.54-12.92,4.37-19.71,5.44-5.68.88-11.42,1.21-17.06.99-5.42-.22-10.93-.95-16.36-2.19-10.24-2.33-20.4-6.41-31.05-12.45-9.36-5.31-19-12.1-29.48-20.76-8.44-6.98-17.56-15.28-28.71-26.14-7.13-6.96-14.38-14.29-21.39-21.38-44.9-45.4-91.24-92.25-152.45-92.25-3.89,0-7.84.19-11.86.58-9.52.93-18.95,3-28.02,6.16-8.62,3-17.2,7.09-25.49,12.14-7.82,4.77-15.66,10.56-23.29,17.21-7.12,6.21-14.33,13.4-21.42,21.38-27.46,30.87-50.88,70.52-73.52,108.87-10.85,18.37-21.1,35.73-31.8,52.25-12.12,18.72-22.64,32.98-33.11,44.89-12.34,14.04-24.3,24.36-36.56,31.57-6.63,3.9-13.44,6.9-20.25,8.93-7.13,2.12-14.5,3.25-21.91,3.36-8.71.13-17.38-1.16-25.77-3.83-8.01-2.54-16.03-6.42-23.84-11.54-14.44-9.45-28.52-23.16-43.06-41.92-12.13-15.66-24.83-35.24-38.82-59.87-12.49-22-24.9-46.02-36.91-69.24-12.3-23.81-25.02-48.42-38.05-71.32-14.63-25.72-28.01-46.34-40.92-63.03-7.43-9.61-14.93-18.22-22.3-25.57-7.89-7.87-15.94-14.63-23.94-20.08-8.46-5.78-17.17-10.31-25.88-13.47-9.14-3.32-18.61-5.24-28.13-5.71-10.67-.51-20.83.8-31.07,4-21.55,6.73-41.81,21.72-63.77,47.16-19.79,22.94-39.2,52.38-59.75,83.54-12.87,19.52-26.17,39.7-40.77,60.2-16.58,23.29-32.25,43.33-47.91,61.26-28.09,32.16-56.31,58.46-86.28,80.41-16.98,12.43-34.82,23.64-53.04,33.3-19.49,10.34-40.09,19.29-61.24,26.59-26.43,9.13-56.01,16.57-85.54,21.51-28.59,4.79-56.48,7.2-83.11,7.2Z"/>
      <path class="cls-25" d="m-32.83,476.12c-6.4,0-12.73-.13-19-.38-33.56-1.35-63.97-6.57-90.36-15.5-30.1-10.19-55.33-25.34-75-45.05-10.11-10.13-19.04-21.81-26.55-34.7-7.39-12.69-13.47-26.7-18.09-41.64-4.58-14.82-7.77-30.71-9.47-47.22-1.7-16.53-1.92-33.84-.67-51.46,2.58-36.22,11.25-73.32,25.75-110.25,15.21-38.74,36.41-76.1,63.01-111.04l.12.09c-51.9,68.18-83.41,146.74-88.72,221.21-5.15,72.26,14.28,134.37,54.73,174.9,37.16,37.23,92.76,57.59,165.26,60.51,6.17.25,12.43.37,18.75.37,53.61,0,111.82-8.84,162.5-24.89,75.07-23.77,138.61-65.79,199.96-132.23,36.39-39.4,65.6-82.47,91.37-120.47,20.33-29.98,39.54-58.3,59.24-80.39,21.87-24.53,42.13-38.93,63.76-45.33,10.4-3.08,20.54-4.3,30.98-3.73,9.6.52,19.14,2.49,28.36,5.84,8.78,3.19,17.55,7.74,26.08,13.53,15.71,10.67,30.93,25.59,46.54,45.61,28.94,37.14,54.54,86.22,79.29,133.69,11.98,22.97,24.36,46.73,36.81,68.46,13.94,24.33,26.58,43.66,38.64,59.11,14.45,18.49,28.43,32,42.76,41.3,7.75,5.03,15.7,8.84,23.64,11.33,8.32,2.61,16.91,3.86,25.53,3.71,60.77-1,100.91-69.17,143.41-141.34,22.28-37.83,45.31-76.95,72.21-107.66,14.52-16.59,28.82-29.25,43.72-38.71,8.09-5.14,16.46-9.35,24.86-12.52,8.83-3.33,18.01-5.61,27.27-6.79,16.11-2.05,31.56-.97,47.24,3.3,13.94,3.8,27.72,10.05,42.12,19.12,26.72,16.81,51.36,40.83,75.18,64.06,6.22,6.06,12.64,12.33,18.97,18.33,37.64,35.51,75.24,66.9,121.35,61.06,13.23-1.68,25.25-6,36.73-13.21,10.39-6.52,20.12-15.29,29.75-26.81,18.04-21.58,33.26-50.08,48.54-79.85,2.15-4.19,4.35-8.5,6.47-12.67,17.44-34.22,35.47-69.6,58.79-98.87,12.61-15.83,25.52-28.37,39.49-38.35,7.6-5.43,15.6-10.12,23.78-13.95,8.61-4.03,17.7-7.23,27.04-9.53,12.93-3.14,25.24-4.35,38.74-3.81,12.34.49,24.56,2.35,38.7,4.49,31.51,4.79,70.73,10.75,137.24,5.59,47.77-3.71,95.05-12.74,140.51-26.86l.04.14c-45.47,14.12-92.76,23.16-140.54,26.86-18.18,1.41-34.33,1.99-48.84,1.99-38.56,0-65.53-4.1-88.44-7.58-14.14-2.15-26.35-4-38.68-4.49-13.49-.54-25.78.67-38.7,3.81-34.33,8.44-63.84,28.65-90.23,61.78-23.31,29.26-41.34,64.64-58.77,98.85-2.12,4.17-4.32,8.48-6.47,12.67-15.29,29.77-30.51,58.29-48.56,79.87-9.64,11.53-19.38,20.3-29.78,26.84-11.5,7.23-23.54,11.55-36.79,13.23-11.09,1.41-21.87.74-32.96-2.05-10.07-2.53-20.11-6.73-30.68-12.86-20.17-11.68-39.71-29.1-57.83-46.19-6.33-6.01-12.76-12.27-18.98-18.33-47.89-46.69-97.41-94.97-164.42-86.44-76.14,9.7-122.81,88.96-167.95,165.61-42.52,72.21-82.69,140.42-143.54,141.41-8.64.14-17.24-1.11-25.57-3.72-7.95-2.49-15.91-6.31-23.67-11.35-14.34-9.3-28.34-22.82-42.8-41.33-12.07-15.45-24.71-34.79-38.65-59.12-12.45-21.73-24.84-45.49-36.81-68.46-24.75-47.46-50.34-96.55-79.27-133.67-15.6-20.01-30.81-34.92-46.51-45.58-8.52-5.78-17.28-10.33-26.04-13.52-9.21-3.35-18.73-5.31-28.31-5.83-10.42-.57-20.54.65-30.93,3.72-47.15,13.95-82.26,65.72-122.92,125.66-25.77,38-54.99,81.07-91.38,120.48-28.6,30.97-56.99,56.06-86.81,76.7-16.9,11.7-34.62,22.18-52.67,31.15-19.28,9.58-39.65,17.79-60.54,24.41-25.98,8.23-55.25,14.84-84.66,19.11-26.5,3.85-52.53,5.79-77.63,5.79Z"/>
      <path class="cls-28" d="m-14.33,466.03c-8.4,0-16.7-.2-24.88-.59-72.12-3.49-127.65-23.27-165.06-58.8-20.33-19.31-35.71-43.85-45.7-72.94-9.81-28.55-14.03-60.23-12.53-94.16,1.51-34.46,8.86-69.71,21.84-104.77,13.58-36.69,32.9-71.93,57.42-104.75l.18.13c-47.97,64.2-76.1,138.57-79.22,209.4-3.04,69.13,17.62,128.42,58.17,166.93,37.37,35.49,92.85,55.26,164.92,58.74,8.17.4,16.48.59,24.87.59,51.89,0,107.02-7.46,154.69-21.17,74.01-21.27,137.37-60.73,199.4-124.18,37.69-38.55,67.57-81.39,93.94-119.18,20.14-28.87,39.17-56.14,58.79-77.44,21.8-23.66,42.07-37.5,63.78-43.57,10.52-2.94,20.62-4.07,30.85-3.46,79.48,4.78,131.2,103.08,181.23,198.13,24.92,47.35,48.46,92.08,75.2,126.02,29.77,37.78,58.3,55.44,89.66,55.44.53,0,1.06,0,1.59-.02,60.71-1.12,100.83-69.45,143.3-141.79,21.9-37.3,44.55-75.88,70.87-106.42,14.21-16.49,28.18-29.18,42.69-38.79,16.37-10.83,32.95-17.47,50.71-20.28,16.11-2.55,31.56-1.97,47.22,1.79,13.94,3.35,27.73,9.15,42.15,17.74,26.77,15.94,51.6,39.27,75.62,61.83,5.33,5.01,10.84,10.18,16.28,15.19,39.63,36.2,76.02,65.81,120.1,61.58,52.27-5.02,81.71-51.79,114.76-112.41,2.71-4.97,5.48-10.11,8.16-15.08,17.6-32.64,35.79-66.39,59.07-94.62,12.59-15.27,25.42-27.44,39.22-37.22,15.37-10.89,32.17-18.77,49.94-23.42,28.12-7.36,50.04-4.66,77.79-1.24,30.95,3.81,69.48,8.56,133.71,2.57,47.17-4.4,93.63-14.28,138.1-29.35l.07.21c-44.48,15.08-90.96,24.96-138.15,29.36-64.26,6-102.79,1.25-133.75-2.57-27.73-3.42-49.62-6.11-77.71,1.23-75.04,19.63-113.85,91.63-148.09,155.15-2.68,4.97-5.45,10.1-8.16,15.08-15.48,28.4-30.88,55.57-49.03,75.94-9.62,10.79-19.3,18.95-29.61,24.92-11.37,6.59-23.25,10.41-36.3,11.66-2.77.27-5.54.4-8.32.4-17.76,0-35.67-5.46-54.5-16.57-20.04-11.83-39.37-28.94-57.45-45.46-5.44-5.01-10.95-10.18-16.28-15.19-48.11-45.19-97.86-91.91-164.8-81.3-73.88,11.71-119.75,89.83-164.11,165.38-42.51,72.4-82.65,140.78-143.49,141.9-16.94.31-32.93-4.51-48.89-14.77-14.25-9.16-28.16-22.49-42.54-40.74-26.75-33.96-50.29-78.69-75.22-126.05-50-95-101.69-193.24-181.05-198.01-10.21-.61-20.28.51-30.78,3.45-47.31,13.23-82.13,63.13-122.44,120.92-26.37,37.8-56.26,80.64-93.96,119.21-29.08,29.75-57.66,53.63-87.36,73-35.07,22.87-71.75,39.63-112.14,51.24-47.69,13.71-102.84,21.17-154.75,21.17Z"/>
      <path class="cls-32" d="m945.48,461.61c-16.16,0-31.48-4.75-46.78-14.5-14.15-9.01-27.99-22.15-42.29-40.16-26.61-33.5-50.1-77.71-74.97-124.53-50.18-94.46-102.07-192.15-181.95-197.42-10.01-.66-20.03.38-30.64,3.17-47.49,12.52-82.06,60.68-122.08,116.44-26.94,37.53-57.47,80.07-96.43,117.67-29.55,28.52-58.3,51.18-87.92,69.29-34.82,21.29-71.14,36.64-111.04,46.92-54.04,13.92-118.91,19.98-177.97,16.63-71.72-4.06-127.15-23.26-164.76-57.05-20.42-18.36-36.15-41.75-46.75-69.54-10.35-27.15-15.38-57.31-14.94-89.65.92-67.25,25.69-137.48,69.75-197.75l.24.17c-44.02,60.22-68.78,130.38-69.7,197.58-.9,66,20.97,122.46,61.59,158.97,37.55,33.75,92.93,52.92,164.58,56.98,59.03,3.34,123.87-2.72,177.88-16.63,74.05-19.07,135.37-54.89,198.83-116.13,38.94-37.58,69.46-80.11,96.39-117.63,40.06-55.81,74.65-104.01,122.24-116.56,10.64-2.81,20.69-3.85,30.73-3.18,80.04,5.29,131.97,103.04,182.19,197.58,24.86,46.8,48.35,91.01,74.94,124.48,30.09,37.87,58.88,55.19,90.59,54.52,60.67-1.24,100.77-69.77,143.23-142.32,21.52-36.77,43.77-74.8,69.5-105.16,13.89-16.39,27.52-29.1,41.65-38.85,15.94-10.99,32.05-17.93,49.27-21.22,16.06-3.07,31.45-3,47.05.2,13.9,2.86,27.65,8.16,42.04,16.22,26.73,14.97,51.72,37.49,75.9,59.27,4.59,4.14,9.34,8.42,14.04,12.59,34.34,30.48,73.26,65.04,118.85,62.1,51.64-3.32,81.21-47.52,114.5-104.95,3.3-5.69,6.67-11.6,9.93-17.32,17.74-31.1,36.08-63.25,59.31-90.45,26.37-30.88,55.14-50.35,87.95-59.51,28.15-7.86,50.2-5.8,78.11-3.19,30.39,2.84,68.2,6.38,130.2-.42,46.5-5.1,92.15-15.82,135.68-31.85l.1.28c-43.55,16.04-89.23,26.76-135.75,31.86-62.03,6.81-99.86,3.27-130.26.42-27.88-2.61-49.91-4.67-78.01,3.18-73.29,20.47-112.5,89.2-147.09,149.83-3.26,5.72-6.64,11.63-9.93,17.32-15.65,27-31.21,52.83-49.5,72.01-9.59,10.06-19.22,17.59-29.44,23-11.24,5.96-22.95,9.26-35.8,10.08-20.08,1.29-40.37-4.4-62.02-17.41-18.96-11.39-37.05-27.01-57.05-44.76-4.69-4.17-9.44-8.45-14.04-12.59-48.21-43.44-98.06-88.35-164.73-75.63-71.62,13.67-116.67,90.65-160.23,165.09-42.5,72.62-82.64,141.22-143.47,142.46-.59.01-1.18.02-1.76.02Z"/>
      <path class="cls-27" d="m957.75,466.59c-15.96,0-31.11-4.66-46.24-14.21-14.06-8.87-27.81-21.82-42.04-39.57-26.48-33.04-49.91-76.74-74.73-123.01-50.37-93.92-102.45-191.04-182.86-196.82-9.81-.71-19.79.24-30.49,2.9-47.71,11.84-82.05,58.34-121.82,112.2-27.47,37.2-58.61,79.37-98.79,115.9-29.98,27.26-58.93,48.71-88.49,65.58-34.55,19.71-70.51,33.64-109.94,42.59-52.57,11.93-116.83,16.55-176.3,12.69-32.93-2.14-62.67-7.26-88.41-15.22-30.1-9.31-55.69-22.8-76.05-40.08-20.51-17.4-36.58-39.66-47.78-66.15-10.89-25.76-16.73-54.4-17.34-85.13-1.27-63.64,20.12-129.68,60.23-185.98l.3.21c-40.07,56.23-61.44,122.2-60.16,185.76,1.26,62.87,24.34,116.5,65,151,37.71,32,92.97,50.58,164.24,55.21,59.44,3.86,123.66-.76,176.2-12.68,73.16-16.6,134.31-49.94,198.26-108.09,40.15-36.51,71.28-78.66,98.74-115.85,39.81-53.91,74.19-100.47,122.03-112.33,10.74-2.67,20.76-3.62,30.61-2.91,80.61,5.79,132.74,103,183.16,197.01,24.8,46.25,48.23,89.94,74.69,122.95,29.91,37.32,58.49,54.35,89.93,53.62,60.64-1.37,100.74-70.13,143.2-142.93,21.13-36.23,42.98-73.7,68.12-103.86,13.57-16.29,26.85-29.01,40.6-38.89,15.5-11.14,31.15-18.38,47.83-22.13,16.11-3.62,31.53-4.08,47.14-1.41,13.94,2.38,27.73,7.24,42.16,14.83,26.84,14.12,51.01,35.06,76.61,57.22,3.55,3.08,7.23,6.26,10.86,9.38l1.49,1.28c37.55,32.25,73.02,62.71,116.12,61.35,51.08-1.61,80.75-43.24,114.24-97.5,3.96-6.41,8.01-13.12,11.93-19.61,17.86-29.57,36.32-60.14,59.46-86.31,26.29-29.73,54.63-48.81,86.62-58.33,28.19-8.38,50.38-6.98,78.47-5.2,29.8,1.88,66.89,4.23,126.66-3.35,45.79-5.81,90.63-17.36,133.27-34.34l.14.34c-42.67,16.99-87.54,28.55-133.36,34.36-59.8,7.59-96.91,5.24-126.73,3.35-28.06-1.77-50.22-3.18-78.35,5.19-71.46,21.25-110.99,86.72-145.87,144.47-3.92,6.49-7.97,13.2-11.93,19.61-15.8,25.59-31.5,50.06-49.97,68.08-9.56,9.33-19.14,16.23-29.27,21.09-11.11,5.33-22.65,8.11-35.3,8.51-.93.03-1.87.04-2.79.04-41.98,0-76.78-29.88-113.58-61.48l-1.49-1.28c-3.63-3.12-7.31-6.3-10.86-9.38-50.81-44-98.8-85.57-165.59-70.56-69.35,15.58-113.56,91.39-156.31,164.71-42.51,72.89-82.66,141.73-143.51,143.11-.65.02-1.3.02-1.94.02Z"/>
      <path class="cls-26" d="m970.01,471.57c-15.77,0-30.75-4.56-45.71-13.92-13.96-8.73-27.63-21.48-41.79-39-26.34-32.58-49.72-75.77-74.48-121.49-50.55-93.37-102.82-189.91-183.76-196.2-9.62-.75-19.55.11-30.35,2.62-47.95,11.16-82.1,56.11-121.65,108.15-27.98,36.82-59.7,78.56-101.06,113.94-30.39,25.99-59.52,46.22-89.07,61.86-34.25,18.13-69.85,30.65-108.82,38.28-50.94,9.97-114.6,13.15-174.64,8.74-32.76-2.41-62.28-7.5-87.74-15.13-30.11-9.02-55.82-21.95-76.41-38.42-20.57-16.45-36.99-37.57-48.8-62.76-11.43-24.37-18.07-51.49-19.75-80.61-1.68-29.17,1.7-58.89,10.06-88.32,8.67-30.52,22.34-59.41,40.64-85.89l.36.25c-74.31,107.52-66.33,249.71,17.77,316.97,38.36,30.68,91.97,48.16,163.91,53.45,60,4.41,123.61,1.23,174.52-8.73,72.38-14.16,133.35-45.01,197.69-100.04,41.33-35.34,73.03-77.06,101-113.87,39.6-52.11,73.8-97.12,121.9-108.32,10.84-2.52,20.82-3.39,30.49-2.63,81.18,6.31,133.51,102.96,184.11,196.43,24.75,45.71,48.12,88.87,74.43,121.43,29.73,36.77,58.1,53.53,89.27,52.72,60.64-1.5,100.74-70.54,143.21-143.62,20.74-35.69,42.18-72.59,66.71-102.54,13.25-16.17,26.18-28.9,39.54-38.9,15.06-11.28,30.23-18.8,46.37-23,16.19-4.21,31.68-5.22,47.34-3.09,14,1.91,27.86,6.31,42.38,13.45,27.01,13.3,51.56,33.73,77.56,55.37,2.41,2,4.82,4.01,7.24,6.02,2.68,2.22,5.36,4.46,8.02,6.68,34.78,29.04,67.67,56.48,106.97,56.48.46,0,.91,0,1.37-.01,51.22-.83,80.73-39.53,113.97-90.05,4.69-7.12,9.29-14.31,14.15-21.93,17.94-28.06,36.49-57.07,59.49-82.19,26.17-28.57,54.03-47.24,85.17-57.08,28.23-8.92,50.58-8.2,78.87-7.28,29.21.94,65.55,2.12,123.08-6.21,44.4-6.43,89.64-19.17,130.85-36.83l.17.41c-41.24,17.68-86.53,30.43-130.96,36.86-57.56,8.34-93.93,7.16-123.15,6.22-29.36-.95-50.57-1.63-78.73,7.26-69.55,21.97-109.33,84.19-144.42,139.09-4.87,7.61-9.47,14.81-14.16,21.93-18.42,27.99-33.29,48.43-50.45,63.79-19.72,17.66-40.02,26.07-63.88,26.45-18.25.29-36.15-5.16-56.3-17.15-17.79-10.59-34.56-24.59-52.33-39.42-2.67-2.23-5.34-4.46-8.02-6.68-2.42-2.01-4.84-4.02-7.24-6.02-51.34-42.72-99.83-83.08-166.88-65.64-67.06,17.44-110.42,92.07-152.36,164.24-42.53,73.2-82.7,142.33-143.58,143.84-.71.02-1.42.03-2.12.03Z"/>
      <path class="cls-30" d="m982.27,476.55c-15.57,0-30.38-4.47-45.18-13.63-13.87-8.59-27.46-21.15-41.54-38.42-26.2-32.13-49.53-74.8-74.23-119.99-25.1-45.92-51.06-93.4-80.75-129.91-33.45-41.14-67.44-62.62-103.91-65.66-9.44-.79-19.32-.02-30.21,2.35-48.21,10.49-82.21,53.96-121.57,104.29-28.47,36.4-60.74,77.65-103.25,111.78-30.76,24.7-60.1,43.72-89.67,58.14-33.94,16.55-69.16,27.66-107.69,33.96-49.13,8.04-112.17,9.78-172.97,4.79-71.74-5.9-125.33-22.84-163.84-51.79-20.62-15.51-37.38-35.48-49.8-59.37-11.95-22.97-19.41-48.57-22.16-76.09-2.75-27.41-.69-55.28,6.11-82.83,7.03-28.46,18.81-55.24,35.03-79.6l.43.29c-67.06,100.72-53.28,234.04,30.7,297.19,38.43,28.89,91.94,45.8,163.57,51.69,60.76,4.99,123.75,3.25,172.84-4.78,71.7-11.73,132.49-40.11,197.12-92,42.47-34.09,74.71-75.32,103.16-111.7,39.43-50.41,73.48-93.95,121.87-104.48,10.94-2.38,20.87-3.15,30.36-2.36,19.63,1.64,38.05,8.35,56.33,20.5,16.21,10.79,31.9,25.62,47.94,45.35,29.72,36.54,55.69,84.05,80.8,129.99,24.69,45.16,48.01,87.82,74.18,119.91,29.55,36.23,57.71,52.71,88.62,51.83,60.65-1.64,100.78-70.99,143.26-144.41,41.14-71.1,83.69-144.63,148.66-163.91,67.77-20.12,117.02,19.28,169.16,60.99l3.11,2.49c3.67,2.93,7.37,5.93,10.94,8.82,33.94,27.48,66.01,53.43,104.19,54.86,50.2,1.87,79.98-34.65,113.7-82.6,5.5-7.82,10.91-15.81,16.63-24.27,35.28-52.13,75.27-111.22,142.98-133.88,28.29-9.47,50.81-9.45,79.32-9.43,28.58.02,64.17.04,119.46-9.01,44.24-7.24,87.45-20.47,128.43-39.32l.22.47c-41.03,18.87-84.29,32.12-128.57,39.37-55.33,9.05-90.93,9.03-119.54,9.01-29.57-.02-50.94-.03-79.15,9.41-67.54,22.6-107.48,81.61-142.72,133.68-5.73,8.46-11.13,16.45-16.64,24.28-32.97,46.89-62.21,82.88-110.45,82.89-1.22,0-2.45-.02-3.7-.07-38.35-1.43-70.48-27.44-104.49-54.97-3.58-2.9-7.27-5.89-10.94-8.82l-3.11-2.49c-52.04-41.63-101.19-80.94-168.7-60.9-64.77,19.23-107.26,92.66-148.36,163.68-42.56,73.55-82.76,143.03-143.7,144.67-.77.02-1.54.03-2.31.03Z"/>
      <path class="cls-29" d="m994.53,481.52c-15.38,0-30.01-4.38-44.65-13.35-13.78-8.45-27.29-20.83-41.29-37.85-26.07-31.68-49.34-73.84-73.99-118.49-25.17-45.6-51.2-92.75-81.04-129.12-33.63-41-67.82-62.53-104.52-65.81-9.39-.84-18.95-.18-30.07,2.08-48.49,9.84-82.36,51.9-121.58,100.6-28.93,35.93-61.73,76.66-105.35,109.47-31.11,23.4-60.64,41.2-90.28,54.41-33.59,14.97-68.45,24.67-106.55,29.66-47.73,6.25-108.57,6.55-171.3.84-32.97-3-61.23-7.88-86.37-14.93-30.13-8.44-56.09-20.25-77.16-35.1-20.66-14.56-37.75-33.4-50.79-55.98-12.46-21.58-20.73-45.66-24.58-71.56-3.81-25.64-3.08-51.66,2.15-77.34,5.39-26.4,15.28-51.07,29.42-73.32l.5.32c-58.67,92.33-38.69,219.37,43.64,277.4,38.45,27.1,91.84,43.43,163.24,49.93,62.69,5.7,123.47,5.41,171.17-.84,71.12-9.31,131.74-35.2,196.56-83.95,43.57-32.77,76.34-73.47,105.25-109.37,39.29-48.79,73.22-90.93,121.92-100.8,11.18-2.27,20.78-2.93,30.24-2.08,19.76,1.77,38.31,8.55,56.71,20.74,16.31,10.81,32.09,25.62,48.22,45.29,29.87,36.41,55.91,83.59,81.1,129.21,24.63,44.62,47.9,86.76,73.93,118.4,29.37,35.69,57.33,51.88,87.97,50.95,60.68-1.77,100.85-71.49,143.37-145.31,40.29-69.94,81.95-142.26,144.64-163.28,16.35-5.48,31.94-7.69,47.66-6.74,14.14.85,28.13,4.26,42.78,10.43,27.89,11.73,54.18,31.96,79.6,51.53,5.22,4.01,10.45,8.15,15.51,12.15,32.16,25.41,62.53,49.42,98.38,52.06,49.91,3.67,79.68-30.33,113.44-75.15,6.4-8.5,12.71-17.31,19.39-26.63,35.34-49.33,75.41-105.25,141.02-128.46,28.35-10.03,51.06-10.75,79.8-11.66,27.96-.89,62.75-1.99,115.79-11.72,43.41-7.96,85.81-22.03,126.02-41.82l.26.53c-40.26,19.81-82.71,33.9-126.17,41.87-53.09,9.74-87.9,10.84-115.88,11.73-29.81.95-51.35,1.63-79.62,11.63-65.44,23.15-105.45,78.99-140.74,128.25-6.68,9.33-12.99,18.14-19.4,26.65-18.32,24.32-34.07,43.2-51.42,56.28-19.55,14.73-39.42,20.8-62.52,19.1-36.03-2.65-66.47-26.71-98.71-52.18-5.06-4-10.29-8.14-15.51-12.15-52.11-40.1-101.33-77.98-169.49-55.12-62.48,20.95-104.08,93.17-144.31,163.01-42.61,73.96-82.85,143.82-143.86,145.6-.83.03-1.66.04-2.49.04Z"/>
      <path class="cls-31" d="m1006.83,486.5c-65.67,0-111-81.32-158.96-167.34-25.24-45.27-51.34-92.08-81.32-128.32-33.81-40.87-68.2-62.44-105.13-65.96-9.22-.88-18.73-.31-29.93,1.8-48.79,9.19-82.56,49.9-121.65,97.04-29.38,35.43-62.68,75.59-107.39,107.02-31.43,22.1-61.16,38.67-90.91,50.66-33.22,13.4-67.7,21.69-105.39,25.37-45.24,4.4-105.48,3.3-169.62-3.11-72.34-7.23-124.2-22.57-163.21-48.28-20.68-13.63-38.09-31.32-51.76-52.6-12.96-20.19-22.05-42.74-27-67.04-4.86-23.87-5.47-48.04-1.81-71.84,3.74-24.34,11.75-46.89,23.8-67.03l.57.34c-51.27,85.66-25.37,203.63,56.56,257.62,38.92,25.64,90.69,40.95,162.92,48.17,64.11,6.41,124.3,7.51,169.49,3.11,70.66-6.88,131.11-30.29,195.99-75.91,44.63-31.38,77.9-71.5,107.26-106.9,39.18-47.24,73.01-88.04,122.04-97.27,11.26-2.12,20.82-2.69,30.11-1.81,19.9,1.89,38.57,8.75,57.08,20.97,16.41,10.83,32.28,25.62,48.5,45.22,30.02,36.28,56.14,83.12,81.39,128.42,48.5,86.99,94.31,169.15,160.99,166.96,60.74-1.91,100.95-72.05,143.51-146.31,39.41-68.75,80.17-139.85,140.57-162.53,16.07-6.04,31.38-8.89,46.78-8.72,13.96.15,27.74,2.8,42.12,8.1,26.85,9.89,51.62,27.4,78.9,47.57,6.74,4.99,13.47,10.2,19.98,15.24,30.39,23.54,59.1,45.77,92.69,49.5,49.59,5.51,80.59-27.4,113.17-67.71,7.4-9.15,14.71-18.8,22.45-29.01,35.31-46.57,75.33-99.35,138.76-123.03,28.43-10.62,51.33-12.1,80.33-13.98,27.3-1.77,61.28-3.97,112.08-14.34,42.55-8.69,84.13-23.59,123.6-44.31l.31.59c-39.52,20.74-81.17,35.67-123.78,44.37-50.84,10.38-84.85,12.58-112.17,14.35-30.07,1.95-51.8,3.36-80.14,13.94-63.25,23.61-103.21,76.32-138.46,122.81-7.75,10.22-15.06,19.86-22.47,29.03-18.37,22.73-34.23,40.33-51.92,52.35-16.15,10.97-32.47,16.24-50.62,16.24-3.66,0-7.39-.21-11.21-.64-33.78-3.75-62.56-26.04-93.03-49.64-6.5-5.04-13.23-10.24-19.96-15.23-57.57-42.58-103.26-70.86-167.17-46.86-60.18,22.6-100.87,93.59-140.23,162.24-21.57,37.62-41.94,73.16-64.99,100.31-12.39,14.59-24.4,25.38-36.71,32.99-13.79,8.51-27.65,12.88-42.37,13.34-.88.03-1.76.04-2.63.04Z"/>
      <path class="cls-11" d="m1019.1,491.48c-65.04,0-110.18-80.18-157.95-165.01-25.3-44.94-51.47-91.41-81.6-127.51-33.99-40.73-68.58-62.35-105.74-66.1-9.06-.92-18.53-.43-29.79,1.53-49.11,8.54-82.79,47.96-121.79,93.61-29.81,34.89-63.6,74.45-109.35,104.44-31.71,20.79-61.66,36.14-91.55,46.91-32.82,11.83-66.91,18.73-104.22,21.08-43.39,2.74-99.9.36-167.95-7.06-32.94-3.59-60.74-8.41-84.97-14.73-30.6-7.98-56.09-18.38-77.92-31.78-20.68-12.69-38.41-29.26-52.71-49.23-13.45-18.79-23.35-39.82-29.42-62.51-12-44.82-7.48-91.14,12.38-127.08l.64.36c-38.1,68.93-18.93,183.56,69.49,237.84C-63,377.13-.01,387.26,49.24,392.63c68.01,7.42,124.47,9.79,167.82,7.06,71.26-4.49,129.7-24.79,195.42-67.87,45.67-29.94,79.42-69.45,109.2-104.3,39.09-45.76,72.85-85.27,122.22-93.86,11.33-1.97,20.86-2.46,29.99-1.53,20.03,2.02,38.82,8.96,57.46,21.21,16.51,10.85,32.47,25.62,48.77,45.16,30.17,36.15,56.36,82.65,81.68,127.62,48.33,85.84,93.98,166.92,160.1,164.59,60.82-2.06,101.08-72.67,143.71-147.43,38.52-67.55,78.34-137.39,136.45-161.67,15.8-6.6,30.81-10.11,45.9-10.72,13.78-.56,27.35,1.33,41.46,5.77,27.69,8.71,53.81,26.33,78.2,43.62,8.25,5.85,16.42,12.08,24.32,18.1,28.65,21.83,55.71,42.46,87.13,47.17,44.97,6.75,74.38-15.98,112.9-60.27,8.49-9.76,16.92-20.27,25.84-31.39,35.17-43.85,75.04-93.55,136.17-117.6,28.52-11.22,51.64-13.5,80.9-16.39,26.63-2.63,59.77-5.9,108.32-16.87,41.66-9.41,82.44-25.16,121.18-46.8l.36.64c-38.81,21.67-79.65,37.44-121.38,46.87-48.6,10.98-81.76,14.26-108.41,16.89-30.35,3-52.28,5.16-80.7,16.34-60.95,23.97-100.75,73.59-135.86,117.37-8.93,11.13-17.36,21.64-25.86,31.41-15.92,18.31-33.3,36.85-52.42,48.41-19.24,11.63-38.66,15.47-61.14,12.1-31.61-4.74-58.74-25.42-87.46-47.31-7.9-6.02-16.06-12.24-24.3-18.09-54.02-38.32-100.46-65.49-164.84-38.59-57.87,24.18-97.64,93.92-136.09,161.36-21.59,37.87-41.99,73.64-65.08,101-12.41,14.71-24.44,25.59-36.78,33.27-13.82,8.6-27.71,13.02-42.46,13.52-.94.03-1.88.05-2.81.05Z"/>
      <path class="cls-10" d="m1031.36,496.46c-64.42,0-109.37-79.06-156.94-162.7-25.37-44.61-51.6-90.73-81.88-126.69-34.17-40.58-68.96-62.25-106.34-66.25-8.91-.95-18.33-.55-29.65,1.25-49.44,7.9-83.06,46.08-121.99,90.3-30.23,34.33-64.49,73.24-111.26,101.75-56.35,34.34-112.9,51.71-195.21,59.95-40.86,4.09-92.39-2.12-146.95-8.69-6.4-.77-12.85-1.55-19.35-2.32-33.52-3.97-60.29-8.62-84.26-14.64-30.64-7.7-56.26-17.55-78.32-30.12-40.01-22.79-70.36-59.67-85.48-103.84-6.85-20.01-10.23-41.04-9.79-60.83.45-19.93,4.78-38.76,12.54-54.46l.73.36c-15.75,31.88-16.74,73.67-2.71,114.67,15.05,43.98,45.28,80.7,85.11,103.4,49.98,28.48,112.98,38.82,162.27,44.66,6.5.77,12.95,1.55,19.35,2.32,54.51,6.57,106.01,12.77,146.77,8.69,82.18-8.23,138.64-25.56,194.87-59.83,46.67-28.44,80.89-67.31,111.08-101.59,19.27-21.89,37.47-42.56,57.04-58.72,21.9-18.09,42.69-28.21,65.44-31.84,11.39-1.82,20.88-2.22,29.86-1.26,20.16,2.16,39.08,9.17,57.83,21.44,16.61,10.88,32.66,25.62,49.05,45.09,30.33,36.01,56.58,82.17,81.96,126.81,48.17,84.7,93.66,164.71,159.2,162.23,27.74-1,52.79-15.94,78.84-47.01,23.09-27.54,43.5-63.54,65.11-101.66,37.6-66.32,76.47-134.89,132.28-160.68,15.53-7.18,30.25-11.34,45.01-12.72,13.61-1.28,26.96-.15,40.81,3.44,25.59,6.63,49.49,20.66,77.5,39.68,9.73,6.61,19.3,13.81,28.55,20.78,26.93,20.28,52.36,39.44,81.68,45.02,44.95,8.56,74.26-11.97,112.63-52.83,9.69-10.32,19.35-21.72,29.58-33.78,34.92-41.18,74.49-87.86,133.22-112.15,28.62-11.84,51.97-14.96,81.52-18.9,25.93-3.46,58.21-7.77,104.52-19.3,40.76-10.15,80.72-26.73,118.77-49.29l.41.7c-38.12,22.6-78.15,39.21-118.99,49.38-46.36,11.54-78.66,15.85-104.61,19.32-30.65,4.09-52.79,7.05-81.32,18.85-58.54,24.22-98.05,70.81-132.91,111.93-10.23,12.07-19.9,23.47-29.6,33.81-15.17,16.16-33.33,34.09-52.93,44.47-19.05,10.09-38.26,12.82-60.44,8.6-29.51-5.62-55.01-24.83-82.02-45.17-9.24-6.96-18.8-14.16-28.52-20.76-50.55-34.32-97.67-60.3-162.52-30.33-55.57,25.68-94.38,94.14-131.92,160.34-21.63,38.15-42.05,74.18-65.19,101.78-12.44,14.84-24.5,25.82-36.87,33.59-13.85,8.69-27.78,13.18-42.57,13.72-1,.04-2,.06-2.99.06Z"/>
      <path class="cls-19" d="m1043.62,501.44c-63.79,0-108.57-77.95-155.94-160.39-25.43-44.27-51.73-90.04-82.16-125.85-34.35-40.43-69.33-62.15-106.95-66.39-8.77-.99-18.14-.68-29.51.98-49.79,7.26-83.37,44.25-122.25,87.08-30.63,33.74-65.35,71.99-113.12,98.96-64.49,36.42-124.47,47.09-194.68,51.91-5.7.39-11.6.57-17.68.57-32.72,0-70.69-5.2-110.53-10.66-11.83-1.62-24.06-3.29-36.42-4.87-52.62-6.72-113.04-17.09-162.25-42.99-39.61-20.86-71.16-54.93-88.82-95.95-15.92-36.97-18.5-75.65-6.9-103.48l.82.34c-11.51,27.61-8.93,66.04,6.89,102.79,17.58,40.83,48.98,74.75,88.42,95.51,49.09,25.84,109.42,36.19,161.95,42.9,12.37,1.58,24.6,3.25,36.43,4.88,47.19,6.46,91.77,12.57,128.03,10.08,70.09-4.81,129.96-15.46,194.31-51.79,47.64-26.9,82.31-65.09,112.9-98.79,19.22-21.18,37.38-41.18,56.99-56.8,21.97-17.5,42.87-27.21,65.78-30.55,11.44-1.67,20.89-1.98,29.73-.98,20.3,2.29,39.33,9.38,58.2,21.68,16.71,10.9,32.84,25.62,49.32,45.02,30.48,35.87,56.8,81.68,82.25,125.99,48.01,83.57,93.36,162.51,158.32,159.89,27.8-1.07,52.9-16.18,79.01-47.54,23.15-27.8,43.59-64.09,65.23-102.51,36.65-65.06,74.55-132.34,128.06-159.56,15.26-7.76,29.7-12.58,44.12-14.74,13.44-2.01,26.57-1.64,40.15,1.11,27.7,5.61,53.28,20.49,76.8,35.75,11.2,7.26,22.11,15.42,32.66,23.31,25.23,18.87,49.07,36.69,76.36,43.03,44.79,10.4,75.11-8.77,112.36-45.39,11.01-10.82,22.03-23.13,33.7-36.17,34.53-38.57,73.68-82.28,129.88-106.7,28.74-12.48,52.32-16.48,82.18-21.53,25.21-4.27,56.59-9.58,100.67-21.62,39.83-10.88,78.98-28.3,116.35-51.78l.47.75c-37.45,23.52-76.67,40.98-116.59,51.88-44.12,12.05-75.53,17.37-100.76,21.64-29.8,5.04-53.34,9.03-81.98,21.47-56.03,24.34-95.1,67.98-129.58,106.48-11.68,13.04-22.71,25.36-33.74,36.21-21.51,21.15-37.49,33.27-53.44,40.52-18.85,8.57-37.83,10.19-59.73,5.1-27.47-6.38-51.38-24.26-76.69-43.18-10.54-7.88-21.43-16.03-32.61-23.27-56.68-36.75-101.06-52.14-160.2-22.07-53.28,27.1-91.11,94.25-127.69,159.2-21.66,38.46-42.13,74.78-65.32,102.64-12.47,14.98-24.57,26.08-36.97,33.93-13.9,8.8-27.86,13.35-42.69,13.92-1.06.04-2.13.06-3.18.06Z"/>
      <path class="cls-18" d="m1055.89,506.42c-63.17,0-107.77-76.84-154.94-158.1-25.5-43.92-51.86-89.34-82.43-125.01-34.53-40.28-69.71-62.05-107.55-66.54-8.75-1.04-17.81-.82-29.37.71-50.14,6.62-83.7,42.45-122.55,83.95-15.92,17-32.38,34.58-51.06,51.2-21.19,18.85-42.08,33.53-63.87,44.89-58.82,30.66-111.9,44.33-173.93,44.33-6.64,0-13.38-.16-20.25-.47-39.37-1.77-88.07-8.53-139.63-15.69-7.66-1.06-15.42-2.14-23.28-3.22-51.83-7.12-111.37-16.76-161.93-41.23-39.09-18.92-71.82-50.19-92.14-88.06-8.81-16.4-14.96-33.61-17.81-49.77-2.78-15.81-2.35-30.28,1.23-41.87l.91.28c-7.29,23.53-.97,58.36,16.5,90.9,20.23,37.69,52.8,68.82,91.72,87.65,50.43,24.41,109.88,34.04,161.64,41.15,7.86,1.08,15.63,2.16,23.29,3.22,51.53,7.15,100.21,13.91,139.54,15.68,6.85.31,13.58.46,20.2.46,61.88,0,114.82-13.63,173.5-44.22,48.59-25.33,83.7-62.82,114.67-95.89,19.19-20.49,37.31-39.84,56.98-54.95,22.05-16.94,43.07-26.24,66.15-29.29,11.64-1.54,20.77-1.76,29.61-.71,20.43,2.42,39.58,9.6,58.57,21.93,16.81,10.92,33.03,25.62,49.59,44.94,30.63,35.73,57.01,81.19,82.53,125.15,47.03,81.02,91.5,157.63,154.12,157.63,1.1,0,2.2-.02,3.31-.07,27.86-1.14,53.03-16.43,79.22-48.11,23.21-28.08,43.69-64.7,65.37-103.46,35.68-63.78,72.57-129.73,123.79-158.28,15-8.36,29.14-13.84,43.23-16.76,13.26-2.74,26.18-3.15,39.5-1.23,22.49,3.24,45.25,12.76,76.11,31.82,12.65,7.81,24.85,16.91,36.64,25.71,23.57,17.58,45.84,34.19,71.16,41.17,44.93,12.39,75.12-4.54,112.09-37.96,12.44-11.25,24.97-24.52,38.24-38.56,34.01-36.01,72.55-76.83,126.13-101.23,28.86-13.15,52.7-18.06,82.89-24.27,24.47-5.04,54.92-11.31,96.78-23.81,38.89-11.62,77.22-29.87,113.94-54.26l.53.8c-36.8,24.44-75.22,42.74-114.19,54.38-41.9,12.52-72.38,18.79-96.86,23.83-30.13,6.2-53.92,11.1-82.68,24.21-53.4,24.33-91.88,65.07-125.83,101.02-13.28,14.06-25.82,27.34-38.29,38.62-28.93,26.16-53.76,42.27-84.69,42.28-8.85,0-18.2-1.32-28.29-4.1-25.5-7.03-47.84-23.69-71.48-41.32-11.78-8.79-23.96-17.87-36.57-25.66-53.49-33.04-98.55-46.88-157.87-13.81-50.99,28.42-87.81,94.25-123.42,157.92-21.71,38.8-42.21,75.45-65.47,103.6-12.51,15.14-24.64,26.36-37.08,34.31-13.94,8.91-27.95,13.54-42.83,14.15-1.13.05-2.25.07-3.36.07Z"/>
      <path class="cls-6" d="m1068.06,511.41c-14.22,0-27.83-3.84-41.48-11.7-13.24-7.62-26.27-18.9-39.84-34.49-25.27-29.03-48.23-68.19-72.54-109.64-25.56-43.58-51.98-88.64-82.7-124.15-34.7-40.13-70.08-61.94-108.15-66.68-8.62-1.07-17.64-.94-29.23.43-50.51,5.99-84.05,40.7-122.9,80.89-16.13,16.69-32.81,33.94-51.75,50.1-21.49,18.32-42.73,32.4-64.95,43.04-32.68,15.66-63.5,26.04-94.23,31.74-30.88,5.73-63.4,7.07-99.43,4.08-31.19-2.59-68.09-8.39-107.16-14.54-17.4-2.74-35.39-5.57-54.07-8.32-57.14-8.41-112.49-17.75-161.6-39.47-20.43-9.04-39.39-21.1-56.34-35.84-15.09-13.13-28.25-28.04-39.11-44.33-9.69-14.54-17.24-29.82-21.82-44.21-4.36-13.69-5.9-25.98-4.44-35.55l1.02.15c-1.43,9.41.09,21.54,4.41,35.08,4.56,14.3,12.06,29.5,21.7,43.95,23.04,34.56,56.78,62.9,95.01,79.81,48.98,21.67,104.26,31,161.33,39.39,18.68,2.75,36.68,5.58,54.08,8.32,39.04,6.14,75.92,11.95,107.08,14.53,70.84,5.87,128.6-4.81,193.13-35.72,49.52-23.72,85.05-60.49,116.4-92.93,19.16-19.83,37.26-38.55,56.98-53.15,22.14-16.38,43.28-25.29,66.53-28.05,11.68-1.38,20.77-1.52,29.48-.43,20.56,2.56,39.84,9.81,58.94,22.17,16.91,10.94,33.22,25.61,49.87,44.86,30.78,35.59,57.23,80.69,82.81,124.3,24.29,41.41,47.23,80.53,72.43,109.49,28.31,32.53,55.04,47.07,84.13,45.75,27.94-1.22,53.19-16.71,79.45-48.74,23.28-28.4,43.8-65.37,65.53-104.51,34.68-62.47,70.54-127.06,119.47-156.86,14.73-8.97,28.58-15.12,42.34-18.79,13.09-3.49,25.79-4.66,38.84-3.56,22.51,1.89,45.77,10.49,75.42,27.9,14.08,8.26,27.52,18.3,40.51,28.01,21.94,16.4,42.66,31.89,66.1,39.4,45.16,14.49,75.19-.23,111.82-30.54,14.01-11.59,28.2-25.87,43.23-40.98,33.32-33.51,71.1-71.5,121.91-95.75,29-13.84,53.11-19.71,83.63-27.15,23.7-5.77,53.2-12.96,92.85-25.88,37.93-12.36,75.45-31.45,111.52-56.75l.59.84c-36.16,25.36-73.77,44.5-111.8,56.89-39.69,12.93-69.21,20.12-92.93,25.9-30.47,7.42-54.53,13.29-83.43,27.08-50.65,24.18-88.36,62.09-121.62,95.55-15.05,15.13-29.26,29.42-43.3,41.05-21.21,17.55-38.02,27.61-54.49,32.61-18.37,5.58-36.89,4.98-58.3-1.89-23.6-7.57-44.39-23.11-66.4-39.56-12.97-9.69-26.38-19.71-40.41-27.95-51.77-30.38-95.85-41.9-155.54-5.56-48.7,29.65-84.49,94.13-119.11,156.48-21.75,39.18-42.3,76.19-65.63,104.66-12.55,15.31-24.72,26.67-37.21,34.73-14,9.03-28.06,13.74-42.99,14.39-1.22.06-2.43.08-3.63.08Z"/>
      <path class="cls-9" d="m1080.31,516.39c-14.03,0-27.46-3.75-40.95-11.43-13.15-7.48-26.11-18.59-39.6-33.94-25.14-28.6-48.05-67.26-72.31-108.19-25.62-43.22-52.11-87.92-82.97-123.28-34.88-39.97-70.45-61.83-108.75-66.83-8.51-1.11-17.48-1.06-29.09.16-50.88,5.35-84.43,38.97-123.28,77.9-16.33,16.37-33.22,33.29-52.43,48.97-21.78,17.78-43.37,31.24-66.01,41.16-32.9,14.41-63.95,23.54-94.92,27.9-30.3,4.27-62.42,4.23-98.21-.13-25.37-3.09-54.3-8.34-84.93-13.9-23.75-4.31-48.31-8.77-74.61-12.9l-.75-.12c-51.49-8.09-109.86-17.26-160.51-37.59-48.01-19.27-80.19-49.95-98.73-72.3-22.85-27.54-34.53-53.9-35.97-67.81l1.1-.11c1.42,13.74,13.02,39.85,35.73,67.21,18.46,22.25,50.5,52.8,98.3,71.98,50.53,20.28,108.83,29.44,160.27,37.52l.75.12c26.31,4.13,50.88,8.59,74.64,12.91,30.61,5.56,59.53,10.81,84.86,13.89,70.94,8.64,128.52.36,192.55-27.69,50.43-22.09,84.83-56.56,118.09-89.89,19.14-19.18,37.22-37.3,57.02-51.4,22.24-15.84,43.5-24.36,66.93-26.82,11.7-1.23,20.75-1.28,29.35-.16,20.4,2.66,40.35,10.2,59.3,22.42,17,10.96,33.4,25.61,50.13,44.78,30.92,35.44,57.44,80.18,83.08,123.44,24.23,40.89,47.12,79.51,72.19,108.03,28.14,32.02,54.67,46.29,83.5,44.9,28.04-1.29,53.37-17,79.72-49.43,23.35-28.74,43.92-66.1,65.7-105.66,33.65-61.12,68.44-124.32,115.1-155.26,14.47-9.6,28.03-16.41,41.44-20.82,12.92-4.25,25.41-6.18,38.18-5.9,22.75.51,45.8,7.9,74.74,23.98,15.5,8.61,30.11,19.61,44.25,30.25,20.34,15.31,39.56,29.77,61.15,37.71,39.61,14.57,69.85,8.3,111.55-23.11,15.71-11.83,31.74-27.18,48.72-43.43,32.47-31.07,69.27-66.3,117.19-90.23,29.14-14.55,53.53-21.44,84.4-30.16,24.11-6.81,51.43-14.53,88.9-27.81,36.95-13.1,73.66-33.03,109.11-59.24l.66.89c-35.54,26.28-72.34,46.26-109.4,59.39-37.51,13.29-64.85,21.02-88.97,27.83-30.82,8.71-55.16,15.58-84.21,30.09-47.78,23.86-84.51,59.02-116.92,90.04-17,16.27-33.06,31.64-48.82,43.51-21.21,15.98-38.17,24.81-55.02,28.65-18.08,4.12-36.38,2.41-57.57-5.38-21.75-8-41.03-22.51-61.44-37.87-14.1-10.61-28.69-21.59-44.12-30.16-48.71-27.07-93.4-36.97-153.22,2.7-46.43,30.79-81.16,93.87-114.74,154.88-21.8,39.6-42.39,77.01-65.81,105.83-12.6,15.5-24.82,27.01-37.35,35.19-14.06,9.16-28.18,13.96-43.18,14.65-1.28.06-2.56.09-3.83.09Z"/>
      <path class="cls-4" d="m1092.56,521.37c-13.84,0-27.1-3.67-40.42-11.16-13.06-7.35-25.94-18.27-39.37-33.4-25.01-28.17-47.87-66.34-72.08-106.75-25.68-42.87-52.23-87.19-83.23-122.4-35.06-39.81-70.82-61.72-109.34-66.97-10.77-1.47-21.13-.83-28.95-.11-51.25,4.71-86.44,38.84-123.7,74.97-16.53,16.04-33.63,32.62-53.09,47.81-22.06,17.23-43.99,30.06-67.04,39.24-33.13,13.19-64.4,21.05-95.62,24.04-30.09,2.88-60.91,1.51-96.99-4.32-20.94-3.39-44.11-8.25-68.64-13.39-26.8-5.62-57.19-12-89.21-17.35-4.3-.72-8.63-1.44-12.99-2.16-49.41-8.18-100.5-16.65-147.94-33.78-37.18-13.43-71.5-35.11-102-64.44-28.05-26.98-42.92-51.16-45.62-55.73l1.01-.6c2.68,4.55,17.48,28.61,45.42,55.48,30.38,29.21,64.56,50.81,101.58,64.18,47.34,17.1,98.37,25.55,147.73,33.73,4.36.72,8.69,1.44,12.99,2.16,32.05,5.36,62.44,11.74,89.26,17.36,24.52,5.14,47.67,10,68.59,13.38,72.04,11.64,127.66,5.95,191.98-19.66,51.32-20.43,86.11-54.17,119.75-86.8,19.13-18.55,37.2-36.08,57.07-49.69,22.34-15.3,43.74-23.44,67.34-25.61,7.88-.72,18.33-1.37,29.22.12,20.53,2.8,40.6,10.43,59.66,22.66,17.1,10.98,33.59,25.6,50.4,44.69,31.07,35.28,57.65,79.66,83.35,122.57,24.18,40.36,47.02,78.49,71.95,106.58,27.97,31.51,54.3,45.51,82.88,44.06,28.15-1.37,53.58-17.31,80.03-50.17,23.44-29.12,44.06-66.92,65.89-106.94,32.59-59.74,66.28-121.51,110.67-153.49,14.21-10.24,27.47-17.72,40.54-22.87,12.74-5.02,25.02-7.72,37.53-8.23,22.64-.94,46.17,5.44,74.06,20.07,16.91,8.87,32.64,20.85,47.86,32.44,18.78,14.3,36.52,27.8,56.34,36.06,39.92,16.63,70.08,12.38,111.28-15.69,17.56-11.97,35.63-28.47,54.75-45.93,31.41-28.69,67.02-61.21,111.93-84.65,29.28-15.29,53.95-23.24,85.17-33.31,23.25-7.5,49.61-16,84.93-29.6,35.96-13.84,71.86-34.61,106.7-61.73l.72.93c-34.93,27.19-70.93,48.01-107,61.9-35.36,13.61-61.73,22.12-85,29.62-31.17,10.06-55.8,18-84.99,33.24-44.77,23.37-80.32,55.83-111.68,84.48-19.16,17.5-37.25,34.02-54.88,46.04-41.58,28.33-72.04,32.62-112.4,15.81-19.97-8.32-37.76-21.87-56.6-36.22-15.18-11.56-30.88-23.51-47.7-32.33-47.14-24.72-90.84-32.32-150.89,10.94-44.17,31.82-77.8,93.47-110.32,153.1-21.85,40.07-42.5,77.91-66,107.11-12.65,15.71-24.92,27.39-37.5,35.69-14.12,9.31-28.31,14.19-43.38,14.93-1.35.07-2.69.1-4.02.1Z"/>
      <path class="cls-5" d="m1104.81,526.35c-13.65,0-26.74-3.58-39.9-10.9-12.98-7.21-25.78-17.96-39.14-32.86-24.88-27.74-47.69-65.43-71.85-105.32-52.47-86.66-106.73-176.27-193.42-188.61-10.66-1.52-21-1-28.82-.39-51.64,4.07-86.85,37.11-124.14,72.09-16.73,15.7-34.04,31.93-53.75,46.64-22.34,16.67-44.6,28.86-68.06,37.29-63.95,22.98-119.6,26.36-192.08,11.68-17.44-3.53-36.25-8.07-56.16-12.88-29.76-7.19-63.5-15.33-100-21.81-8.5-1.51-16.95-2.96-25.89-4.49-44.67-7.66-90.86-15.58-134.69-29.68-63.37-20.39-109.31-58.99-136.76-82.05-10.16-8.54-18.18-15.28-23.61-18.18l.59-1.1c5.54,2.96,13.61,9.74,23.82,18.32,27.38,23,73.2,61.51,136.34,81.82,43.75,14.07,89.89,21.99,134.52,29.64,8.95,1.53,17.4,2.98,25.9,4.49,36.54,6.49,70.29,14.64,100.07,21.83,19.9,4.81,38.7,9.34,56.12,12.87,72.23,14.64,127.69,11.27,191.41-11.63,52.19-18.75,87.36-51.75,121.38-83.66,19.12-17.94,37.19-34.89,57.14-48.02,22.45-14.78,43.98-22.53,67.76-24.41,7.88-.62,18.31-1.14,29.09.4,20.65,2.94,40.85,10.65,60.02,22.91,17.2,11,33.77,25.59,50.67,44.6,31.22,35.13,57.86,79.13,83.62,121.68,24.12,39.84,46.91,77.48,71.71,105.14,27.8,31,53.94,44.74,82.26,43.23,28.27-1.45,53.81-17.65,80.37-50.99,23.53-29.53,44.2-67.81,66.09-108.34,31.49-58.31,64.06-118.61,106.19-151.51,13.95-10.89,26.91-19.04,39.63-24.92,12.57-5.81,24.63-9.26,36.87-10.57,22.77-2.43,46.09,2.7,73.39,16.17,18.3,9.02,35.11,22.03,51.36,34.61,16.49,12.77,33.54,25.97,51.66,34.44,40.28,18.83,70.37,16.59,111.01-8.28,19.58-11.98,39.89-29.73,61.39-48.53,30.14-26.36,64.31-56.23,106.05-78.98,29.42-16.04,54.35-25.11,85.92-36.6,22.39-8.15,47.76-17.38,81-31.25,35.46-14.8,69.57-35.8,104.29-64.22l.79.97c-34.81,28.49-69.02,49.56-104.6,64.4-33.26,13.88-58.65,23.12-81.05,31.27-31.52,11.47-56.42,20.53-85.75,36.52-41.62,22.68-75.73,52.51-105.82,78.82-21.54,18.83-41.89,36.62-61.56,48.66-23,14.07-42.66,20.97-62.66,20.97-15.71,0-31.62-4.25-49.53-12.63-18.24-8.53-35.35-21.77-51.89-34.58-16.2-12.54-32.96-25.52-51.15-34.48-54.7-26.97-96.35-21.58-148.57,19.19-41.92,32.74-74.42,92.92-105.85,151.12-21.91,40.58-42.61,78.9-66.21,108.52-12.7,15.94-25.03,27.8-37.68,36.23-14.19,9.47-28.46,14.45-43.61,15.23-1.41.08-2.82.11-4.22.11Z"/>
      <path class="cls-7" d="m1117.05,531.34c-13.46,0-26.38-3.5-39.37-10.63-12.89-7.08-25.62-17.66-38.91-32.32-24.75-27.32-47.52-64.52-71.62-103.9-50.18-81.99-107.06-174.91-194.27-187.84-10.56-1.57-20.87-1.18-28.68-.66-52.02,3.43-87.28,35.4-124.6,69.26-16.93,15.35-34.44,31.23-54.4,45.44-22.62,16.1-45.21,27.65-69.07,35.32-33.6,10.8-65.34,16.12-97.02,16.27-.44,0-.88,0-1.33,0-28.33,0-57.99-4.03-93.21-12.64-14.58-3.57-29.98-7.82-46.28-12.31-31.92-8.8-68.1-18.78-108.19-26.33-13.03-2.45-26.17-4.74-40.08-7.17-39.6-6.9-80.55-14.04-120.15-25.24-49.63-14.04-90.46-38.11-120.27-55.68-22.66-13.36-40.56-23.91-52.81-24.74l.09-1.32c12.56.85,30.58,11.47,53.39,24.92,29.75,17.54,70.5,41.56,119.96,55.55,39.54,11.18,80.46,18.32,120.02,25.21,13.92,2.43,27.06,4.72,40.1,7.17,40.14,7.55,76.35,17.54,108.29,26.35,16.29,4.49,31.68,8.74,46.24,12.3,72.45,17.73,127.74,16.69,190.83-3.6,53.05-17.06,88.6-49.3,122.99-80.48,19.12-17.34,37.19-33.73,57.22-46.38,22.56-14.26,44.23-21.63,68.19-23.21,7.87-.52,18.28-.91,28.96.67,20.78,3.08,41.09,10.88,60.38,23.17,17.29,11.02,33.95,25.58,50.93,44.51,31.36,34.97,58.07,78.6,83.89,120.78,24.07,39.33,46.81,76.47,71.47,103.7,27.63,30.5,53.58,43.97,81.65,42.4,28.41-1.54,54.08-18.02,80.76-51.88,23.63-29.99,44.36-68.79,66.31-109.88,30.36-56.84,61.76-115.62,101.64-149.33,27.29-23.06,51.09-35.73,74.92-39.89,22.85-3.98,45.96-.09,72.73,12.26,19.68,9.08,37.5,23.17,54.73,36.8,15.07,11.92,30.65,24.24,47.11,32.81,40.67,21.17,70.68,20.94,110.75-.86,21.78-11.85,44.57-31,68.7-51.27,28.63-24.05,61.08-51.32,99.49-73.16,29.53-16.8,54.71-27.04,86.59-40.01,21.52-8.76,45.92-18.68,77.14-32.79,34.44-15.56,67.77-37.38,101.88-66.71l.86,1c-34.21,29.41-67.64,51.29-102.2,66.91-31.25,14.12-55.65,24.05-77.18,32.81-31.83,12.95-56.98,23.18-86.43,39.93-38.31,21.78-70.71,49.01-99.3,73.02-24.18,20.32-47.03,39.51-68.92,51.42-20.94,11.39-38.92,16.7-56.57,16.7h-.07c-17.05-.01-34.64-5.04-55.35-15.83-16.57-8.63-32.2-20.99-47.32-32.94-17.17-13.58-34.92-27.62-54.46-36.63-52.97-24.43-93.97-16.74-146.24,27.43-39.69,33.54-71.03,92.21-101.33,148.94-21.97,41.14-42.73,79.99-66.43,110.07-12.76,16.2-25.15,28.24-37.86,36.83-14.28,9.64-28.62,14.73-43.86,15.55-1.48.08-2.96.12-4.43.12Z"/>
      <path class="cls-8" d="m1129.29,536.32c-13.27,0-26.02-3.41-38.85-10.37-12.81-6.95-25.46-17.35-38.68-31.79-24.62-26.9-47.34-63.62-71.4-102.49-50.34-81.34-107.39-173.54-195.1-187.06-10.47-1.62-20.76-1.35-28.54-.93-52.41,2.79-87.71,33.71-125.09,66.46-17.13,15.01-34.84,30.52-55.05,44.23-22.89,15.52-45.81,26.42-70.06,33.33-33.86,9.64-65.82,13.68-97.72,12.34-28.38-1.19-57.16-6.36-93.31-16.77-12.2-3.51-24.86-7.47-38.26-11.67-33.5-10.48-71.48-22.36-114.51-30.91-18.15-3.61-36.77-6.84-56.48-10.26-33.9-5.88-68.95-11.96-103.4-20.39-39.8-9.74-73.71-24.46-103.63-37.46-34.68-15.06-62.07-26.96-82.24-23.25l-.25-1.38c20.58-3.79,48.15,8.18,83.05,23.34,29.87,12.97,63.72,27.67,103.41,37.38,34.4,8.42,69.43,14.49,103.31,20.37,19.72,3.42,38.35,6.65,56.52,10.26,43.1,8.57,81.12,20.46,114.65,30.95,13.4,4.19,26.05,8.15,38.23,11.66,61.41,17.69,117.27,25.21,190.25,4.43,53.91-15.35,89.83-46.82,124.57-77.26,37.56-32.91,73.04-63.99,125.93-66.8,7.85-.42,18.23-.69,28.83.95,20.9,3.22,41.33,11.1,60.73,23.42,17.39,11.04,34.13,25.57,51.2,44.42,31.51,34.81,58.27,78.05,84.15,119.87,24.02,38.81,46.71,75.47,71.24,102.28,27.46,30,53.21,43.21,81.04,41.58,28.58-1.62,54.38-18.42,81.19-52.84,23.75-30.49,44.53-69.87,66.54-111.57,29.2-55.32,59.39-112.52,97.04-146.9,26.91-24.58,50.22-38.65,73.33-44.29,22.89-5.58,45.79-2.92,72.08,8.36,21.06,9.04,39.82,24.28,57.96,39.01,13.68,11.11,27.82,22.59,42.69,31.15,41.07,23.66,71.02,25.43,110.49,6.55,24.17-11.56,48.55-31.33,76.77-54.22,26.84-21.77,57.27-46.44,92.17-67.13,29.59-17.54,54.96-28.99,87.08-43.48,20.68-9.33,44.12-19.91,73.46-34.25,33.41-16.33,65.95-38.96,99.47-69.2l.94,1.04c-33.62,30.32-66.26,53.03-99.79,69.41-29.36,14.35-52.81,24.93-73.5,34.27-32.08,14.47-57.41,25.91-86.94,43.41-34.82,20.64-65.2,45.28-92.01,67.02-28.29,22.94-52.72,42.76-77.04,54.39-21.03,10.06-39.2,14.1-57.19,12.7-16.86-1.31-33.71-7.26-54.61-19.3-14.96-8.62-29.15-20.14-42.87-31.28-18.07-14.67-36.76-29.84-57.64-38.81-51.32-22.04-91.67-12.04-143.92,35.67-37.48,34.22-67.61,91.31-96.75,146.52-22.04,41.75-42.85,81.19-66.67,111.77-12.83,16.47-25.28,28.73-38.07,37.48-14.36,9.83-28.8,15.03-44.14,15.9-1.55.09-3.09.14-4.63.14Z"/>
      <path class="cls-22" d="m1141.54,541.31c-13.08,0-25.66-3.33-38.33-10.12-12.72-6.82-25.3-17.05-38.45-31.26-24.5-26.48-47.17-62.72-71.18-101.08-50.49-80.69-107.72-172.14-195.93-186.27-10.41-1.67-20.65-1.52-28.41-1.21-52.79,2.14-88.15,32.04-125.58,63.7-17.32,14.65-35.23,29.8-55.69,42.99-23.16,14.94-46.4,25.18-71.05,31.32-34.13,8.5-66.32,11.24-98.42,8.4-27.61-2.45-56.01-8.89-92.08-20.89-10.19-3.39-20.6-7.06-31.63-10.94-34.67-12.21-73.97-26.04-119.44-35.58-24.26-5.09-49.69-9.36-76.62-13.87-27.08-4.54-55.09-9.24-82.92-15.01-31.66-6.56-60.88-15.97-86.67-24.27-46.31-14.91-82.9-26.69-112.06-16.73l-.48-1.39c13.61-4.65,29.66-4.95,50.51-.95,18.78,3.61,40.01,10.44,62.47,17.67,25.75,8.29,54.93,17.69,86.51,24.23,27.8,5.76,55.79,10.45,82.86,14.99,26.94,4.52,52.39,8.79,76.68,13.89,45.56,9.56,84.91,23.41,119.63,35.63,11.02,3.88,21.44,7.55,31.61,10.93,61.59,20.49,117.42,30.44,189.68,12.45,54.76-13.63,91.05-44.33,126.15-74.01,37.63-31.83,73.17-61.88,126.47-64.04,7.83-.32,18.16-.46,28.7,1.22,21.02,3.37,41.57,11.33,61.08,23.67,17.48,11.06,34.31,25.55,51.46,44.32,31.65,34.64,58.47,77.5,84.41,118.95,23.97,38.3,46.61,74.48,71.01,100.86,27.3,29.51,52.86,42.46,80.44,40.76,28.76-1.72,54.71-18.84,81.67-53.9,23.87-31.04,44.71-71.06,66.79-113.43,27.99-53.73,56.93-109.29,92.37-144.22,26.53-26.15,49.33-41.62,71.74-48.69,22.89-7.22,45.59-5.8,71.43,4.47,22.42,8.91,42.07,25.36,61.07,41.27,12.33,10.32,25.08,21,38.4,29.44,35.13,22.27,65.83,32.37,110.23,13.95,26.8-11.11,54.09-32.59,85.7-57.47,24.74-19.47,52.78-41.54,83.98-60.81,29.55-18.25,54.99-30.9,87.2-46.92,19.92-9.91,42.49-21.14,70.15-35.74,32.38-17.1,64.13-40.55,97.06-71.68l1.01,1.07c-33.03,31.23-64.89,54.75-97.39,71.92-27.67,14.62-50.25,25.85-70.18,35.76-32.17,16-57.59,28.65-87.08,46.86-31.13,19.22-59.14,41.26-83.85,60.71-31.69,24.94-59.06,46.48-86.05,57.67-21.11,8.75-39.45,11.51-57.73,8.69-16.42-2.54-33.03-9.56-53.85-22.76-13.41-8.5-26.19-19.2-38.56-29.56-18.92-15.84-38.47-32.21-60.67-41.04-49.77-19.78-89.47-7.47-141.59,43.91-35.27,34.77-64.16,90.22-92.1,143.85-21.13,40.56-42.98,82.5-66.92,113.64-12.9,16.78-25.43,29.27-38.29,38.2-14.46,10.03-29,15.36-44.45,16.28-1.62.1-3.23.15-4.83.15Z"/>
      <path class="cls-13" d="m1153.78,546.3c-12.89,0-25.31-3.24-37.8-9.86-12.64-6.69-25.14-16.74-38.23-30.74-24.38-26.07-47.01-61.83-70.96-99.68-50.64-80.02-108.04-170.71-196.75-185.46-10.37-1.72-20.56-1.7-28.27-1.48-53.18,1.49-88.59,30.38-126.08,60.97-17.52,14.29-35.63,29.07-56.33,41.75-23.42,14.35-46.99,23.93-72.04,29.29-72.18,15.45-126.21,3.59-189.97-20.54-8.46-3.2-17.01-6.57-26.06-10.13-35.53-13.98-75.8-29.83-123.31-40.33-32.06-7.09-66.65-12.46-103.26-18.15-18.24-2.83-37.11-5.77-55.92-8.96-24.38-4.15-47.16-9.5-69.19-14.68-55.36-13.01-103.17-24.25-142.43-6.62l-.63-1.41c39.73-17.85,87.78-6.55,143.41,6.52,22.01,5.17,44.76,10.52,69.1,14.66,18.8,3.2,37.66,6.13,55.9,8.96,36.64,5.69,71.25,11.07,103.36,18.17,47.64,10.53,87.97,26.4,123.55,40.4,9.05,3.56,17.59,6.92,26.04,10.12,63.51,24.04,117.29,35.85,189.1,20.48,55.61-11.9,92.26-41.81,127.72-70.73,37.7-30.76,73.31-59.81,127.01-61.31,7.79-.22,18.07-.24,28.57,1.5,21.14,3.52,41.81,11.57,61.43,23.93,17.57,11.08,34.49,25.54,51.71,44.22,31.79,34.47,58.67,76.94,84.66,118.01,23.92,37.79,46.51,73.49,70.79,99.46,27.13,29.02,52.49,41.71,79.84,39.95,28.97-1.81,55.09-19.31,82.2-55.06,24-31.64,45.88-74.26,67.05-115.48,26.74-52.08,54.4-105.92,87.63-141.25,26.13-27.77,48.42-44.65,70.14-53.1,11.46-4.46,22.73-6.58,34.41-6.5,11.71.09,23.61,2.4,36.38,7.07,23.76,8.68,44.24,26.44,64.04,43.61,11.02,9.56,22.41,19.44,34.26,27.67,36.39,25.26,66.05,36.86,109.98,21.36,29.68-10.47,60.24-33.95,95.62-61.14,23.37-17.96,47.53-36.52,74.8-54.05,29.29-18.83,54.58-32.62,86.6-50.09,19.32-10.54,41.23-22.49,67.55-37.51,31.35-17.89,62.31-42.15,94.66-74.18l1.09,1.1c-32.45,32.12-63.51,56.46-94.98,74.42-26.34,15.03-48.25,26.98-67.58,37.53-31.99,17.45-57.26,31.24-86.5,50.04-27.22,17.49-51.35,36.04-74.69,53.98-35.49,27.27-66.14,50.82-96.05,61.37-21.2,7.48-39.72,8.96-58.27,4.66-15.94-3.7-32.32-11.78-53.1-26.21-11.91-8.27-23.34-18.18-34.39-27.77-19.7-17.08-40.06-34.75-63.56-43.33-48.32-17.64-87.37-3.02-139.27,52.14-33.09,35.16-60.69,88.91-87.38,140.89-21.2,41.27-43.11,83.95-67.19,115.7-12.98,17.11-25.58,29.86-38.54,38.98-14.57,10.25-29.22,15.71-44.8,16.69-1.69.11-3.37.16-5.04.16Z"/>
      <path class="cls-21" d="m1166.01,551.28c-12.7,0-24.95-3.16-37.28-9.61-12.56-6.56-24.99-16.44-38-30.21-24.25-25.66-46.84-60.94-70.75-98.3-50.79-79.34-108.36-169.27-197.56-184.64-9.95-1.71-19.14-2.29-28.1-1.75-52.77,3.14-87.88,30.15-125.04,58.75-36.34,27.96-73.91,56.87-131.57,67.25-34.73,6.25-67.37,6.4-99.79.46-33.14-6.08-63.92-18.1-89.66-29.06-6.97-2.97-13.94-6.01-21.32-9.24-36.14-15.8-77.11-33.71-126.36-45.16-42.92-9.98-91.12-16.37-142.16-23.13-5.53-.73-11.09-1.47-16.66-2.21-17.51-2.34-34.54-5.16-51-7.88-66.02-10.92-123.04-20.36-173.53,6.29l-.76-1.43c23.33-12.31,49.33-17.84,81.83-17.39,29.03.4,59.97,5.52,92.72,10.94,16.45,2.72,33.46,5.54,50.95,7.87,5.58.74,11.13,1.48,16.66,2.21,51.07,6.77,99.31,13.17,142.31,23.16,49.39,11.48,90.43,29.42,126.64,45.25,7.38,3.22,14.35,6.27,21.31,9.23,65.27,27.79,117.05,41.36,188.53,28.5,57.27-10.31,94.69-39.1,130.87-66.94,37.37-28.76,72.67-55.92,125.94-59.09,9.09-.54,18.4.04,28.47,1.78,21.26,3.66,42.05,11.8,61.77,24.19,17.66,11.09,34.66,25.52,51.97,44.11,31.93,34.3,58.87,76.37,84.91,117.06,23.87,37.29,46.42,72.51,70.57,98.06,26.97,28.53,52.15,40.97,79.25,39.14,28.8-1.89,55.89-20.31,82.8-56.33,24.14-32.31,46.1-75.74,67.33-117.73,25.45-50.34,51.77-102.39,82.82-137.95,25.71-29.44,47.49-47.72,68.53-57.52,11.35-5.29,22.47-8.14,34-8.71,11.68-.59,23.51,1.18,36.16,5.39,25.1,8.35,46.33,27.51,66.87,46.05,9.75,8.8,19.84,17.9,30.26,25.8,36.71,27.81,66.43,41.43,109.73,28.76,32.87-9.62,67.08-35.48,106.7-65.42,20.35-15.38,41.38-31.27,64.45-46.69,28.57-19.11,54.5-34.55,84.53-52.44,19.11-11.39,40.77-24.29,66.43-40.1,30.31-18.68,60.49-43.76,92.26-76.67l1.16,1.12c-31.86,33.01-62.14,58.17-92.57,76.92-25.66,15.82-47.33,28.72-66.45,40.11-30,17.87-55.91,33.31-84.45,52.39-23.02,15.39-44.04,31.28-64.37,46.64-39.75,30.04-74.07,55.98-107.22,65.68-21.33,6.24-40.01,6.44-58.81.63-15.66-4.84-31.31-13.71-52.35-29.65-10.48-7.94-20.59-17.06-30.37-25.89-20.42-18.42-41.52-37.47-66.3-45.71-46.97-15.62-85.37,1.3-136.96,60.37-30.92,35.4-57.19,87.36-82.59,137.62-21.26,42.06-43.25,85.55-67.48,117.97-13.06,17.47-25.75,30.51-38.81,39.84-14.68,10.5-29.46,16.1-45.18,17.13-1.76.12-3.51.18-5.25.18Z"/>
      <path class="cls-20" d="m1178.25,556.27c-12.51,0-24.59-3.08-36.76-9.35-12.47-6.43-24.83-16.15-37.79-29.7-24.13-25.25-46.68-60.06-70.55-96.92-50.94-78.66-108.68-167.81-198.37-183.8-9.86-1.76-19.01-2.42-27.97-2.03-53.21,2.35-88.39,28.45-125.64,56.08-36.67,27.2-74.59,55.33-133.1,63.92-35.06,5.15-67.92,3.99-100.46-3.54-32.02-7.41-61.44-20.3-88.46-33.12-5.66-2.69-11.28-5.4-17.24-8.28-36.57-17.66-78.02-37.67-128.74-50.05-48.66-11.88-104.91-18.36-158.46-23.58-10.74-1.05-21.46-2.22-31.83-3.35-73.34-7.99-142.61-15.54-205.63,21.46l-.86-1.46c29-17.03,60.52-25.89,99.18-27.89,34.36-1.77,69.88,2.1,107.49,6.2,10.36,1.13,21.08,2.3,31.81,3.35,53.61,5.24,109.93,11.72,158.69,23.62,50.89,12.42,92.43,32.48,129.08,50.18,5.95,2.87,11.57,5.59,17.23,8.27,54.37,25.8,109.66,48.01,187.95,36.52,58.09-8.53,95.84-36.53,132.34-63.61,37.46-27.79,72.85-54.04,126.57-56.41,9.08-.4,18.35.27,28.34,2.05,21.38,3.81,42.28,12.04,62.11,24.45,17.75,11.11,34.84,25.5,52.22,44,32.07,34.12,59.06,75.8,85.16,116.1,23.82,36.79,46.33,71.53,70.35,96.67,26.81,28.05,51.8,40.23,78.67,38.34,29.06-1.99,56.36-20.87,83.46-57.72,24.3-33.05,46.33-77.37,67.63-120.23,24.11-48.51,49.04-98.67,77.91-134.28,25.26-31.16,46.52-50.84,66.91-61.93,11.24-6.11,22.22-9.69,33.58-10.93,11.65-1.27,23.4-.06,35.94,3.7,26.41,7.92,47.37,27.68,69.56,48.59,8.53,8.04,17.35,16.35,26.42,23.82,36.99,30.48,66.76,46.16,109.48,36.16,36.43-8.53,74.76-37.26,119.15-70.52,16.81-12.6,34.19-25.63,52.72-38.5,26.8-18.63,51.03-34.33,79.1-52.52,19.79-12.83,42.23-27.36,68.66-44.96,29.69-19.76,58.24-44.91,89.86-79.16l1.24,1.15c-31.71,34.35-60.36,59.59-90.16,79.42-26.44,17.6-48.88,32.14-68.67,44.97-28.05,18.18-52.28,33.88-79.05,52.49-18.5,12.86-35.88,25.88-52.67,38.47-44.54,33.38-83.01,62.21-119.78,70.82-8.78,2.06-17.12,3.09-25.22,3.09-11.7,0-22.88-2.16-34.13-6.51-18.98-7.35-36.02-20.24-51.6-33.08-9.11-7.51-17.95-15.84-26.5-23.9-22.04-20.77-42.85-40.39-68.88-48.2-45.74-13.72-83.49,5.51-134.64,68.6-28.76,35.46-53.64,85.54-77.71,133.97-21.34,42.93-43.4,87.32-67.78,120.48-13.15,17.88-25.94,31.22-39.1,40.79-14.81,10.77-29.73,16.53-45.6,17.62-1.83.13-3.65.19-5.46.19Z"/>
      <path class="cls-12" d="m1190.48,561.26c-12.33,0-24.24-3-36.24-9.11-12.39-6.31-24.68-15.85-37.57-29.18-24.02-24.85-46.52-59.19-70.35-95.55-51.09-77.96-108.99-166.32-199.16-182.95-9.78-1.8-18.88-2.56-27.84-2.3-53.64,1.53-88.91,26.74-126.25,53.42-37,26.44-75.26,53.79-134.62,60.58-18.71,2.14-36.26,2.48-53.66,1.04-16.01-1.33-31.54-4.14-47.47-8.6-29.26-8.19-56.05-20.78-87.27-37.16-4.52-2.37-8.97-4.73-13.69-7.24-36.85-19.55-78.61-41.72-130.59-55.03-42.17-10.8-92.4-17.73-158.09-21.82-3.79-.24-7.58-.48-11.36-.72-83.31-5.3-162.01-10.3-239.03,38.55l-.95-1.49c77.51-49.15,156.48-44.13,240.09-38.82,3.78.24,7.56.48,11.35.72,65.8,4.1,116.14,11.05,158.42,21.87,52.18,13.36,94.04,35.58,130.98,55.18,4.71,2.5,9.17,4.87,13.68,7.23,56.47,29.63,109.54,53.44,187.38,44.53,58.91-6.74,96.98-33.95,133.8-60.26,37.56-26.85,73.04-52.2,127.23-53.75,9.08-.26,18.31.5,28.21,2.33,40.63,7.49,78.22,29.93,114.91,68.6,32.21,33.94,59.25,75.21,85.4,115.12,23.78,36.29,46.24,70.56,70.14,95.29,26.64,27.57,51.46,39.49,78.09,37.54,29.36-2.1,56.9-21.49,84.2-59.27,24.47-33.86,46.58-79.18,67.95-123.01,22.72-46.57,46.21-94.73,72.91-130.19,24.78-32.91,45.53-53.99,65.29-66.35,11.11-6.95,21.96-11.25,33.17-13.14,11.61-1.96,23.3-1.3,35.73,2.02,27.71,7.4,49.27,28.7,72.08,51.25,7.35,7.27,14.95,14.78,22.73,21.72,32.15,28.73,62.56,51.83,109.24,43.56,40.43-7.17,83.44-39.44,133.25-76.81,12.66-9.5,25.76-19.32,39.35-29.14,21.99-15.88,42.66-30.38,64.54-45.72,24.04-16.87,48.91-34.31,80.02-56.68,28.64-20.6,56.43-46.54,87.46-81.66l1.32,1.17c-31.11,35.21-59,61.24-87.75,81.92-31.12,22.38-55.99,39.82-80.04,56.69-21.87,15.34-42.54,29.84-64.52,45.71-13.58,9.8-26.66,19.62-39.32,29.12-49.99,37.51-93.16,69.9-134,77.14-21.63,3.83-40.65,1.46-59.87-7.47-18.33-8.52-35.28-22.58-50.86-36.51-7.81-6.98-15.42-14.5-22.79-21.79-22.65-22.38-44.04-43.52-71.3-50.8-51.45-13.74-90.11,20.77-132.32,76.82-26.6,35.33-50.06,83.41-72.74,129.9-21.41,43.89-43.55,89.28-68.11,123.27-13.24,18.33-26.14,32.02-39.43,41.84-14.96,11.06-30.03,17-46.07,18.15-1.9.14-3.8.21-5.68.21Z"/>
      <path class="cls-15" d="m1202.72,566.25c-12.14,0-23.88-2.92-35.72-8.86-12.31-6.18-24.53-15.56-37.36-28.67-23.9-24.44-46.36-58.32-70.15-94.19-51.23-77.25-109.3-164.81-199.94-182.09-8.02-1.53-16.83-2.35-27.74-2.57-54.67-1.14-90.34,23.84-128.1,50.29-37.04,25.95-75.34,52.77-134.87,57.7-18.96,1.57-36.71,1.28-54.26-.88-16.05-1.97-31.59-5.48-47.52-10.71-28.4-9.34-54-22.69-86.1-41.2-3.5-2.02-7.02-4.06-10.57-6.13-37-21.49-78.94-45.84-132-60.07-36.74-9.86-93.06-22.66-157.66-20.06-10.94.44-22.04.74-32.78,1.03-75.01,2.01-152.58,4.09-230.6,56.52l-1.03-1.53c18.86-12.67,38.01-22.76,58.54-30.84,18.29-7.2,37.27-12.62,58.01-16.58,38.51-7.35,77.41-8.4,115.03-9.4,10.74-.29,21.84-.58,32.76-1.02,64.85-2.61,121.35,10.23,158.21,20.12,53.29,14.29,95.34,38.71,132.44,60.25,3.55,2.06,7.07,4.11,10.57,6.12,56.42,32.54,109.42,58.95,186.8,52.55,59.03-4.89,97.13-31.57,133.97-57.37,38.01-26.63,73.92-51.78,129.19-50.62,11.01.23,19.92,1.06,28.04,2.6,40.85,7.78,78.62,30.27,115.49,68.75,32.34,33.76,59.44,74.62,85.64,114.13,23.74,35.79,46.16,69.6,69.93,93.92,26.49,27.09,51.12,38.77,77.51,36.76,29.69-2.22,57.5-22.16,85.02-60.98,24.66-34.77,46.84-81.2,68.3-126.09,21.27-44.51,43.26-90.53,67.81-125.62,42.09-60.17,80.64-97.79,131.94-85.78,28.99,6.79,51.07,29.75,74.45,54.06,6.22,6.47,12.66,13.16,19.2,19.49,32.29,31.21,62.78,56.59,109,50.96,44.99-5.48,93.36-42.22,149.37-84.77,7.77-5.9,15.8-12,23.94-18.1,5.27-3.95,10.47-7.85,15.62-11.71,38.59-28.92,75.05-56.23,125.73-95.62,27.61-21.46,54.64-48.2,85.06-84.15l1.4,1.19c-30.5,36.05-57.62,62.87-85.33,84.42-50.7,39.4-87.16,66.72-125.76,95.64-5.16,3.86-10.35,7.75-15.62,11.71-8.13,6.1-16.16,12.2-23.93,18.1-56.22,42.7-104.77,79.58-150.26,85.13-21.81,2.66-41-1.01-60.38-11.54-16.71-9.08-32.12-22.53-50.12-39.92-6.57-6.35-13.01-13.05-19.25-19.54-23.19-24.11-45.08-46.88-73.55-53.55-50.3-11.77-88.35,25.49-130.01,85.05-24.46,34.97-46.42,80.92-67.65,125.36-21.49,44.97-43.71,91.46-68.45,126.36-13.35,18.83-26.36,32.9-39.78,43.01-15.12,11.39-30.36,17.52-46.6,18.74-1.98.15-3.94.23-5.89.23Z"/>
      <path class="cls-17" d="m1214.94,571.24c-11.95,0-23.53-2.84-35.2-8.61-12.23-6.05-24.38-15.27-37.14-28.17-23.78-24.04-46.21-57.46-69.96-92.84-51.37-76.54-109.6-163.28-200.71-181.2-8.08-1.59-16.85-2.49-27.6-2.85-55.03-1.81-90.76,22.23-128.59,47.68-37.4,25.16-76.08,51.17-136.51,54.31-19.21,1-37.15.08-54.86-2.8-16.09-2.62-31.65-6.82-47.55-12.83-30.45-11.52-57.55-27.96-84.93-45.22-2.6-1.64-5.21-3.29-7.83-4.95-38.87-24.59-79.06-50.02-133.04-65.17-55.74-15.64-107.19-21.63-157.29-18.3-4.29.29-8.6.56-12.91.84-83.77,5.41-170.38,11.01-263.42,76.42l-1.1-1.56C-90.24,220.26-3.35,214.65,80.69,209.22c4.31-.28,8.61-.56,12.91-.84,27.62-1.84,56.1-.84,84.65,2.97,23.62,3.15,47.59,8.18,73.28,15.4,24.26,6.81,48.09,16.42,72.84,29.38,21.83,11.43,41.59,23.93,60.7,36.02,2.62,1.66,5.23,3.31,7.83,4.95,58.32,36.76,109.07,64.57,186.23,60.56,59.91-3.11,98.36-28.97,135.54-53.99,38.09-25.62,74.08-49.82,129.72-48,10.86.36,19.73,1.27,27.91,2.88,41.06,8.07,79.02,30.61,116.05,68.89,32.48,33.57,59.62,74.01,85.88,113.13,23.69,35.3,46.08,68.65,69.73,92.56,26.33,26.62,50.79,38.05,76.95,35.97,30.07-2.34,58.18-22.91,85.95-62.88,24.86-35.79,47.13-83.45,68.66-129.55,19.76-42.29,40.18-86.01,62.57-120.48,41.44-63.79,79.35-104.21,129.68-94.1,30.25,6.07,52.79,30.82,76.66,57.02,5.15,5.65,10.47,11.49,15.85,17.1,33.52,34.97,62.81,61.48,108.76,58.36,50.29-3.42,104.86-45.92,168.05-95.14l5.97-4.65c44.29-34.47,84.32-66.99,138.15-112.26,34.94-29.38,63.91-63.52,82.66-86.65l1.49,1.21c-18.8,23.19-47.85,57.42-82.92,86.91-53.86,45.28-93.9,77.82-138.21,112.3l-5.97,4.65c-63.44,49.41-118.22,92.08-169.09,95.54-11.53.78-22.25-.23-32.78-3.09-9.57-2.61-18.76-6.7-28.11-12.51-17.94-11.16-34.24-27.53-49.39-43.34-5.4-5.63-10.73-11.48-15.88-17.14-23.65-25.96-45.99-50.48-75.62-56.43-49.28-9.89-86.69,30.13-127.7,93.27-22.32,34.35-42.72,78.02-62.44,120.25-21.57,46.17-43.87,93.9-68.83,129.83-13.47,19.39-26.61,33.88-40.18,44.32-15.29,11.76-30.73,18.1-47.19,19.38-2.05.16-4.09.24-6.12.24Z"/>
      <path class="cls-23" d="m1227.17,576.23c-11.77,0-23.17-2.76-34.68-8.37-12.16-5.93-24.24-14.98-36.94-27.66-23.67-23.65-46.07-56.61-69.78-91.5-51.51-75.81-109.9-161.73-201.47-180.31-8.16-1.66-16.89-2.65-27.47-3.12-55.38-2.47-91.18,20.62-129.07,45.08-37.76,24.37-76.81,49.57-138.16,50.9-19.46.42-37.6-1.13-55.45-4.73-16.14-3.26-31.7-8.15-47.59-14.95-29.49-12.62-55.39-29.77-83.79-49.24-1.79-1.23-3.59-2.46-5.39-3.7-38.84-26.68-79-54.27-133.77-70.35-45.57-13.37-98.39-18.93-156.97-16.53-81.85,3.36-180.23,17.5-289.22,96.98l-1.17-1.61c49.25-35.91,99.06-60.96,152.26-76.56,41.48-12.17,84.05-18.58,138.05-20.79,58.8-2.41,111.83,3.18,157.61,16.61,55.07,16.16,95.37,43.84,134.34,70.61,1.8,1.24,3.6,2.47,5.39,3.7,58.44,40.07,105.92,68.64,179.37,68.64,2.08,0,4.17-.02,6.29-.07,60.8-1.32,99.6-26.36,137.13-50.58,19.24-12.42,37.41-24.14,58.23-32.76,23.6-9.76,46.48-13.78,72.01-12.64,10.69.48,19.51,1.48,27.78,3.16,92.37,18.74,150.99,105.02,202.72,181.14,23.66,34.81,46,67.7,69.54,91.21,26.18,26.15,50.45,37.34,76.39,35.2,30.5-2.48,58.95-23.75,86.98-65.02,25.09-36.94,47.44-85.99,69.06-133.43,18.17-39.88,36.97-81.13,57.2-114.67,40.69-67.46,77.93-110.7,127.43-102.42,31.47,5.26,54.41,31.92,78.69,60.14,4.12,4.79,8.38,9.74,12.67,14.56,33.52,37.69,62.79,66.45,108.53,65.76,24.24-.38,50.49-9.58,82.61-28.97,30.03-18.13,61.97-43.41,92.11-67.74,45.76-36.95,87.04-73.57,134.95-117.18,33.65-30.63,61.93-65.55,80.27-89.15l1.57,1.22c-18.39,23.66-46.74,58.66-80.5,89.4-47.93,43.64-89.24,80.28-135.04,117.26-30.19,24.38-62.19,49.7-92.34,67.9-15.52,9.37-29.5,16.26-42.75,21.08-14.59,5.3-27.95,7.98-40.86,8.18-11.68.18-22.53-1.48-33.18-5.09-9.61-3.25-18.83-8.02-28.2-14.58-17.37-12.17-32.94-29.06-48.67-46.75-4.3-4.83-8.56-9.79-12.69-14.58-24.04-27.94-46.74-54.33-77.51-59.48-48.39-8.09-85.13,34.72-125.4,101.49-20.17,33.45-38.94,74.64-57.09,114.47-21.65,47.51-44.04,96.65-69.22,133.72-13.59,20.02-26.88,34.99-40.61,45.78-15.49,12.17-31.14,18.75-47.85,20.1-2.13.18-4.24.26-6.34.26Z"/>
      <path class="cls-14" d="m1239.39,581.22c-11.58,0-22.82-2.68-34.16-8.13-12.08-5.8-24.1-14.69-36.73-27.17-23.56-23.26-45.92-55.76-69.6-90.17-51.65-75.07-110.19-160.16-202.21-179.4-8.15-1.7-17.1-2.81-27.34-3.39-56.24-3.18-92.35,18.84-130.59,42.15-37.88,23.1-77.05,46.98-138.76,47.82-1.17.02-2.35.02-3.5.02-79.18,0-129.01-37.04-181.74-76.22l-4.29-3.19c-38.74-28.8-78.8-58.59-134.24-75.58-46.05-14.11-98.73-19.08-156.59-14.77-75.9,5.65-178.83,24.03-302.17,116.7l-1.24-1.65c53.68-40.33,106.63-69.33,161.87-88.65,44.45-15.54,89.38-24.59,141.38-28.46,58.12-4.33,111.06.67,157.35,14.85,55.79,17.1,95.99,46.99,134.87,75.9l4.28,3.18c52.44,38.97,102.03,75.82,180.53,75.82,1.15,0,2.3,0,3.46-.02,61.15-.84,100.07-24.57,137.72-47.52,19.42-11.84,37.76-23.02,58.81-31.13,23.86-9.19,47.04-12.78,72.96-11.32,10.35.58,19.39,1.71,27.64,3.43,92.83,19.41,151.62,104.86,203.49,180.25,23.62,34.33,45.93,66.75,69.35,89.87,26.02,25.69,50.12,36.62,75.84,34.43,30.99-2.62,59.82-24.68,88.16-67.44,25.34-38.24,47.78-88.87,69.48-137.83,16.52-37.26,33.6-75.79,51.66-108.08,39.84-71.18,76.37-117.26,125.17-110.74,32.67,4.36,55.93,33.05,80.54,63.43,3.15,3.89,6.41,7.91,9.66,11.85,29.02,35.1,59.02,71.4,108.3,73.16,24.53.87,51.82-7.61,83.45-25.92,31.73-18.38,64.3-44.54,91.98-67.72,44.03-36.86,84.51-75.47,131.74-122.1,24.67-24.35,49.41-53.47,77.88-91.66l1.65,1.23c-28.53,38.27-53.34,67.47-78.08,91.89-47.27,46.67-87.79,85.31-131.87,122.22-27.74,23.23-60.4,49.46-92.27,67.92-31.97,18.52-59.63,27.09-84.56,26.2-22.14-.79-42.37-8.56-61.86-23.75-16.88-13.16-31.71-30.5-47.95-50.16-3.26-3.95-6.52-7.97-9.68-11.86-24.35-30.05-47.35-58.43-79.21-62.69-47.65-6.36-83.67,39.26-123.1,109.71-18.02,32.2-35.08,70.69-51.58,107.91-21.74,49.04-44.21,99.75-69.65,138.13-13.73,20.73-27.18,36.25-41.1,47.44-15.71,12.63-31.61,19.47-48.6,20.91-2.2.19-4.39.28-6.57.28Z"/>
      <path class="cls-16" d="m1251.61,586.22c-11.4,0-22.46-2.6-33.64-7.89-12-5.68-23.95-14.41-36.53-26.67-23.45-22.87-45.78-54.92-69.43-88.85-51.79-74.32-110.48-158.56-202.94-178.47-8.29-1.78-17.18-2.98-27.2-3.67-56.06-3.82-91.98,17.44-130,39.95-36.72,21.73-74.63,44.17-132.97,44.17-2.8,0-5.64-.05-8.54-.16-19.98-.73-38.49-3.55-56.6-8.62-16.23-4.55-31.81-10.82-47.63-19.19-29.91-15.83-56.15-36.88-81.54-57.25l-1.27-1.02c-38.57-30.95-78.46-62.96-134.49-80.88-46.28-14.8-98.84-19.18-156.21-13.01-109.47,11.77-209.6,55.12-315.13,136.42l-1.3-1.69c29.84-22.99,59.9-43.31,89.33-60.4,27.27-15.83,54.91-29.4,82.14-40.33,47.06-18.9,94.4-30.71,144.73-36.12,57.67-6.2,110.52-1.79,157.09,13.1,56.41,18.04,96.45,50.17,135.18,81.25l1.27,1.02c52.28,41.95,101.66,81.57,184.51,84.59,62.61,2.29,102.12-21.1,140.34-43.72,19.27-11.41,37.47-22.18,58.46-29.93,23.82-8.8,46.94-12.07,72.78-10.31,10.12.69,19.12,1.9,27.51,3.71,93.29,20.08,152.24,104.69,204.25,179.34,23.58,33.85,45.86,65.82,69.17,88.55,25.88,25.23,49.8,35.93,75.29,33.66,31.55-2.78,60.82-25.73,89.49-70.18,25.62-39.72,48.14-92.14,69.93-142.83,14.77-34.37,30.05-69.92,45.94-100.54,22.03-42.45,39.62-69.73,57.06-88.44,21.33-22.89,42.87-32.91,65.85-30.62,33.85,3.37,57.34,34.23,82.22,66.9,2.23,2.93,4.55,5.97,6.85,8.96,28.87,37.53,58.73,76.34,108.07,80.56,57.59,4.92,121.35-43.02,176.13-90.56,37.54-32.58,74.78-69.38,128.54-127.02,23.79-25.51,47.78-55.43,75.49-94.16l1.74,1.24c-27.77,38.81-51.81,68.8-75.66,94.38-53.81,57.7-91.1,94.55-128.7,127.18-36.57,31.74-65.87,53.33-92.2,67.94-28.41,15.77-53.66,23.5-76.86,23.5-2.92,0-5.8-.12-8.65-.37-22.37-1.91-42.76-11.01-62.34-27.82-17.8-15.28-33.44-35.62-47.24-53.56-2.3-2.99-4.62-6.03-6.85-8.97-24.59-32.29-47.81-62.79-80.73-66.07-22.28-2.22-43.23,7.58-64.07,29.95-17.29,18.56-34.79,45.7-56.72,87.97-15.85,30.56-31.11,66.06-45.87,100.4-21.82,50.77-44.39,103.28-70.1,143.15-13.89,21.54-27.51,37.68-41.64,49.33-15.96,13.16-32.14,20.3-49.45,21.83-2.28.2-4.54.3-6.79.3Z"/>
      <path class="cls-2" d="m1263.83,591.21c-11.21,0-22.11-2.53-33.12-7.66-11.93-5.56-23.82-14.12-36.34-26.18-23.35-22.48-45.65-54.09-69.27-87.55-51.92-73.56-110.76-156.94-203.66-177.53-8.45-1.87-17.3-3.16-27.07-3.94-56.39-4.5-92.36,15.86-130.45,37.41-35.7,20.2-72.53,41.04-128.12,41.04-4.88,0-9.89-.16-15.07-.5-20.14-1.3-38.76-4.74-56.91-10.49-16.23-5.15-31.76-12.06-47.47-21.15-29.21-16.89-53.94-38.24-80.11-60.85l-.75-.65c-38.12-32.92-77.53-66.96-134.06-85.81-46.36-15.46-98.78-19.24-155.83-11.25-106.17,14.88-213.49,65.96-328.09,156.15l-1.37-1.74c32.01-25.2,63.96-47.67,94.95-66.81,28.93-17.86,57.9-33.34,86.11-46.02,50.1-22.51,98.54-36.83,148.08-43.78,57.38-8.04,110.15-4.23,156.83,11.34,56.94,18.99,96.52,53.18,134.8,86.24l.75.65c51.55,44.53,100.25,86.59,183.19,91.95,63.54,4.11,103.41-18.45,141.96-40.26,18.44-10.43,37.5-21.22,58.57-28.54,23.59-8.2,47.52-11.19,73.14-9.15,9.87.79,18.83,2.09,27.37,3.98,93.73,20.77,152.84,104.52,204.99,178.41,47.43,67.2,88.39,125.23,143.75,120.13,72.01-6.59,117.46-116.06,161.42-221.92,12.93-31.15,26.31-63.36,40-91.85,21.26-44.23,38.34-72.87,55.39-92.86,21.08-24.72,42.42-36.02,65.24-34.52,34.99,2.29,58.66,35.44,83.72,70.55,1.4,1.96,2.8,3.92,4.21,5.89,28.65,39.98,58.28,81.32,107.84,87.96,25.71,3.44,53.57-3.03,85.18-19.8,27.14-14.4,57.12-36.54,91.65-67.69,37.08-33.23,74.56-72.69,125.33-131.94,23.04-26.88,46.26-57.6,73.1-96.67l1.82,1.25c-26.88,39.14-50.15,69.92-73.24,96.86-50.84,59.32-88.38,98.84-125.53,132.14-34.66,31.27-64.78,53.52-92.09,68-26.46,14.04-50.38,20.95-72.66,20.95-4.69,0-9.3-.31-13.85-.92-50.5-6.77-80.42-48.5-109.34-88.86-1.41-1.97-2.81-3.93-4.21-5.89-24.75-34.67-48.12-67.41-82.06-69.63-22.07-1.44-42.82,9.6-63.42,33.75-16.92,19.84-33.91,48.34-55.08,92.39-13.67,28.43-27.03,60.62-39.95,91.74-21.91,52.76-44.56,107.32-70.58,148.91-14.06,22.47-27.89,39.32-42.25,51.5-16.24,13.77-32.74,21.25-50.42,22.87-2.36.22-4.7.33-7.03.33Z"/>
      <path class="cls-3" d="m1276.04,596.21c-11.03,0-21.76-2.45-32.61-7.42-11.86-5.44-23.69-13.84-36.16-25.69-23.25-22.1-45.55-53.26-69.15-86.25-52.04-72.75-111.03-155.2-204.3-176.57-8.59-1.95-17.66-3.36-26.94-4.21-56.7-5.17-92.73,14.29-130.88,34.9-34.71,18.75-70.47,38.06-123.46,38.06-6.85,0-13.98-.32-21.44-1.01-20.2-1.86-38.82-5.87-56.92-12.25-16.17-5.7-31.58-13.18-47.11-22.87-28.86-18.01-52.91-40.33-78.38-63.95l-2.3-2.13c-35.27-32.71-75.25-69.78-132.36-89.73-46.48-16.06-98.78-19.25-155.44-9.49-104.26,17.96-215.82,75.49-341.04,175.88l-1.43-1.78C-117.51,288.48-53.37,246.45,6.76,216.75c27.22-13.44,54.23-24.65,80.27-33.33,24.05-8.01,47.99-14.1,71.17-18.09,30.21-5.21,59.38-6.79,86.71-4.7,24.29,1.85,47.8,6.66,69.86,14.28,57.56,20.11,97.72,57.36,133.16,90.22l2.3,2.13c50.34,46.7,97.89,90.81,181.07,98.48,64.49,5.95,104.71-15.78,143.6-36.79,18.45-9.97,37.53-20.27,58.67-27.17,23.69-7.73,47.73-10.34,73.5-7.99,9.38.86,18.55,2.29,27.24,4.26,94.11,21.56,153.36,104.39,205.64,177.46,47.34,66.17,88.21,123.32,143.12,118.08,73.73-7.01,119.45-121.51,163.67-232.24,10.99-27.52,22.35-55.97,33.81-81.75,20.44-45.98,37.01-76,53.72-97.31,20.83-26.58,41.96-39.13,64.64-38.4,16.58.49,31.46,7.98,46.83,23.59,13.55,13.76,25.67,31.97,38.5,51.25l2.02,3.02c28.16,41.98,57.28,85.39,107.05,94.51,49.13,8.81,107.2-18.81,177.52-84.42,37.03-34.43,75.83-77.92,122.13-136.85,22.21-28.27,45.34-60.72,70.71-99.19l1.9,1.26c-25.41,38.52-48.57,71.02-70.82,99.34-46.37,59.03-85.25,102.59-122.37,137.11-33.66,31.41-63.76,53.64-92.02,67.97-15.42,7.81-30.39,13.24-44.51,16.12-14.91,3.04-29.36,3.35-42.95.91-22.73-4.17-43.29-15.83-62.87-35.66-17.25-17.47-31.7-39-45.66-59.82l-2.02-3.03c-12.77-19.19-24.83-37.31-38.23-50.91-14.93-15.16-29.32-22.44-45.28-22.91-21.9-.72-42.42,11.56-62.78,37.53-16.59,21.16-33.07,51.03-53.43,96.83-11.44,25.74-22.8,54.17-33.78,81.67-44.47,111.36-90.46,226.52-165.57,233.66-2.44.23-4.86.35-7.27.35Z"/>
      <path class="cls-1" d="m1288.3,601.2c-52.02,0-91.58-54.59-137.06-117.37-57.34-79.13-122.33-168.82-231.86-180.08-57.01-5.86-93.09,12.73-131.3,32.4-33.72,17.37-68.43,35.23-118.95,35.24-8.73,0-17.92-.53-27.67-1.69-20.28-2.42-38.94-7-57.02-14.01-16.13-6.25-31.45-14.31-46.83-24.63-28.55-19.17-53.09-43.57-76.83-67.17-37.78-37.56-76.85-76.39-134.15-97.13-56.37-20.4-121.58-19.69-193.82,2.11-91.89,27.73-197.95,90.23-315.24,185.76l-1.49-1.83c61.56-50.14,120.49-91.55,175.16-123.09,49.64-28.64,97.04-49.87,140.88-63.1,39.06-11.79,76.31-17.53,110.72-17.07,29.72.4,58.18,5.44,84.58,15,57.79,20.91,97.05,59.93,135.01,97.67,49.24,48.95,95.75,95.18,179.3,105.14,65.45,7.8,106.02-13.09,145.26-33.3,18.46-9.51,37.55-19.33,58.77-25.81,23.79-7.26,47.94-9.5,73.85-6.83,49.33,5.07,94.14,26.47,136.99,65.43,37.41,34.01,67.46,75.49,96.53,115.61,47.2,65.15,87.97,121.41,142.38,116.04,33.83-3.34,64.82-29.93,94.75-81.29,26.65-45.74,49.43-105.36,71.46-163.02,41.98-109.89,81.63-213.69,143.43-213.92.07,0,.14,0,.21,0,16.94,0,32,7.61,47.38,23.94,13.62,14.46,25.75,33.91,38.59,54.49,26.44,42.4,56.42,90.45,106.87,101.93,27.3,6.21,57.62,1.04,90.12-15.37,29.38-14.84,61.26-39.22,94.74-72.48,54.56-54.19,115.32-133.91,180.6-236.96l1.99,1.26c-30.06,47.46-59.36,90.29-87.07,127.3-32.68,43.64-64.25,80.67-93.86,110.07-33.66,33.43-65.73,57.96-95.34,72.91-16.08,8.12-31.77,13.59-46.63,16.24-15.64,2.8-30.8,2.57-45.07-.68-23-5.23-43.73-18.21-63.37-39.67-17.23-18.83-31.33-41.44-44.97-63.31-12.78-20.48-24.84-39.83-38.3-54.12-14.9-15.82-29.42-23.2-45.66-23.2-.07,0-.13,0-.2,0-27.33.1-51.93,20.83-77.42,65.23-22.71,39.57-42.68,91.84-63.82,147.17-22.06,57.75-44.87,117.46-71.62,163.37-14.47,24.84-28.78,43.48-43.73,56.98-16.7,15.09-34.47,23.65-52.82,25.47-2.51.25-5,.37-7.45.37Z"/>
    </g>
  </g>
</svg>