<?xml version="1.0" encoding="utf-8"?>
<!DOCTYPE svg PUBLIC "-//W3C//DTD SVG 1.1//EN" "http://www.w3.org/Graphics/SVG/1.1/DTD/svg11.dtd">
<svg version="1.1" id="Layer_1" xmlns="http://www.w3.org/2000/svg" xmlns:xlink="http://www.w3.org/1999/xlink" x="0px" y="0px"
width="1147px" height="1147px" viewBox="0 0 1147 1147" enable-background="new 0 0 1147 1147" xml:space="preserve">
<rect x="0" y="0" width="1147" height="1147" fill="rgb(255,255,255)" /><g transform="translate(62,62)"><g transform="translate(279,0) scale(0.062,0.062)"><g transform="" style="fill: rgb(30, 251, 208);">
<path d="M500,250c0,58.266,0,250,0,250s-170.194,0-250-0.012c-62.324,0.012-250,0-250,0s0-174.241,0-249.994
	C0.006,111.931,111.929,0,249.994,0C388.064,0,500,111.93,500,250z"/>
</g></g><g transform="translate(372,0) scale(0.062,0.062)"><g transform="" style="fill: rgb(30, 251, 208);">
<path d="M250,0c138.077,0,250,111.93,250,250c0,138.077-111.923,250-250,250C111.93,500,0,388.077,0,250C0,111.93,111.93,0,250,0z"
	/>
</g></g><g transform="translate(434,0) scale(0.062,0.062)"><g transform="" style="fill: rgb(30, 251, 208);">
<path d="M500,250c0,58.266,0,250,0,250s-170.194,0-250-0.012c-62.324,0.012-250,0-250,0s0-174.241,0-249.994
	C0.006,111.931,111.929,0,249.994,0C388.064,0,500,111.93,500,250z"/>
</g></g><g transform="translate(558,0) scale(0.062,0.062)"><g transform="" style="fill: rgb(30, 251, 208);">
<path d="M250,0c138.077,0,250,111.93,250,250c0,138.077-111.923,250-250,250C111.93,500,0,388.077,0,250C0,111.93,111.93,0,250,0z"
	/>
</g></g><g transform="translate(620,0) scale(0.062,0.062)"><g transform="" style="fill: rgb(30, 251, 208);">
<g>
	<path d="M0,500h500V0C223.861,0.001,0,223.854,0,500z"/>
</g>
</g></g><g transform="translate(651,0) scale(0.062,0.062)"><g transform="" style="fill: rgb(30, 251, 208);">
<g>
	<path d="M0,0v500h500C500,223.853,276.142,0,0,0z"/>
</g>
</g></g><g transform="translate(248,31) scale(0.062,0.062)"><g transform="" style="fill: rgb(30, 251, 208);">
<g>
	<path d="M0,500h500V0C223.861,0.001,0,223.854,0,500z"/>
</g>
</g></g><g transform="translate(279,31) scale(0.31,0.31)"><g transform="" style="fill: rgb(30, 251, 208);">
<rect width="100" height="100"/>
</g></g><g transform="translate(403,31) scale(0.062,0.062)"><g transform="" style="fill: rgb(30, 251, 208);">
<g>
	<path d="M0,500h500V0C223.861,0.001,0,223.854,0,500z"/>
</g>
</g></g><g transform="translate(434,31) scale(0.062,0.062)"><g transform="" style="fill: rgb(30, 251, 208);">
<g>
	<path d="M500,0H0v500C276.142,500,500,276.142,500,0z"/>
</g>
</g></g><g transform="translate(496,31) scale(0.062,0.062)"><g transform="" style="fill: rgb(30, 251, 208);">
<path d="M250,0c58.27,0,250,0,250,0s0,170.182,0,250c0,62.305,0,250,0,250s-174.219,0-250,0
	C111.881,500,0,388.021,0,250C0,111.963,111.881,0,250,0z"/>
</g></g><g transform="translate(527,31) scale(0.062,0.062)"><g transform="" style="fill: rgb(30, 251, 208);">
<g>
	<path d="M0,0v500h500C500,223.853,276.142,0,0,0z"/>
</g>
</g></g><g transform="translate(620,31) scale(0.062,0.062)"><g transform="" style="fill: rgb(30, 251, 208);">
<g>
	<path d="M500,500V0H0C0.001,276.142,223.853,500,500,500z"/>
</g>
</g></g><g transform="translate(651,31) scale(0.31,0.31)"><g transform="" style="fill: rgb(30, 251, 208);">
<rect width="100" height="100"/>
</g></g><g transform="translate(248,62) scale(0.31,0.31)"><g transform="" style="fill: rgb(30, 251, 208);">
<rect width="100" height="100"/>
</g></g><g transform="translate(279,62) scale(0.31,0.31)"><g transform="" style="fill: rgb(30, 251, 208);">
<rect width="100" height="100"/>
</g></g><g transform="translate(403,62) scale(0.062,0.062)"><g transform="" style="fill: rgb(30, 251, 208);">
<path d="M0,250C0,191.729,0,0,0,0s170.201,0,250,0c62.324,0,250,0,250,0s0,174.261,0,250c0,138.064-111.936,250-250,250
	C111.929,500,0,388.064,0,250z"/>
</g></g><g transform="translate(527,62) scale(0.062,0.062)"><g transform="" style="fill: rgb(30, 251, 208);">
<g>
	<path d="M500,500V0H0C0.001,276.142,223.853,500,500,500z"/>
</g>
</g></g><g transform="translate(558,62) scale(0.062,0.062)"><g transform="" style="fill: rgb(30, 251, 208);">
<path d="M250,500c-58.271,0-250,0-250,0s0-170.207,0-250C0,187.676,0,0,0,0s174.261,0,250,0c138.064,0,250,111.929,250,250
	C500,388.064,388.064,500,250,500z"/>
</g></g><g transform="translate(651,62) scale(0.31,0.31)"><g transform="" style="fill: rgb(30, 251, 208);">
<rect width="100" height="100"/>
</g></g><g transform="translate(248,93) scale(0.062,0.062)"><g transform="" style="fill: rgb(30, 251, 208);">
<g>
	<path d="M500,500V0H0C0.001,276.142,223.853,500,500,500z"/>
</g>
</g></g><g transform="translate(279,93) scale(0.31,0.31)"><g transform="" style="fill: rgb(30, 251, 208);">
<rect width="100" height="100"/>
</g></g><g transform="translate(310,93) scale(0.062,0.062)"><g transform="" style="fill: rgb(30, 251, 208);">
<path d="M250,500c-58.271,0-250,0-250,0s0-170.207,0-250C0,187.676,0,0,0,0s174.261,0,250,0c138.064,0,250,111.929,250,250
	C500,388.064,388.064,500,250,500z"/>
</g></g><g transform="translate(589,93) scale(0.062,0.062)"><g transform="" style="fill: rgb(30, 251, 208);">
<path d="M250,0c138.077,0,250,111.93,250,250c0,138.077-111.923,250-250,250C111.93,500,0,388.077,0,250C0,111.93,111.93,0,250,0z"
	/>
</g></g><g transform="translate(651,93) scale(0.31,0.31)"><g transform="" style="fill: rgb(30, 251, 208);">
<rect width="100" height="100"/>
</g></g><g transform="translate(682,93) scale(0.062,0.062)"><g transform="" style="fill: rgb(30, 251, 208);">
<g>
	<path d="M0,0v500h500C500,223.853,276.142,0,0,0z"/>
</g>
</g></g><g transform="translate(341,124) scale(0.062,0.062)"><g transform="" style="fill: rgb(30, 251, 208);">
<path d="M250,0c138.077,0,250,111.93,250,250c0,138.077-111.923,250-250,250C111.93,500,0,388.077,0,250C0,111.93,111.93,0,250,0z"
	/>
</g></g><g transform="translate(403,124) scale(0.062,0.062)"><g transform="" style="fill: rgb(30, 251, 208);">
<path d="M500,250c0,58.266,0,250,0,250s-170.194,0-250-0.012c-62.324,0.012-250,0-250,0s0-174.241,0-249.994
	C0.006,111.931,111.929,0,249.994,0C388.064,0,500,111.93,500,250z"/>
</g></g><g transform="translate(465,124) scale(0.062,0.062)"><g transform="" style="fill: rgb(30, 251, 208);">
<path d="M250,0c138.077,0,250,111.93,250,250c0,138.077-111.923,250-250,250C111.93,500,0,388.077,0,250C0,111.93,111.93,0,250,0z"
	/>
</g></g><g transform="translate(527,124) scale(0.062,0.062)"><g transform="" style="fill: rgb(30, 251, 208);">
<g>
	<path d="M0,500h500V0C223.861,0.001,0,223.854,0,500z"/>
</g>
</g></g><g transform="translate(558,124) scale(0.062,0.062)"><g transform="" style="fill: rgb(30, 251, 208);">
<path d="M250,500c-58.271,0-250,0-250,0s0-170.207,0-250C0,187.676,0,0,0,0s174.261,0,250,0c138.064,0,250,111.929,250,250
	C500,388.064,388.064,500,250,500z"/>
</g></g><g transform="translate(651,124) scale(0.31,0.31)"><g transform="" style="fill: rgb(30, 251, 208);">
<rect width="100" height="100"/>
</g></g><g transform="translate(682,124) scale(0.31,0.31)"><g transform="" style="fill: rgb(30, 251, 208);">
<rect width="100" height="100"/>
</g></g><g transform="translate(713,124) scale(0.31,0.31)"><g transform="" style="fill: rgb(30, 251, 208);">
<rect width="100" height="100"/>
</g></g><g transform="translate(744,124) scale(0.062,0.062)"><g transform="" style="fill: rgb(30, 251, 208);">
<g>
	<path d="M0,0v500h500C500,223.853,276.142,0,0,0z"/>
</g>
</g></g><g transform="translate(279,155) scale(0.062,0.062)"><g transform="" style="fill: rgb(30, 251, 208);">
<path d="M250,0c138.077,0,250,111.93,250,250c0,138.077-111.923,250-250,250C111.93,500,0,388.077,0,250C0,111.93,111.93,0,250,0z"
	/>
</g></g><g transform="translate(403,155) scale(0.062,0.062)"><g transform="" style="fill: rgb(30, 251, 208);">
<path d="M0,250C0,191.729,0,0,0,0s170.201,0,250,0c62.324,0,250,0,250,0s0,174.261,0,250c0,138.064-111.936,250-250,250
	C111.929,500,0,388.064,0,250z"/>
</g></g><g transform="translate(496,155) scale(0.062,0.062)"><g transform="" style="fill: rgb(30, 251, 208);">
<g>
	<path d="M0,500h500V0C223.861,0.001,0,223.854,0,500z"/>
</g>
</g></g><g transform="translate(527,155) scale(0.062,0.062)"><g transform="" style="fill: rgb(30, 251, 208);">
<g>
	<path d="M500,0H0v500C276.142,500,500,276.142,500,0z"/>
</g>
</g></g><g transform="translate(620,155) scale(0.062,0.062)"><g transform="" style="fill: rgb(30, 251, 208);">
<g>
	<path d="M0,500h500V0C223.861,0.001,0,223.854,0,500z"/>
</g>
</g></g><g transform="translate(651,155) scale(0.062,0.062)"><g transform="" style="fill: rgb(30, 251, 208);">
<g>
	<path d="M500,0H0v500C276.142,500,500,276.142,500,0z"/>
</g>
</g></g><g transform="translate(744,155) scale(0.31,0.31)"><g transform="" style="fill: rgb(30, 251, 208);">
<rect width="100" height="100"/>
</g></g><g transform="translate(248,186) scale(0.062,0.062)"><g transform="" style="fill: rgb(30, 251, 208);">
<path d="M500,250c0,58.266,0,250,0,250s-170.194,0-250-0.012c-62.324,0.012-250,0-250,0s0-174.241,0-249.994
	C0.006,111.931,111.929,0,249.994,0C388.064,0,500,111.93,500,250z"/>
</g></g><g transform="translate(310,186) scale(0.062,0.062)"><g transform="" style="fill: rgb(30, 251, 208);">
<path d="M250,0c138.077,0,250,111.93,250,250c0,138.077-111.923,250-250,250C111.93,500,0,388.077,0,250C0,111.93,111.93,0,250,0z"
	/>
</g></g><g transform="translate(372,186) scale(0.062,0.062)"><g transform="" style="fill: rgb(30, 251, 208);">
<path d="M500,250c0,58.266,0,250,0,250s-170.194,0-250-0.012c-62.324,0.012-250,0-250,0s0-174.241,0-249.994
	C0.006,111.931,111.929,0,249.994,0C388.064,0,500,111.93,500,250z"/>
</g></g><g transform="translate(434,186) scale(0.062,0.062)"><g transform="" style="fill: rgb(30, 251, 208);">
<path d="M500,250c0,58.266,0,250,0,250s-170.194,0-250-0.012c-62.324,0.012-250,0-250,0s0-174.241,0-249.994
	C0.006,111.931,111.929,0,249.994,0C388.064,0,500,111.93,500,250z"/>
</g></g><g transform="translate(496,186) scale(0.062,0.062)"><g transform="" style="fill: rgb(30, 251, 208);">
<path d="M0,250C0,191.729,0,0,0,0s170.201,0,250,0c62.324,0,250,0,250,0s0,174.261,0,250c0,138.064-111.936,250-250,250
	C111.929,500,0,388.064,0,250z"/>
</g></g><g transform="translate(558,186) scale(0.062,0.062)"><g transform="" style="fill: rgb(30, 251, 208);">
<path d="M500,250c0,58.266,0,250,0,250s-170.194,0-250-0.012c-62.324,0.012-250,0-250,0s0-174.241,0-249.994
	C0.006,111.931,111.929,0,249.994,0C388.064,0,500,111.93,500,250z"/>
</g></g><g transform="translate(620,186) scale(0.062,0.062)"><g transform="" style="fill: rgb(30, 251, 208);">
<path d="M0,250C0,191.729,0,0,0,0s170.201,0,250,0c62.324,0,250,0,250,0s0,174.261,0,250c0,138.064-111.936,250-250,250
	C111.929,500,0,388.064,0,250z"/>
</g></g><g transform="translate(682,186) scale(0.062,0.062)"><g transform="" style="fill: rgb(30, 251, 208);">
<path d="M500,250c0,58.266,0,250,0,250s-170.194,0-250-0.012c-62.324,0.012-250,0-250,0s0-174.241,0-249.994
	C0.006,111.931,111.929,0,249.994,0C388.064,0,500,111.93,500,250z"/>
</g></g><g transform="translate(744,186) scale(0.31,0.31)"><g transform="" style="fill: rgb(30, 251, 208);">
<rect width="100" height="100"/>
</g></g><g transform="translate(248,217) scale(0.31,0.31)"><g transform="" style="fill: rgb(30, 251, 208);">
<rect width="100" height="100"/>
</g></g><g transform="translate(279,217) scale(0.062,0.062)"><g transform="" style="fill: rgb(30, 251, 208);">
<path d="M250,500c-58.271,0-250,0-250,0s0-170.207,0-250C0,187.676,0,0,0,0s174.261,0,250,0c138.064,0,250,111.929,250,250
	C500,388.064,388.064,500,250,500z"/>
</g></g><g transform="translate(372,217) scale(0.062,0.062)"><g transform="" style="fill: rgb(30, 251, 208);">
<path d="M0,250C0,191.729,0,0,0,0s170.201,0,250,0c62.324,0,250,0,250,0s0,174.261,0,250c0,138.064-111.936,250-250,250
	C111.929,500,0,388.064,0,250z"/>
</g></g><g transform="translate(434,217) scale(0.31,0.31)"><g transform="" style="fill: rgb(30, 251, 208);">
<rect width="100" height="100"/>
</g></g><g transform="translate(558,217) scale(0.062,0.062)"><g transform="" style="fill: rgb(30, 251, 208);">
<path d="M0,250C0,191.729,0,0,0,0s170.201,0,250,0c62.324,0,250,0,250,0s0,174.261,0,250c0,138.064-111.936,250-250,250
	C111.929,500,0,388.064,0,250z"/>
</g></g><g transform="translate(682,217) scale(0.062,0.062)"><g transform="" style="fill: rgb(30, 251, 208);">
<path d="M0,250C0,191.729,0,0,0,0s170.201,0,250,0c62.324,0,250,0,250,0s0,174.261,0,250c0,138.064-111.936,250-250,250
	C111.929,500,0,388.064,0,250z"/>
</g></g><g transform="translate(744,217) scale(0.31,0.31)"><g transform="" style="fill: rgb(30, 251, 208);">
<rect width="100" height="100"/>
</g></g><g transform="translate(0,248) scale(0.062,0.062)"><g transform="" style="fill: rgb(30, 251, 208);">
<path d="M500,250c0,58.266,0,250,0,250s-170.194,0-250-0.012c-62.324,0.012-250,0-250,0s0-174.241,0-249.994
	C0.006,111.931,111.929,0,249.994,0C388.064,0,500,111.93,500,250z"/>
</g></g><g transform="translate(186,248) scale(0.062,0.062)"><g transform="" style="fill: rgb(30, 251, 208);">
<path d="M250,0c138.077,0,250,111.93,250,250c0,138.077-111.923,250-250,250C111.93,500,0,388.077,0,250C0,111.93,111.93,0,250,0z"
	/>
</g></g><g transform="translate(248,248) scale(0.062,0.062)"><g transform="" style="fill: rgb(30, 251, 208);">
<path d="M0,250C0,191.729,0,0,0,0s170.201,0,250,0c62.324,0,250,0,250,0s0,174.261,0,250c0,138.064-111.936,250-250,250
	C111.929,500,0,388.064,0,250z"/>
</g></g><g transform="translate(403,248) scale(0.062,0.062)"><g transform="" style="fill: rgb(30, 251, 208);">
<path d="M250,0c58.27,0,250,0,250,0s0,170.182,0,250c0,62.305,0,250,0,250s-174.219,0-250,0
	C111.881,500,0,388.021,0,250C0,111.963,111.881,0,250,0z"/>
</g></g><g transform="translate(434,248) scale(0.31,0.31)"><g transform="" style="fill: rgb(30, 251, 208);">
<rect width="100" height="100"/>
</g></g><g transform="translate(465,248) scale(0.062,0.062)"><g transform="" style="fill: rgb(30, 251, 208);">
<g>
	<path d="M0,0v500h500C500,223.853,276.142,0,0,0z"/>
</g>
</g></g><g transform="translate(527,248) scale(0.062,0.062)"><g transform="" style="fill: rgb(30, 251, 208);">
<path d="M250,0c138.077,0,250,111.93,250,250c0,138.077-111.923,250-250,250C111.93,500,0,388.077,0,250C0,111.93,111.93,0,250,0z"
	/>
</g></g><g transform="translate(620,248) scale(0.062,0.062)"><g transform="" style="fill: rgb(30, 251, 208);">
<path d="M250,0c138.077,0,250,111.93,250,250c0,138.077-111.923,250-250,250C111.93,500,0,388.077,0,250C0,111.93,111.93,0,250,0z"
	/>
</g></g><g transform="translate(744,248) scale(0.062,0.062)"><g transform="" style="fill: rgb(30, 251, 208);">
<g>
	<path d="M500,500V0H0C0.001,276.142,223.853,500,500,500z"/>
</g>
</g></g><g transform="translate(775,248) scale(0.31,0.31)"><g transform="" style="fill: rgb(30, 251, 208);">
<rect width="100" height="100"/>
</g></g><g transform="translate(806,248) scale(0.062,0.062)"><g transform="" style="fill: rgb(30, 251, 208);">
<path d="M250,500c-58.271,0-250,0-250,0s0-170.207,0-250C0,187.676,0,0,0,0s174.261,0,250,0c138.064,0,250,111.929,250,250
	C500,388.064,388.064,500,250,500z"/>
</g></g><g transform="translate(899,248) scale(0.062,0.062)"><g transform="" style="fill: rgb(30, 251, 208);">
<g>
	<path d="M0,500h500V0C223.861,0.001,0,223.854,0,500z"/>
</g>
</g></g><g transform="translate(930,248) scale(0.31,0.31)"><g transform="" style="fill: rgb(30, 251, 208);">
<rect width="100" height="100"/>
</g></g><g transform="translate(961,248) scale(0.062,0.062)"><g transform="" style="fill: rgb(30, 251, 208);">
<path d="M250,500c-58.271,0-250,0-250,0s0-170.207,0-250C0,187.676,0,0,0,0s174.261,0,250,0c138.064,0,250,111.929,250,250
	C500,388.064,388.064,500,250,500z"/>
</g></g><g transform="translate(0,279) scale(0.062,0.062)"><g transform="" style="fill: rgb(30, 251, 208);">
<path d="M0,250C0,191.729,0,0,0,0s170.201,0,250,0c62.324,0,250,0,250,0s0,174.261,0,250c0,138.064-111.936,250-250,250
	C111.929,500,0,388.064,0,250z"/>
</g></g><g transform="translate(93,279) scale(0.062,0.062)"><g transform="" style="fill: rgb(30, 251, 208);">
<path d="M250,0c138.077,0,250,111.93,250,250c0,138.077-111.923,250-250,250C111.93,500,0,388.077,0,250C0,111.93,111.93,0,250,0z"
	/>
</g></g><g transform="translate(217,279) scale(0.062,0.062)"><g transform="" style="fill: rgb(30, 251, 208);">
<path d="M250,0c138.077,0,250,111.93,250,250c0,138.077-111.923,250-250,250C111.93,500,0,388.077,0,250C0,111.93,111.93,0,250,0z"
	/>
</g></g><g transform="translate(310,279) scale(0.062,0.062)"><g transform="" style="fill: rgb(30, 251, 208);">
<path d="M250,0c58.27,0,250,0,250,0s0,170.182,0,250c0,62.305,0,250,0,250s-174.219,0-250,0
	C111.881,500,0,388.021,0,250C0,111.963,111.881,0,250,0z"/>
</g></g><g transform="translate(341,279) scale(0.062,0.062)"><g transform="" style="fill: rgb(30, 251, 208);">
<g>
	<path d="M0,0v500h500C500,223.853,276.142,0,0,0z"/>
</g>
</g></g><g transform="translate(434,279) scale(0.062,0.062)"><g transform="" style="fill: rgb(30, 251, 208);">
<g>
	<path d="M500,500V0H0C0.001,276.142,223.853,500,500,500z"/>
</g>
</g></g><g transform="translate(465,279) scale(0.31,0.31)"><g transform="" style="fill: rgb(30, 251, 208);">
<rect width="100" height="100"/>
</g></g><g transform="translate(558,279) scale(0.062,0.062)"><g transform="" style="fill: rgb(30, 251, 208);">
<g>
	<path d="M0,500h500V0C223.861,0.001,0,223.854,0,500z"/>
</g>
</g></g><g transform="translate(589,279) scale(0.062,0.062)"><g transform="" style="fill: rgb(30, 251, 208);">
<path d="M250,500c-58.271,0-250,0-250,0s0-170.207,0-250C0,187.676,0,0,0,0s174.261,0,250,0c138.064,0,250,111.929,250,250
	C500,388.064,388.064,500,250,500z"/>
</g></g><g transform="translate(682,279) scale(0.062,0.062)"><g transform="" style="fill: rgb(30, 251, 208);">
<g>
	<path d="M0,500h500V0C223.861,0.001,0,223.854,0,500z"/>
</g>
</g></g><g transform="translate(713,279) scale(0.062,0.062)"><g transform="" style="fill: rgb(30, 251, 208);">
<path d="M250,500c-58.271,0-250,0-250,0s0-170.207,0-250C0,187.676,0,0,0,0s174.261,0,250,0c138.064,0,250,111.929,250,250
	C500,388.064,388.064,500,250,500z"/>
</g></g><g transform="translate(868,279) scale(0.062,0.062)"><g transform="" style="fill: rgb(30, 251, 208);">
<g>
	<path d="M0,500h500V0C223.861,0.001,0,223.854,0,500z"/>
</g>
</g></g><g transform="translate(899,279) scale(0.31,0.31)"><g transform="" style="fill: rgb(30, 251, 208);">
<rect width="100" height="100"/>
</g></g><g transform="translate(930,279) scale(0.31,0.31)"><g transform="" style="fill: rgb(30, 251, 208);">
<rect width="100" height="100"/>
</g></g><g transform="translate(62,310) scale(0.062,0.062)"><g transform="" style="fill: rgb(30, 251, 208);">
<path d="M500,250c0,58.266,0,250,0,250s-170.194,0-250-0.012c-62.324,0.012-250,0-250,0s0-174.241,0-249.994
	C0.006,111.931,111.929,0,249.994,0C388.064,0,500,111.93,500,250z"/>
</g></g><g transform="translate(124,310) scale(0.062,0.062)"><g transform="" style="fill: rgb(30, 251, 208);">
<g>
	<path d="M0,500h500V0C223.861,0.001,0,223.854,0,500z"/>
</g>
</g></g><g transform="translate(155,310) scale(0.31,0.31)"><g transform="" style="fill: rgb(30, 251, 208);">
<rect width="100" height="100"/>
</g></g><g transform="translate(186,310) scale(0.062,0.062)"><g transform="" style="fill: rgb(30, 251, 208);">
<path d="M250,500c-58.271,0-250,0-250,0s0-170.207,0-250C0,187.676,0,0,0,0s174.261,0,250,0c138.064,0,250,111.929,250,250
	C500,388.064,388.064,500,250,500z"/>
</g></g><g transform="translate(279,310) scale(0.062,0.062)"><g transform="" style="fill: rgb(30, 251, 208);">
<path d="M500,250c0,58.266,0,250,0,250s-170.194,0-250-0.012c-62.324,0.012-250,0-250,0s0-174.241,0-249.994
	C0.006,111.931,111.929,0,249.994,0C388.064,0,500,111.93,500,250z"/>
</g></g><g transform="translate(341,310) scale(0.062,0.062)"><g transform="" style="fill: rgb(30, 251, 208);">
<g>
	<path d="M500,500V0H0C0.001,276.142,223.853,500,500,500z"/>
</g>
</g></g><g transform="translate(372,310) scale(0.062,0.062)"><g transform="" style="fill: rgb(30, 251, 208);">
<g>
	<path d="M0,0v500h500C500,223.853,276.142,0,0,0z"/>
</g>
</g></g><g transform="translate(465,310) scale(0.062,0.062)"><g transform="" style="fill: rgb(30, 251, 208);">
<g>
	<path d="M500,500V0H0C0.001,276.142,223.853,500,500,500z"/>
</g>
</g></g><g transform="translate(496,310) scale(0.062,0.062)"><g transform="" style="fill: rgb(30, 251, 208);">
<path d="M250,500c-58.271,0-250,0-250,0s0-170.207,0-250C0,187.676,0,0,0,0s174.261,0,250,0c138.064,0,250,111.929,250,250
	C500,388.064,388.064,500,250,500z"/>
</g></g><g transform="translate(558,310) scale(0.062,0.062)"><g transform="" style="fill: rgb(30, 251, 208);">
<path d="M0,250C0,191.729,0,0,0,0s170.201,0,250,0c62.324,0,250,0,250,0s0,174.261,0,250c0,138.064-111.936,250-250,250
	C111.929,500,0,388.064,0,250z"/>
</g></g><g transform="translate(620,310) scale(0.062,0.062)"><g transform="" style="fill: rgb(30, 251, 208);">
<path d="M250,0c138.077,0,250,111.93,250,250c0,138.077-111.923,250-250,250C111.93,500,0,388.077,0,250C0,111.93,111.93,0,250,0z"
	/>
</g></g><g transform="translate(682,310) scale(0.062,0.062)"><g transform="" style="fill: rgb(30, 251, 208);">
<path d="M0,250C0,191.729,0,0,0,0s170.201,0,250,0c62.324,0,250,0,250,0s0,174.261,0,250c0,138.064-111.936,250-250,250
	C111.929,500,0,388.064,0,250z"/>
</g></g><g transform="translate(744,310) scale(0.062,0.062)"><g transform="" style="fill: rgb(30, 251, 208);">
<path d="M250,0c138.077,0,250,111.93,250,250c0,138.077-111.923,250-250,250C111.93,500,0,388.077,0,250C0,111.93,111.93,0,250,0z"
	/>
</g></g><g transform="translate(806,310) scale(0.062,0.062)"><g transform="" style="fill: rgb(30, 251, 208);">
<path d="M250,0c138.077,0,250,111.93,250,250c0,138.077-111.923,250-250,250C111.93,500,0,388.077,0,250C0,111.93,111.93,0,250,0z"
	/>
</g></g><g transform="translate(868,310) scale(0.31,0.31)"><g transform="" style="fill: rgb(30, 251, 208);">
<rect width="100" height="100"/>
</g></g><g transform="translate(930,310) scale(0.31,0.31)"><g transform="" style="fill: rgb(30, 251, 208);">
<rect width="100" height="100"/>
</g></g><g transform="translate(961,310) scale(0.062,0.062)"><g transform="" style="fill: rgb(30, 251, 208);">
<path d="M250,500c-58.271,0-250,0-250,0s0-170.207,0-250C0,187.676,0,0,0,0s174.261,0,250,0c138.064,0,250,111.929,250,250
	C500,388.064,388.064,500,250,500z"/>
</g></g><g transform="translate(0,341) scale(0.062,0.062)"><g transform="" style="fill: rgb(30, 251, 208);">
<path d="M250,0c138.077,0,250,111.93,250,250c0,138.077-111.923,250-250,250C111.93,500,0,388.077,0,250C0,111.93,111.93,0,250,0z"
	/>
</g></g><g transform="translate(62,341) scale(0.31,0.31)"><g transform="" style="fill: rgb(30, 251, 208);">
<rect width="100" height="100"/>
</g></g><g transform="translate(124,341) scale(0.062,0.062)"><g transform="" style="fill: rgb(30, 251, 208);">
<g>
	<path d="M500,500V0H0C0.001,276.142,223.853,500,500,500z"/>
</g>
</g></g><g transform="translate(155,341) scale(0.31,0.31)"><g transform="" style="fill: rgb(30, 251, 208);">
<rect width="100" height="100"/>
</g></g><g transform="translate(217,341) scale(0.062,0.062)"><g transform="" style="fill: rgb(30, 251, 208);">
<path d="M250,0c138.077,0,250,111.93,250,250c0,138.077-111.923,250-250,250C111.93,500,0,388.077,0,250C0,111.93,111.93,0,250,0z"
	/>
</g></g><g transform="translate(279,341) scale(0.31,0.31)"><g transform="" style="fill: rgb(30, 251, 208);">
<rect width="100" height="100"/>
</g></g><g transform="translate(372,341) scale(0.31,0.31)"><g transform="" style="fill: rgb(30, 251, 208);">
<rect width="100" height="100"/>
</g></g><g transform="translate(434,341) scale(0.062,0.062)"><g transform="" style="fill: rgb(30, 251, 208);">
<path d="M500,250c0,58.266,0,250,0,250s-170.194,0-250-0.012c-62.324,0.012-250,0-250,0s0-174.241,0-249.994
	C0.006,111.931,111.929,0,249.994,0C388.064,0,500,111.93,500,250z"/>
</g></g><g transform="translate(589,341) scale(0.062,0.062)"><g transform="" style="fill: rgb(30, 251, 208);">
<path d="M250,0c138.077,0,250,111.93,250,250c0,138.077-111.923,250-250,250C111.93,500,0,388.077,0,250C0,111.93,111.93,0,250,0z"
	/>
</g></g><g transform="translate(775,341) scale(0.062,0.062)"><g transform="" style="fill: rgb(30, 251, 208);">
<path d="M250,0c138.077,0,250,111.93,250,250c0,138.077-111.923,250-250,250C111.93,500,0,388.077,0,250C0,111.93,111.93,0,250,0z"
	/>
</g></g><g transform="translate(837,341) scale(0.062,0.062)"><g transform="" style="fill: rgb(30, 251, 208);">
<g>
	<path d="M0,500h500V0C223.861,0.001,0,223.854,0,500z"/>
</g>
</g></g><g transform="translate(868,341) scale(0.31,0.31)"><g transform="" style="fill: rgb(30, 251, 208);">
<rect width="100" height="100"/>
</g></g><g transform="translate(899,341) scale(0.31,0.31)"><g transform="" style="fill: rgb(30, 251, 208);">
<rect width="100" height="100"/>
</g></g><g transform="translate(930,341) scale(0.062,0.062)"><g transform="" style="fill: rgb(30, 251, 208);">
<g>
	<path d="M500,0H0v500C276.142,500,500,276.142,500,0z"/>
</g>
</g></g><g transform="translate(992,341) scale(0.062,0.062)"><g transform="" style="fill: rgb(30, 251, 208);">
<path d="M250,0c138.077,0,250,111.93,250,250c0,138.077-111.923,250-250,250C111.93,500,0,388.077,0,250C0,111.93,111.93,0,250,0z"
	/>
</g></g><g transform="translate(62,372) scale(0.062,0.062)"><g transform="" style="fill: rgb(30, 251, 208);">
<path d="M0,250C0,191.729,0,0,0,0s170.201,0,250,0c62.324,0,250,0,250,0s0,174.261,0,250c0,138.064-111.936,250-250,250
	C111.929,500,0,388.064,0,250z"/>
</g></g><g transform="translate(155,372) scale(0.062,0.062)"><g transform="" style="fill: rgb(30, 251, 208);">
<g>
	<path d="M500,500V0H0C0.001,276.142,223.853,500,500,500z"/>
</g>
</g></g><g transform="translate(186,372) scale(0.062,0.062)"><g transform="" style="fill: rgb(30, 251, 208);">
<path d="M250,500c-58.271,0-250,0-250,0s0-170.207,0-250C0,187.676,0,0,0,0s174.261,0,250,0c138.064,0,250,111.929,250,250
	C500,388.064,388.064,500,250,500z"/>
</g></g><g transform="translate(279,372) scale(0.062,0.062)"><g transform="" style="fill: rgb(30, 251, 208);">
<g>
	<path d="M500,500V0H0C0.001,276.142,223.853,500,500,500z"/>
</g>
</g></g><g transform="translate(310,372) scale(0.31,0.31)"><g transform="" style="fill: rgb(30, 251, 208);">
<rect width="100" height="100"/>
</g></g><g transform="translate(341,372) scale(0.31,0.31)"><g transform="" style="fill: rgb(30, 251, 208);">
<rect width="100" height="100"/>
</g></g><g transform="translate(372,372) scale(0.31,0.31)"><g transform="" style="fill: rgb(30, 251, 208);">
<rect width="100" height="100"/>
</g></g><g transform="translate(403,372) scale(0.31,0.31)"><g transform="" style="fill: rgb(30, 251, 208);">
<rect width="100" height="100"/>
</g></g><g transform="translate(434,372) scale(0.31,0.31)"><g transform="" style="fill: rgb(30, 251, 208);">
<rect width="100" height="100"/>
</g></g><g transform="translate(465,372) scale(0.31,0.31)"><g transform="" style="fill: rgb(30, 251, 208);">
<rect width="100" height="100"/>
</g></g><g transform="translate(496,372) scale(0.31,0.31)"><g transform="" style="fill: rgb(30, 251, 208);">
<rect width="100" height="100"/>
</g></g><g transform="translate(527,372) scale(0.31,0.31)"><g transform="" style="fill: rgb(30, 251, 208);">
<rect width="100" height="100"/>
</g></g><g transform="translate(558,372) scale(0.062,0.062)"><g transform="" style="fill: rgb(30, 251, 208);">
<path d="M250,500c-58.271,0-250,0-250,0s0-170.207,0-250C0,187.676,0,0,0,0s174.261,0,250,0c138.064,0,250,111.929,250,250
	C500,388.064,388.064,500,250,500z"/>
</g></g><g transform="translate(620,372) scale(0.062,0.062)"><g transform="" style="fill: rgb(30, 251, 208);">
<g>
	<path d="M0,500h500V0C223.861,0.001,0,223.854,0,500z"/>
</g>
</g></g><g transform="translate(651,372) scale(0.31,0.31)"><g transform="" style="fill: rgb(30, 251, 208);">
<rect width="100" height="100"/>
</g></g><g transform="translate(682,372) scale(0.31,0.31)"><g transform="" style="fill: rgb(30, 251, 208);">
<rect width="100" height="100"/>
</g></g><g transform="translate(713,372) scale(0.062,0.062)"><g transform="" style="fill: rgb(30, 251, 208);">
<g>
	<path d="M0,0v500h500C500,223.853,276.142,0,0,0z"/>
</g>
</g></g><g transform="translate(806,372) scale(0.062,0.062)"><g transform="" style="fill: rgb(30, 251, 208);">
<g>
	<path d="M0,500h500V0C223.861,0.001,0,223.854,0,500z"/>
</g>
</g></g><g transform="translate(837,372) scale(0.31,0.31)"><g transform="" style="fill: rgb(30, 251, 208);">
<rect width="100" height="100"/>
</g></g><g transform="translate(0,403) scale(0.062,0.062)"><g transform="" style="fill: rgb(30, 251, 208);">
<path d="M250,0c138.077,0,250,111.93,250,250c0,138.077-111.923,250-250,250C111.93,500,0,388.077,0,250C0,111.93,111.93,0,250,0z"
	/>
</g></g><g transform="translate(217,403) scale(0.062,0.062)"><g transform="" style="fill: rgb(30, 251, 208);">
<path d="M250,0c58.27,0,250,0,250,0s0,170.182,0,250c0,62.305,0,250,0,250s-174.219,0-250,0
	C111.881,500,0,388.021,0,250C0,111.963,111.881,0,250,0z"/>
</g></g><g transform="translate(248,403) scale(0.062,0.062)"><g transform="" style="fill: rgb(30, 251, 208);">
<g>
	<path d="M0,0v500h500C500,223.853,276.142,0,0,0z"/>
</g>
</g></g><g transform="translate(341,403) scale(0.062,0.062)"><g transform="" style="fill: rgb(30, 251, 208);">
<g>
	<path d="M500,500V0H0C0.001,276.142,223.853,500,500,500z"/>
</g>
</g></g><g transform="translate(372,403) scale(0.31,0.31)"><g transform="" style="fill: rgb(30, 251, 208);">
<rect width="100" height="100"/>
</g></g><g transform="translate(434,403) scale(0.062,0.062)"><g transform="" style="fill: rgb(30, 251, 208);">
<path d="M0,250C0,191.729,0,0,0,0s170.201,0,250,0c62.324,0,250,0,250,0s0,174.261,0,250c0,138.064-111.936,250-250,250
	C111.929,500,0,388.064,0,250z"/>
</g></g><g transform="translate(496,403) scale(0.062,0.062)"><g transform="" style="fill: rgb(30, 251, 208);">
<g>
	<path d="M500,500V0H0C0.001,276.142,223.853,500,500,500z"/>
</g>
</g></g><g transform="translate(527,403) scale(0.062,0.062)"><g transform="" style="fill: rgb(30, 251, 208);">
<g>
	<path d="M500,0H0v500C276.142,500,500,276.142,500,0z"/>
</g>
</g></g><g transform="translate(620,403) scale(0.062,0.062)"><g transform="" style="fill: rgb(30, 251, 208);">
<g>
	<path d="M500,500V0H0C0.001,276.142,223.853,500,500,500z"/>
</g>
</g></g><g transform="translate(651,403) scale(0.062,0.062)"><g transform="" style="fill: rgb(30, 251, 208);">
<g>
	<path d="M500,0H0v500C276.142,500,500,276.142,500,0z"/>
</g>
</g></g><g transform="translate(713,403) scale(0.062,0.062)"><g transform="" style="fill: rgb(30, 251, 208);">
<g>
	<path d="M500,500V0H0C0.001,276.142,223.853,500,500,500z"/>
</g>
</g></g><g transform="translate(744,403) scale(0.062,0.062)"><g transform="" style="fill: rgb(30, 251, 208);">
<g>
	<path d="M0,0v500h500C500,223.853,276.142,0,0,0z"/>
</g>
</g></g><g transform="translate(806,403) scale(0.31,0.31)"><g transform="" style="fill: rgb(30, 251, 208);">
<rect width="100" height="100"/>
</g></g><g transform="translate(837,403) scale(0.31,0.31)"><g transform="" style="fill: rgb(30, 251, 208);">
<rect width="100" height="100"/>
</g></g><g transform="translate(899,403) scale(0.062,0.062)"><g transform="" style="fill: rgb(30, 251, 208);">
<path d="M250,0c58.27,0,250,0,250,0s0,170.182,0,250c0,62.305,0,250,0,250s-174.219,0-250,0
	C111.881,500,0,388.021,0,250C0,111.963,111.881,0,250,0z"/>
</g></g><g transform="translate(930,403) scale(0.31,0.31)"><g transform="" style="fill: rgb(30, 251, 208);">
<rect width="100" height="100"/>
</g></g><g transform="translate(961,403) scale(0.31,0.31)"><g transform="" style="fill: rgb(30, 251, 208);">
<rect width="100" height="100"/>
</g></g><g transform="translate(992,403) scale(0.062,0.062)"><g transform="" style="fill: rgb(30, 251, 208);">
<path d="M250,500c-58.271,0-250,0-250,0s0-170.207,0-250C0,187.676,0,0,0,0s174.261,0,250,0c138.064,0,250,111.929,250,250
	C500,388.064,388.064,500,250,500z"/>
</g></g><g transform="translate(62,434) scale(0.062,0.062)"><g transform="" style="fill: rgb(30, 251, 208);">
<path d="M250,0c58.27,0,250,0,250,0s0,170.182,0,250c0,62.305,0,250,0,250s-174.219,0-250,0
	C111.881,500,0,388.021,0,250C0,111.963,111.881,0,250,0z"/>
</g></g><g transform="translate(93,434) scale(0.31,0.31)"><g transform="" style="fill: rgb(30, 251, 208);">
<rect width="100" height="100"/>
</g></g><g transform="translate(124,434) scale(0.062,0.062)"><g transform="" style="fill: rgb(30, 251, 208);">
<path d="M250,500c-58.271,0-250,0-250,0s0-170.207,0-250C0,187.676,0,0,0,0s174.261,0,250,0c138.064,0,250,111.929,250,250
	C500,388.064,388.064,500,250,500z"/>
</g></g><g transform="translate(186,434) scale(0.062,0.062)"><g transform="" style="fill: rgb(30, 251, 208);">
<path d="M250,0c138.077,0,250,111.93,250,250c0,138.077-111.923,250-250,250C111.93,500,0,388.077,0,250C0,111.93,111.93,0,250,0z"
	/>
</g></g><g transform="translate(248,434) scale(0.062,0.062)"><g transform="" style="fill: rgb(30, 251, 208);">
<path d="M0,250C0,191.729,0,0,0,0s170.201,0,250,0c62.324,0,250,0,250,0s0,174.261,0,250c0,138.064-111.936,250-250,250
	C111.929,500,0,388.064,0,250z"/>
</g></g><g transform="translate(372,434) scale(0.31,0.31)"><g transform="" style="fill: rgb(30, 251, 208);">
<rect width="100" height="100"/>
</g></g><g transform="translate(403,434) scale(0.062,0.062)"><g transform="" style="fill: rgb(30, 251, 208);">
<g>
	<path d="M0,0v500h500C500,223.853,276.142,0,0,0z"/>
</g>
</g></g><g transform="translate(589,434) scale(0.062,0.062)"><g transform="" style="fill: rgb(30, 251, 208);">
<path d="M500,250c0,58.266,0,250,0,250s-170.194,0-250-0.012c-62.324,0.012-250,0-250,0s0-174.241,0-249.994
	C0.006,111.931,111.929,0,249.994,0C388.064,0,500,111.93,500,250z"/>
</g></g><g transform="translate(682,434) scale(0.062,0.062)"><g transform="" style="fill: rgb(30, 251, 208);">
<path d="M500,250c0,58.266,0,250,0,250s-170.194,0-250-0.012c-62.324,0.012-250,0-250,0s0-174.241,0-249.994
	C0.006,111.931,111.929,0,249.994,0C388.064,0,500,111.93,500,250z"/>
</g></g><g transform="translate(744,434) scale(0.31,0.31)"><g transform="" style="fill: rgb(30, 251, 208);">
<rect width="100" height="100"/>
</g></g><g transform="translate(775,434) scale(0.31,0.31)"><g transform="" style="fill: rgb(30, 251, 208);">
<rect width="100" height="100"/>
</g></g><g transform="translate(806,434) scale(0.31,0.31)"><g transform="" style="fill: rgb(30, 251, 208);">
<rect width="100" height="100"/>
</g></g><g transform="translate(837,434) scale(0.31,0.31)"><g transform="" style="fill: rgb(30, 251, 208);">
<rect width="100" height="100"/>
</g></g><g transform="translate(868,434) scale(0.062,0.062)"><g transform="" style="fill: rgb(30, 251, 208);">
<path d="M250,500c-58.271,0-250,0-250,0s0-170.207,0-250C0,187.676,0,0,0,0s174.261,0,250,0c138.064,0,250,111.929,250,250
	C500,388.064,388.064,500,250,500z"/>
</g></g><g transform="translate(961,434) scale(0.062,0.062)"><g transform="" style="fill: rgb(30, 251, 208);">
<path d="M0,250C0,191.729,0,0,0,0s170.201,0,250,0c62.324,0,250,0,250,0s0,174.261,0,250c0,138.064-111.936,250-250,250
	C111.929,500,0,388.064,0,250z"/>
</g></g><g transform="translate(0,465) scale(0.062,0.062)"><g transform="" style="fill: rgb(30, 251, 208);">
<path d="M250,0c58.27,0,250,0,250,0s0,170.182,0,250c0,62.305,0,250,0,250s-174.219,0-250,0
	C111.881,500,0,388.021,0,250C0,111.963,111.881,0,250,0z"/>
</g></g><g transform="translate(31,465) scale(0.062,0.062)"><g transform="" style="fill: rgb(30, 251, 208);">
<path d="M250,500c-58.271,0-250,0-250,0s0-170.207,0-250C0,187.676,0,0,0,0s174.261,0,250,0c138.064,0,250,111.929,250,250
	C500,388.064,388.064,500,250,500z"/>
</g></g><g transform="translate(93,465) scale(0.062,0.062)"><g transform="" style="fill: rgb(30, 251, 208);">
<path d="M0,250C0,191.729,0,0,0,0s170.201,0,250,0c62.324,0,250,0,250,0s0,174.261,0,250c0,138.064-111.936,250-250,250
	C111.929,500,0,388.064,0,250z"/>
</g></g><g transform="translate(279,465) scale(0.062,0.062)"><g transform="" style="fill: rgb(30, 251, 208);">
<path d="M500,250c0,58.266,0,250,0,250s-170.194,0-250-0.012c-62.324,0.012-250,0-250,0s0-174.241,0-249.994
	C0.006,111.931,111.929,0,249.994,0C388.064,0,500,111.93,500,250z"/>
</g></g><g transform="translate(341,465) scale(0.062,0.062)"><g transform="" style="fill: rgb(30, 251, 208);">
<path d="M250,0c58.27,0,250,0,250,0s0,170.182,0,250c0,62.305,0,250,0,250s-174.219,0-250,0
	C111.881,500,0,388.021,0,250C0,111.963,111.881,0,250,0z"/>
</g></g><g transform="translate(372,465) scale(0.31,0.31)"><g transform="" style="fill: rgb(30, 251, 208);">
<rect width="100" height="100"/>
</g></g><g transform="translate(403,465) scale(0.31,0.31)"><g transform="" style="fill: rgb(30, 251, 208);">
<rect width="100" height="100"/>
</g></g><g transform="translate(465,465) scale(0.062,0.062)"><g transform="" style="fill: rgb(30, 251, 208);">
<path d="M250,0c138.077,0,250,111.93,250,250c0,138.077-111.923,250-250,250C111.93,500,0,388.077,0,250C0,111.93,111.93,0,250,0z"
	/>
</g></g><g transform="translate(589,465) scale(0.31,0.31)"><g transform="" style="fill: rgb(30, 251, 208);">
<rect width="100" height="100"/>
</g></g><g transform="translate(682,465) scale(0.31,0.31)"><g transform="" style="fill: rgb(30, 251, 208);">
<rect width="100" height="100"/>
</g></g><g transform="translate(713,465) scale(0.31,0.31)"><g transform="" style="fill: rgb(30, 251, 208);">
<rect width="100" height="100"/>
</g></g><g transform="translate(744,465) scale(0.31,0.31)"><g transform="" style="fill: rgb(30, 251, 208);">
<rect width="100" height="100"/>
</g></g><g transform="translate(775,465) scale(0.31,0.31)"><g transform="" style="fill: rgb(30, 251, 208);">
<rect width="100" height="100"/>
</g></g><g transform="translate(837,465) scale(0.31,0.31)"><g transform="" style="fill: rgb(30, 251, 208);">
<rect width="100" height="100"/>
</g></g><g transform="translate(930,465) scale(0.062,0.062)"><g transform="" style="fill: rgb(30, 251, 208);">
<path d="M250,0c138.077,0,250,111.93,250,250c0,138.077-111.923,250-250,250C111.93,500,0,388.077,0,250C0,111.93,111.93,0,250,0z"
	/>
</g></g><g transform="translate(992,465) scale(0.062,0.062)"><g transform="" style="fill: rgb(30, 251, 208);">
<path d="M500,250c0,58.266,0,250,0,250s-170.194,0-250-0.012c-62.324,0.012-250,0-250,0s0-174.241,0-249.994
	C0.006,111.931,111.929,0,249.994,0C388.064,0,500,111.93,500,250z"/>
</g></g><g transform="translate(124,496) scale(0.062,0.062)"><g transform="" style="fill: rgb(30, 251, 208);">
<g>
	<path d="M0,500h500V0C223.861,0.001,0,223.854,0,500z"/>
</g>
</g></g><g transform="translate(155,496) scale(0.31,0.31)"><g transform="" style="fill: rgb(30, 251, 208);">
<rect width="100" height="100"/>
</g></g><g transform="translate(186,496) scale(0.062,0.062)"><g transform="" style="fill: rgb(30, 251, 208);">
<path d="M250,500c-58.271,0-250,0-250,0s0-170.207,0-250C0,187.676,0,0,0,0s174.261,0,250,0c138.064,0,250,111.929,250,250
	C500,388.064,388.064,500,250,500z"/>
</g></g><g transform="translate(279,496) scale(0.31,0.31)"><g transform="" style="fill: rgb(30, 251, 208);">
<rect width="100" height="100"/>
</g></g><g transform="translate(310,496) scale(0.062,0.062)"><g transform="" style="fill: rgb(30, 251, 208);">
<path d="M250,500c-58.271,0-250,0-250,0s0-170.207,0-250C0,187.676,0,0,0,0s174.261,0,250,0c138.064,0,250,111.929,250,250
	C500,388.064,388.064,500,250,500z"/>
</g></g><g transform="translate(372,496) scale(0.31,0.31)"><g transform="" style="fill: rgb(30, 251, 208);">
<rect width="100" height="100"/>
</g></g><g transform="translate(403,496) scale(0.31,0.31)"><g transform="" style="fill: rgb(30, 251, 208);">
<rect width="100" height="100"/>
</g></g><g transform="translate(434,496) scale(0.062,0.062)"><g transform="" style="fill: rgb(30, 251, 208);">
<path d="M250,500c-58.271,0-250,0-250,0s0-170.207,0-250C0,187.676,0,0,0,0s174.261,0,250,0c138.064,0,250,111.929,250,250
	C500,388.064,388.064,500,250,500z"/>
</g></g><g transform="translate(527,496) scale(0.062,0.062)"><g transform="" style="fill: rgb(30, 251, 208);">
<path d="M500,250c0,58.266,0,250,0,250s-170.194,0-250-0.012c-62.324,0.012-250,0-250,0s0-174.241,0-249.994
	C0.006,111.931,111.929,0,249.994,0C388.064,0,500,111.93,500,250z"/>
</g></g><g transform="translate(589,496) scale(0.31,0.31)"><g transform="" style="fill: rgb(30, 251, 208);">
<rect width="100" height="100"/>
</g></g><g transform="translate(682,496) scale(0.062,0.062)"><g transform="" style="fill: rgb(30, 251, 208);">
<path d="M0,250C0,191.729,0,0,0,0s170.201,0,250,0c62.324,0,250,0,250,0s0,174.261,0,250c0,138.064-111.936,250-250,250
	C111.929,500,0,388.064,0,250z"/>
</g></g><g transform="translate(744,496) scale(0.062,0.062)"><g transform="" style="fill: rgb(30, 251, 208);">
<g>
	<path d="M500,500V0H0C0.001,276.142,223.853,500,500,500z"/>
</g>
</g></g><g transform="translate(775,496) scale(0.31,0.31)"><g transform="" style="fill: rgb(30, 251, 208);">
<rect width="100" height="100"/>
</g></g><g transform="translate(837,496) scale(0.062,0.062)"><g transform="" style="fill: rgb(30, 251, 208);">
<g>
	<path d="M500,500V0H0C0.001,276.142,223.853,500,500,500z"/>
</g>
</g></g><g transform="translate(868,496) scale(0.062,0.062)"><g transform="" style="fill: rgb(30, 251, 208);">
<path d="M250,500c-58.271,0-250,0-250,0s0-170.207,0-250C0,187.676,0,0,0,0s174.261,0,250,0c138.064,0,250,111.929,250,250
	C500,388.064,388.064,500,250,500z"/>
</g></g><g transform="translate(992,496) scale(0.31,0.31)"><g transform="" style="fill: rgb(30, 251, 208);">
<rect width="100" height="100"/>
</g></g><g transform="translate(0,527) scale(0.062,0.062)"><g transform="" style="fill: rgb(30, 251, 208);">
<path d="M250,0c58.27,0,250,0,250,0s0,170.182,0,250c0,62.305,0,250,0,250s-174.219,0-250,0
	C111.881,500,0,388.021,0,250C0,111.963,111.881,0,250,0z"/>
</g></g><g transform="translate(31,527) scale(0.31,0.31)"><g transform="" style="fill: rgb(30, 251, 208);">
<rect width="100" height="100"/>
</g></g><g transform="translate(62,527) scale(0.31,0.31)"><g transform="" style="fill: rgb(30, 251, 208);">
<rect width="100" height="100"/>
</g></g><g transform="translate(93,527) scale(0.31,0.31)"><g transform="" style="fill: rgb(30, 251, 208);">
<rect width="100" height="100"/>
</g></g><g transform="translate(124,527) scale(0.31,0.31)"><g transform="" style="fill: rgb(30, 251, 208);">
<rect width="100" height="100"/>
</g></g><g transform="translate(155,527) scale(0.31,0.31)"><g transform="" style="fill: rgb(30, 251, 208);">
<rect width="100" height="100"/>
</g></g><g transform="translate(248,527) scale(0.062,0.062)"><g transform="" style="fill: rgb(30, 251, 208);">
<g>
	<path d="M0,500h500V0C223.861,0.001,0,223.854,0,500z"/>
</g>
</g></g><g transform="translate(279,527) scale(0.31,0.31)"><g transform="" style="fill: rgb(30, 251, 208);">
<rect width="100" height="100"/>
</g></g><g transform="translate(372,527) scale(0.31,0.31)"><g transform="" style="fill: rgb(30, 251, 208);">
<rect width="100" height="100"/>
</g></g><g transform="translate(465,527) scale(0.062,0.062)"><g transform="" style="fill: rgb(30, 251, 208);">
<g>
	<path d="M0,500h500V0C223.861,0.001,0,223.854,0,500z"/>
</g>
</g></g><g transform="translate(496,527) scale(0.31,0.31)"><g transform="" style="fill: rgb(30, 251, 208);">
<rect width="100" height="100"/>
</g></g><g transform="translate(527,527) scale(0.31,0.31)"><g transform="" style="fill: rgb(30, 251, 208);">
<rect width="100" height="100"/>
</g></g><g transform="translate(558,527) scale(0.31,0.31)"><g transform="" style="fill: rgb(30, 251, 208);">
<rect width="100" height="100"/>
</g></g><g transform="translate(589,527) scale(0.31,0.31)"><g transform="" style="fill: rgb(30, 251, 208);">
<rect width="100" height="100"/>
</g></g><g transform="translate(620,527) scale(0.31,0.31)"><g transform="" style="fill: rgb(30, 251, 208);">
<rect width="100" height="100"/>
</g></g><g transform="translate(651,527) scale(0.062,0.062)"><g transform="" style="fill: rgb(30, 251, 208);">
<path d="M250,500c-58.271,0-250,0-250,0s0-170.207,0-250C0,187.676,0,0,0,0s174.261,0,250,0c138.064,0,250,111.929,250,250
	C500,388.064,388.064,500,250,500z"/>
</g></g><g transform="translate(713,527) scale(0.062,0.062)"><g transform="" style="fill: rgb(30, 251, 208);">
<path d="M500,250c0,58.266,0,250,0,250s-170.194,0-250-0.012c-62.324,0.012-250,0-250,0s0-174.241,0-249.994
	C0.006,111.931,111.929,0,249.994,0C388.064,0,500,111.93,500,250z"/>
</g></g><g transform="translate(775,527) scale(0.31,0.31)"><g transform="" style="fill: rgb(30, 251, 208);">
<rect width="100" height="100"/>
</g></g><g transform="translate(806,527) scale(0.062,0.062)"><g transform="" style="fill: rgb(30, 251, 208);">
<g>
	<path d="M0,0v500h500C500,223.853,276.142,0,0,0z"/>
</g>
</g></g><g transform="translate(899,527) scale(0.062,0.062)"><g transform="" style="fill: rgb(30, 251, 208);">
<g>
	<path d="M0,500h500V0C223.861,0.001,0,223.854,0,500z"/>
</g>
</g></g><g transform="translate(930,527) scale(0.062,0.062)"><g transform="" style="fill: rgb(30, 251, 208);">
<g>
	<path d="M0,0v500h500C500,223.853,276.142,0,0,0z"/>
</g>
</g></g><g transform="translate(992,527) scale(0.31,0.31)"><g transform="" style="fill: rgb(30, 251, 208);">
<rect width="100" height="100"/>
</g></g><g transform="translate(155,558) scale(0.062,0.062)"><g transform="" style="fill: rgb(30, 251, 208);">
<g>
	<path d="M500,500V0H0C0.001,276.142,223.853,500,500,500z"/>
</g>
</g></g><g transform="translate(186,558) scale(0.31,0.31)"><g transform="" style="fill: rgb(30, 251, 208);">
<rect width="100" height="100"/>
</g></g><g transform="translate(217,558) scale(0.31,0.31)"><g transform="" style="fill: rgb(30, 251, 208);">
<rect width="100" height="100"/>
</g></g><g transform="translate(248,558) scale(0.31,0.31)"><g transform="" style="fill: rgb(30, 251, 208);">
<rect width="100" height="100"/>
</g></g><g transform="translate(279,558) scale(0.062,0.062)"><g transform="" style="fill: rgb(30, 251, 208);">
<g>
	<path d="M500,0H0v500C276.142,500,500,276.142,500,0z"/>
</g>
</g></g><g transform="translate(372,558) scale(0.31,0.31)"><g transform="" style="fill: rgb(30, 251, 208);">
<rect width="100" height="100"/>
</g></g><g transform="translate(403,558) scale(0.062,0.062)"><g transform="" style="fill: rgb(30, 251, 208);">
<g>
	<path d="M0,0v500h500C500,223.853,276.142,0,0,0z"/>
</g>
</g></g><g transform="translate(465,558) scale(0.062,0.062)"><g transform="" style="fill: rgb(30, 251, 208);">
<g>
	<path d="M500,500V0H0C0.001,276.142,223.853,500,500,500z"/>
</g>
</g></g><g transform="translate(496,558) scale(0.31,0.31)"><g transform="" style="fill: rgb(30, 251, 208);">
<rect width="100" height="100"/>
</g></g><g transform="translate(589,558) scale(0.062,0.062)"><g transform="" style="fill: rgb(30, 251, 208);">
<g>
	<path d="M500,500V0H0C0.001,276.142,223.853,500,500,500z"/>
</g>
</g></g><g transform="translate(620,558) scale(0.31,0.31)"><g transform="" style="fill: rgb(30, 251, 208);">
<rect width="100" height="100"/>
</g></g><g transform="translate(713,558) scale(0.062,0.062)"><g transform="" style="fill: rgb(30, 251, 208);">
<path d="M0,250C0,191.729,0,0,0,0s170.201,0,250,0c62.324,0,250,0,250,0s0,174.261,0,250c0,138.064-111.936,250-250,250
	C111.929,500,0,388.064,0,250z"/>
</g></g><g transform="translate(775,558) scale(0.31,0.31)"><g transform="" style="fill: rgb(30, 251, 208);">
<rect width="100" height="100"/>
</g></g><g transform="translate(806,558) scale(0.31,0.31)"><g transform="" style="fill: rgb(30, 251, 208);">
<rect width="100" height="100"/>
</g></g><g transform="translate(837,558) scale(0.062,0.062)"><g transform="" style="fill: rgb(30, 251, 208);">
<path d="M250,500c-58.271,0-250,0-250,0s0-170.207,0-250C0,187.676,0,0,0,0s174.261,0,250,0c138.064,0,250,111.929,250,250
	C500,388.064,388.064,500,250,500z"/>
</g></g><g transform="translate(899,558) scale(0.31,0.31)"><g transform="" style="fill: rgb(30, 251, 208);">
<rect width="100" height="100"/>
</g></g><g transform="translate(930,558) scale(0.31,0.31)"><g transform="" style="fill: rgb(30, 251, 208);">
<rect width="100" height="100"/>
</g></g><g transform="translate(992,558) scale(0.31,0.31)"><g transform="" style="fill: rgb(30, 251, 208);">
<rect width="100" height="100"/>
</g></g><g transform="translate(124,589) scale(0.062,0.062)"><g transform="" style="fill: rgb(30, 251, 208);">
<path d="M500,250c0,58.266,0,250,0,250s-170.194,0-250-0.012c-62.324,0.012-250,0-250,0s0-174.241,0-249.994
	C0.006,111.931,111.929,0,249.994,0C388.064,0,500,111.93,500,250z"/>
</g></g><g transform="translate(217,589) scale(0.31,0.31)"><g transform="" style="fill: rgb(30, 251, 208);">
<rect width="100" height="100"/>
</g></g><g transform="translate(341,589) scale(0.062,0.062)"><g transform="" style="fill: rgb(30, 251, 208);">
<g>
	<path d="M0,500h500V0C223.861,0.001,0,223.854,0,500z"/>
</g>
</g></g><g transform="translate(372,589) scale(0.31,0.31)"><g transform="" style="fill: rgb(30, 251, 208);">
<rect width="100" height="100"/>
</g></g><g transform="translate(403,589) scale(0.31,0.31)"><g transform="" style="fill: rgb(30, 251, 208);">
<rect width="100" height="100"/>
</g></g><g transform="translate(496,589) scale(0.31,0.31)"><g transform="" style="fill: rgb(30, 251, 208);">
<rect width="100" height="100"/>
</g></g><g transform="translate(527,589) scale(0.31,0.31)"><g transform="" style="fill: rgb(30, 251, 208);">
<rect width="100" height="100"/>
</g></g><g transform="translate(558,589) scale(0.062,0.062)"><g transform="" style="fill: rgb(30, 251, 208);">
<path d="M250,500c-58.271,0-250,0-250,0s0-170.207,0-250C0,187.676,0,0,0,0s174.261,0,250,0c138.064,0,250,111.929,250,250
	C500,388.064,388.064,500,250,500z"/>
</g></g><g transform="translate(620,589) scale(0.31,0.31)"><g transform="" style="fill: rgb(30, 251, 208);">
<rect width="100" height="100"/>
</g></g><g transform="translate(651,589) scale(0.062,0.062)"><g transform="" style="fill: rgb(30, 251, 208);">
<g>
	<path d="M0,0v500h500C500,223.853,276.142,0,0,0z"/>
</g>
</g></g><g transform="translate(744,589) scale(0.062,0.062)"><g transform="" style="fill: rgb(30, 251, 208);">
<path d="M250,0c58.27,0,250,0,250,0s0,170.182,0,250c0,62.305,0,250,0,250s-174.219,0-250,0
	C111.881,500,0,388.021,0,250C0,111.963,111.881,0,250,0z"/>
</g></g><g transform="translate(775,589) scale(0.31,0.31)"><g transform="" style="fill: rgb(30, 251, 208);">
<rect width="100" height="100"/>
</g></g><g transform="translate(806,589) scale(0.062,0.062)"><g transform="" style="fill: rgb(30, 251, 208);">
<g>
	<path d="M500,0H0v500C276.142,500,500,276.142,500,0z"/>
</g>
</g></g><g transform="translate(868,589) scale(0.062,0.062)"><g transform="" style="fill: rgb(30, 251, 208);">
<g>
	<path d="M0,500h500V0C223.861,0.001,0,223.854,0,500z"/>
</g>
</g></g><g transform="translate(899,589) scale(0.31,0.31)"><g transform="" style="fill: rgb(30, 251, 208);">
<rect width="100" height="100"/>
</g></g><g transform="translate(930,589) scale(0.31,0.31)"><g transform="" style="fill: rgb(30, 251, 208);">
<rect width="100" height="100"/>
</g></g><g transform="translate(961,589) scale(0.31,0.31)"><g transform="" style="fill: rgb(30, 251, 208);">
<rect width="100" height="100"/>
</g></g><g transform="translate(992,589) scale(0.31,0.31)"><g transform="" style="fill: rgb(30, 251, 208);">
<rect width="100" height="100"/>
</g></g><g transform="translate(31,620) scale(0.062,0.062)"><g transform="" style="fill: rgb(30, 251, 208);">
<path d="M500,250c0,58.266,0,250,0,250s-170.194,0-250-0.012c-62.324,0.012-250,0-250,0s0-174.241,0-249.994
	C0.006,111.931,111.929,0,249.994,0C388.064,0,500,111.93,500,250z"/>
</g></g><g transform="translate(93,620) scale(0.062,0.062)"><g transform="" style="fill: rgb(30, 251, 208);">
<g>
	<path d="M0,500h500V0C223.861,0.001,0,223.854,0,500z"/>
</g>
</g></g><g transform="translate(124,620) scale(0.062,0.062)"><g transform="" style="fill: rgb(30, 251, 208);">
<g>
	<path d="M500,0H0v500C276.142,500,500,276.142,500,0z"/>
</g>
</g></g><g transform="translate(186,620) scale(0.062,0.062)"><g transform="" style="fill: rgb(30, 251, 208);">
<path d="M250,0c58.27,0,250,0,250,0s0,170.182,0,250c0,62.305,0,250,0,250s-174.219,0-250,0
	C111.881,500,0,388.021,0,250C0,111.963,111.881,0,250,0z"/>
</g></g><g transform="translate(217,620) scale(0.31,0.31)"><g transform="" style="fill: rgb(30, 251, 208);">
<rect width="100" height="100"/>
</g></g><g transform="translate(248,620) scale(0.31,0.31)"><g transform="" style="fill: rgb(30, 251, 208);">
<rect width="100" height="100"/>
</g></g><g transform="translate(279,620) scale(0.31,0.31)"><g transform="" style="fill: rgb(30, 251, 208);">
<rect width="100" height="100"/>
</g></g><g transform="translate(310,620) scale(0.31,0.31)"><g transform="" style="fill: rgb(30, 251, 208);">
<rect width="100" height="100"/>
</g></g><g transform="translate(341,620) scale(0.31,0.31)"><g transform="" style="fill: rgb(30, 251, 208);">
<rect width="100" height="100"/>
</g></g><g transform="translate(372,620) scale(0.31,0.31)"><g transform="" style="fill: rgb(30, 251, 208);">
<rect width="100" height="100"/>
</g></g><g transform="translate(403,620) scale(0.31,0.31)"><g transform="" style="fill: rgb(30, 251, 208);">
<rect width="100" height="100"/>
</g></g><g transform="translate(434,620) scale(0.31,0.31)"><g transform="" style="fill: rgb(30, 251, 208);">
<rect width="100" height="100"/>
</g></g><g transform="translate(465,620) scale(0.31,0.31)"><g transform="" style="fill: rgb(30, 251, 208);">
<rect width="100" height="100"/>
</g></g><g transform="translate(496,620) scale(0.31,0.31)"><g transform="" style="fill: rgb(30, 251, 208);">
<rect width="100" height="100"/>
</g></g><g transform="translate(620,620) scale(0.31,0.31)"><g transform="" style="fill: rgb(30, 251, 208);">
<rect width="100" height="100"/>
</g></g><g transform="translate(651,620) scale(0.31,0.31)"><g transform="" style="fill: rgb(30, 251, 208);">
<rect width="100" height="100"/>
</g></g><g transform="translate(682,620) scale(0.31,0.31)"><g transform="" style="fill: rgb(30, 251, 208);">
<rect width="100" height="100"/>
</g></g><g transform="translate(713,620) scale(0.062,0.062)"><g transform="" style="fill: rgb(30, 251, 208);">
<g>
	<path d="M0,0v500h500C500,223.853,276.142,0,0,0z"/>
</g>
</g></g><g transform="translate(775,620) scale(0.062,0.062)"><g transform="" style="fill: rgb(30, 251, 208);">
<path d="M0,250C0,191.729,0,0,0,0s170.201,0,250,0c62.324,0,250,0,250,0s0,174.261,0,250c0,138.064-111.936,250-250,250
	C111.929,500,0,388.064,0,250z"/>
</g></g><g transform="translate(837,620) scale(0.062,0.062)"><g transform="" style="fill: rgb(30, 251, 208);">
<g>
	<path d="M0,500h500V0C223.861,0.001,0,223.854,0,500z"/>
</g>
</g></g><g transform="translate(868,620) scale(0.31,0.31)"><g transform="" style="fill: rgb(30, 251, 208);">
<rect width="100" height="100"/>
</g></g><g transform="translate(899,620) scale(0.31,0.31)"><g transform="" style="fill: rgb(30, 251, 208);">
<rect width="100" height="100"/>
</g></g><g transform="translate(961,620) scale(0.062,0.062)"><g transform="" style="fill: rgb(30, 251, 208);">
<g>
	<path d="M500,500V0H0C0.001,276.142,223.853,500,500,500z"/>
</g>
</g></g><g transform="translate(992,620) scale(0.062,0.062)"><g transform="" style="fill: rgb(30, 251, 208);">
<g>
	<path d="M500,0H0v500C276.142,500,500,276.142,500,0z"/>
</g>
</g></g><g transform="translate(0,651) scale(0.062,0.062)"><g transform="" style="fill: rgb(30, 251, 208);">
<g>
	<path d="M0,500h500V0C223.861,0.001,0,223.854,0,500z"/>
</g>
</g></g><g transform="translate(31,651) scale(0.31,0.31)"><g transform="" style="fill: rgb(30, 251, 208);">
<rect width="100" height="100"/>
</g></g><g transform="translate(62,651) scale(0.31,0.31)"><g transform="" style="fill: rgb(30, 251, 208);">
<rect width="100" height="100"/>
</g></g><g transform="translate(93,651) scale(0.31,0.31)"><g transform="" style="fill: rgb(30, 251, 208);">
<rect width="100" height="100"/>
</g></g><g transform="translate(217,651) scale(0.31,0.31)"><g transform="" style="fill: rgb(30, 251, 208);">
<rect width="100" height="100"/>
</g></g><g transform="translate(341,651) scale(0.062,0.062)"><g transform="" style="fill: rgb(30, 251, 208);">
<path d="M0,250C0,191.729,0,0,0,0s170.201,0,250,0c62.324,0,250,0,250,0s0,174.261,0,250c0,138.064-111.936,250-250,250
	C111.929,500,0,388.064,0,250z"/>
</g></g><g transform="translate(434,651) scale(0.062,0.062)"><g transform="" style="fill: rgb(30, 251, 208);">
<path d="M0,250C0,191.729,0,0,0,0s170.201,0,250,0c62.324,0,250,0,250,0s0,174.261,0,250c0,138.064-111.936,250-250,250
	C111.929,500,0,388.064,0,250z"/>
</g></g><g transform="translate(496,651) scale(0.31,0.31)"><g transform="" style="fill: rgb(30, 251, 208);">
<rect width="100" height="100"/>
</g></g><g transform="translate(558,651) scale(0.062,0.062)"><g transform="" style="fill: rgb(30, 251, 208);">
<path d="M250,0c138.077,0,250,111.93,250,250c0,138.077-111.923,250-250,250C111.93,500,0,388.077,0,250C0,111.93,111.93,0,250,0z"
	/>
</g></g><g transform="translate(620,651) scale(0.31,0.31)"><g transform="" style="fill: rgb(30, 251, 208);">
<rect width="100" height="100"/>
</g></g><g transform="translate(682,651) scale(0.31,0.31)"><g transform="" style="fill: rgb(30, 251, 208);">
<rect width="100" height="100"/>
</g></g><g transform="translate(713,651) scale(0.31,0.31)"><g transform="" style="fill: rgb(30, 251, 208);">
<rect width="100" height="100"/>
</g></g><g transform="translate(744,651) scale(0.062,0.062)"><g transform="" style="fill: rgb(30, 251, 208);">
<path d="M250,500c-58.271,0-250,0-250,0s0-170.207,0-250C0,187.676,0,0,0,0s174.261,0,250,0c138.064,0,250,111.929,250,250
	C500,388.064,388.064,500,250,500z"/>
</g></g><g transform="translate(837,651) scale(0.062,0.062)"><g transform="" style="fill: rgb(30, 251, 208);">
<g>
	<path d="M500,500V0H0C0.001,276.142,223.853,500,500,500z"/>
</g>
</g></g><g transform="translate(868,651) scale(0.31,0.31)"><g transform="" style="fill: rgb(30, 251, 208);">
<rect width="100" height="100"/>
</g></g><g transform="translate(899,651) scale(0.31,0.31)"><g transform="" style="fill: rgb(30, 251, 208);">
<rect width="100" height="100"/>
</g></g><g transform="translate(0,682) scale(0.31,0.31)"><g transform="" style="fill: rgb(30, 251, 208);">
<rect width="100" height="100"/>
</g></g><g transform="translate(93,682) scale(0.31,0.31)"><g transform="" style="fill: rgb(30, 251, 208);">
<rect width="100" height="100"/>
</g></g><g transform="translate(124,682) scale(0.062,0.062)"><g transform="" style="fill: rgb(30, 251, 208);">
<g>
	<path d="M0,0v500h500C500,223.853,276.142,0,0,0z"/>
</g>
</g></g><g transform="translate(186,682) scale(0.062,0.062)"><g transform="" style="fill: rgb(30, 251, 208);">
<path d="M250,0c58.27,0,250,0,250,0s0,170.182,0,250c0,62.305,0,250,0,250s-174.219,0-250,0
	C111.881,500,0,388.021,0,250C0,111.963,111.881,0,250,0z"/>
</g></g><g transform="translate(217,682) scale(0.31,0.31)"><g transform="" style="fill: rgb(30, 251, 208);">
<rect width="100" height="100"/>
</g></g><g transform="translate(248,682) scale(0.062,0.062)"><g transform="" style="fill: rgb(30, 251, 208);">
<path d="M250,500c-58.271,0-250,0-250,0s0-170.207,0-250C0,187.676,0,0,0,0s174.261,0,250,0c138.064,0,250,111.929,250,250
	C500,388.064,388.064,500,250,500z"/>
</g></g><g transform="translate(372,682) scale(0.062,0.062)"><g transform="" style="fill: rgb(30, 251, 208);">
<path d="M250,0c138.077,0,250,111.93,250,250c0,138.077-111.923,250-250,250C111.93,500,0,388.077,0,250C0,111.93,111.93,0,250,0z"
	/>
</g></g><g transform="translate(465,682) scale(0.062,0.062)"><g transform="" style="fill: rgb(30, 251, 208);">
<path d="M250,0c58.27,0,250,0,250,0s0,170.182,0,250c0,62.305,0,250,0,250s-174.219,0-250,0
	C111.881,500,0,388.021,0,250C0,111.963,111.881,0,250,0z"/>
</g></g><g transform="translate(496,682) scale(0.062,0.062)"><g transform="" style="fill: rgb(30, 251, 208);">
<g>
	<path d="M500,0H0v500C276.142,500,500,276.142,500,0z"/>
</g>
</g></g><g transform="translate(620,682) scale(0.062,0.062)"><g transform="" style="fill: rgb(30, 251, 208);">
<g>
	<path d="M500,500V0H0C0.001,276.142,223.853,500,500,500z"/>
</g>
</g></g><g transform="translate(651,682) scale(0.31,0.31)"><g transform="" style="fill: rgb(30, 251, 208);">
<rect width="100" height="100"/>
</g></g><g transform="translate(682,682) scale(0.062,0.062)"><g transform="" style="fill: rgb(30, 251, 208);">
<g>
	<path d="M500,0H0v500C276.142,500,500,276.142,500,0z"/>
</g>
</g></g><g transform="translate(899,682) scale(0.31,0.31)"><g transform="" style="fill: rgb(30, 251, 208);">
<rect width="100" height="100"/>
</g></g><g transform="translate(930,682) scale(0.31,0.31)"><g transform="" style="fill: rgb(30, 251, 208);">
<rect width="100" height="100"/>
</g></g><g transform="translate(961,682) scale(0.062,0.062)"><g transform="" style="fill: rgb(30, 251, 208);">
<path d="M250,500c-58.271,0-250,0-250,0s0-170.207,0-250C0,187.676,0,0,0,0s174.261,0,250,0c138.064,0,250,111.929,250,250
	C500,388.064,388.064,500,250,500z"/>
</g></g><g transform="translate(0,713) scale(0.31,0.31)"><g transform="" style="fill: rgb(30, 251, 208);">
<rect width="100" height="100"/>
</g></g><g transform="translate(62,713) scale(0.062,0.062)"><g transform="" style="fill: rgb(30, 251, 208);">
<g>
	<path d="M0,500h500V0C223.861,0.001,0,223.854,0,500z"/>
</g>
</g></g><g transform="translate(93,713) scale(0.31,0.31)"><g transform="" style="fill: rgb(30, 251, 208);">
<rect width="100" height="100"/>
</g></g><g transform="translate(124,713) scale(0.31,0.31)"><g transform="" style="fill: rgb(30, 251, 208);">
<rect width="100" height="100"/>
</g></g><g transform="translate(155,713) scale(0.062,0.062)"><g transform="" style="fill: rgb(30, 251, 208);">
<path d="M250,500c-58.271,0-250,0-250,0s0-170.207,0-250C0,187.676,0,0,0,0s174.261,0,250,0c138.064,0,250,111.929,250,250
	C500,388.064,388.064,500,250,500z"/>
</g></g><g transform="translate(217,713) scale(0.31,0.31)"><g transform="" style="fill: rgb(30, 251, 208);">
<rect width="100" height="100"/>
</g></g><g transform="translate(279,713) scale(0.062,0.062)"><g transform="" style="fill: rgb(30, 251, 208);">
<g>
	<path d="M0,500h500V0C223.861,0.001,0,223.854,0,500z"/>
</g>
</g></g><g transform="translate(310,713) scale(0.062,0.062)"><g transform="" style="fill: rgb(30, 251, 208);">
<g>
	<path d="M0,0v500h500C500,223.853,276.142,0,0,0z"/>
</g>
</g></g><g transform="translate(775,713) scale(0.062,0.062)"><g transform="" style="fill: rgb(30, 251, 208);">
<g>
	<path d="M0,500h500V0C223.861,0.001,0,223.854,0,500z"/>
</g>
</g></g><g transform="translate(806,713) scale(0.31,0.31)"><g transform="" style="fill: rgb(30, 251, 208);">
<rect width="100" height="100"/>
</g></g><g transform="translate(837,713) scale(0.062,0.062)"><g transform="" style="fill: rgb(30, 251, 208);">
<g>
	<path d="M0,0v500h500C500,223.853,276.142,0,0,0z"/>
</g>
</g></g><g transform="translate(899,713) scale(0.31,0.31)"><g transform="" style="fill: rgb(30, 251, 208);">
<rect width="100" height="100"/>
</g></g><g transform="translate(930,713) scale(0.062,0.062)"><g transform="" style="fill: rgb(30, 251, 208);">
<g>
	<path d="M500,0H0v500C276.142,500,500,276.142,500,0z"/>
</g>
</g></g><g transform="translate(992,713) scale(0.062,0.062)"><g transform="" style="fill: rgb(30, 251, 208);">
<path d="M250,0c138.077,0,250,111.93,250,250c0,138.077-111.923,250-250,250C111.93,500,0,388.077,0,250C0,111.93,111.93,0,250,0z"
	/>
</g></g><g transform="translate(0,744) scale(0.062,0.062)"><g transform="" style="fill: rgb(30, 251, 208);">
<g>
	<path d="M500,500V0H0C0.001,276.142,223.853,500,500,500z"/>
</g>
</g></g><g transform="translate(31,744) scale(0.31,0.31)"><g transform="" style="fill: rgb(30, 251, 208);">
<rect width="100" height="100"/>
</g></g><g transform="translate(62,744) scale(0.31,0.31)"><g transform="" style="fill: rgb(30, 251, 208);">
<rect width="100" height="100"/>
</g></g><g transform="translate(93,744) scale(0.062,0.062)"><g transform="" style="fill: rgb(30, 251, 208);">
<g>
	<path d="M500,0H0v500C276.142,500,500,276.142,500,0z"/>
</g>
</g></g><g transform="translate(186,744) scale(0.062,0.062)"><g transform="" style="fill: rgb(30, 251, 208);">
<path d="M250,0c58.27,0,250,0,250,0s0,170.182,0,250c0,62.305,0,250,0,250s-174.219,0-250,0
	C111.881,500,0,388.021,0,250C0,111.963,111.881,0,250,0z"/>
</g></g><g transform="translate(217,744) scale(0.062,0.062)"><g transform="" style="fill: rgb(30, 251, 208);">
<g>
	<path d="M500,0H0v500C276.142,500,500,276.142,500,0z"/>
</g>
</g></g><g transform="translate(279,744) scale(0.31,0.31)"><g transform="" style="fill: rgb(30, 251, 208);">
<rect width="100" height="100"/>
</g></g><g transform="translate(310,744) scale(0.062,0.062)"><g transform="" style="fill: rgb(30, 251, 208);">
<g>
	<path d="M500,0H0v500C276.142,500,500,276.142,500,0z"/>
</g>
</g></g><g transform="translate(403,744) scale(0.062,0.062)"><g transform="" style="fill: rgb(30, 251, 208);">
<g>
	<path d="M0,500h500V0C223.861,0.001,0,223.854,0,500z"/>
</g>
</g></g><g transform="translate(434,744) scale(0.31,0.31)"><g transform="" style="fill: rgb(30, 251, 208);">
<rect width="100" height="100"/>
</g></g><g transform="translate(465,744) scale(0.062,0.062)"><g transform="" style="fill: rgb(30, 251, 208);">
<g>
	<path d="M0,0v500h500C500,223.853,276.142,0,0,0z"/>
</g>
</g></g><g transform="translate(558,744) scale(0.062,0.062)"><g transform="" style="fill: rgb(30, 251, 208);">
<g>
	<path d="M0,500h500V0C223.861,0.001,0,223.854,0,500z"/>
</g>
</g></g><g transform="translate(589,744) scale(0.31,0.31)"><g transform="" style="fill: rgb(30, 251, 208);">
<rect width="100" height="100"/>
</g></g><g transform="translate(620,744) scale(0.062,0.062)"><g transform="" style="fill: rgb(30, 251, 208);">
<g>
	<path d="M0,0v500h500C500,223.853,276.142,0,0,0z"/>
</g>
</g></g><g transform="translate(744,744) scale(0.062,0.062)"><g transform="" style="fill: rgb(30, 251, 208);">
<g>
	<path d="M0,500h500V0C223.861,0.001,0,223.854,0,500z"/>
</g>
</g></g><g transform="translate(775,744) scale(0.31,0.31)"><g transform="" style="fill: rgb(30, 251, 208);">
<rect width="100" height="100"/>
</g></g><g transform="translate(806,744) scale(0.31,0.31)"><g transform="" style="fill: rgb(30, 251, 208);">
<rect width="100" height="100"/>
</g></g><g transform="translate(837,744) scale(0.31,0.31)"><g transform="" style="fill: rgb(30, 251, 208);">
<rect width="100" height="100"/>
</g></g><g transform="translate(868,744) scale(0.31,0.31)"><g transform="" style="fill: rgb(30, 251, 208);">
<rect width="100" height="100"/>
</g></g><g transform="translate(899,744) scale(0.062,0.062)"><g transform="" style="fill: rgb(30, 251, 208);">
<g>
	<path d="M500,0H0v500C276.142,500,500,276.142,500,0z"/>
</g>
</g></g><g transform="translate(248,775) scale(0.062,0.062)"><g transform="" style="fill: rgb(30, 251, 208);">
<path d="M250,0c58.27,0,250,0,250,0s0,170.182,0,250c0,62.305,0,250,0,250s-174.219,0-250,0
	C111.881,500,0,388.021,0,250C0,111.963,111.881,0,250,0z"/>
</g></g><g transform="translate(279,775) scale(0.062,0.062)"><g transform="" style="fill: rgb(30, 251, 208);">
<g>
	<path d="M500,0H0v500C276.142,500,500,276.142,500,0z"/>
</g>
</g></g><g transform="translate(372,775) scale(0.062,0.062)"><g transform="" style="fill: rgb(30, 251, 208);">
<path d="M250,0c58.27,0,250,0,250,0s0,170.182,0,250c0,62.305,0,250,0,250s-174.219,0-250,0
	C111.881,500,0,388.021,0,250C0,111.963,111.881,0,250,0z"/>
</g></g><g transform="translate(403,775) scale(0.31,0.31)"><g transform="" style="fill: rgb(30, 251, 208);">
<rect width="100" height="100"/>
</g></g><g transform="translate(434,775) scale(0.31,0.31)"><g transform="" style="fill: rgb(30, 251, 208);">
<rect width="100" height="100"/>
</g></g><g transform="translate(465,775) scale(0.31,0.31)"><g transform="" style="fill: rgb(30, 251, 208);">
<rect width="100" height="100"/>
</g></g><g transform="translate(496,775) scale(0.062,0.062)"><g transform="" style="fill: rgb(30, 251, 208);">
<g>
	<path d="M0,0v500h500C500,223.853,276.142,0,0,0z"/>
</g>
</g></g><g transform="translate(558,775) scale(0.31,0.31)"><g transform="" style="fill: rgb(30, 251, 208);">
<rect width="100" height="100"/>
</g></g><g transform="translate(589,775) scale(0.31,0.31)"><g transform="" style="fill: rgb(30, 251, 208);">
<rect width="100" height="100"/>
</g></g><g transform="translate(620,775) scale(0.31,0.31)"><g transform="" style="fill: rgb(30, 251, 208);">
<rect width="100" height="100"/>
</g></g><g transform="translate(744,775) scale(0.31,0.31)"><g transform="" style="fill: rgb(30, 251, 208);">
<rect width="100" height="100"/>
</g></g><g transform="translate(868,775) scale(0.31,0.31)"><g transform="" style="fill: rgb(30, 251, 208);">
<rect width="100" height="100"/>
</g></g><g transform="translate(930,775) scale(0.062,0.062)"><g transform="" style="fill: rgb(30, 251, 208);">
<path d="M500,250c0,58.266,0,250,0,250s-170.194,0-250-0.012c-62.324,0.012-250,0-250,0s0-174.241,0-249.994
	C0.006,111.931,111.929,0,249.994,0C388.064,0,500,111.93,500,250z"/>
</g></g><g transform="translate(992,775) scale(0.062,0.062)"><g transform="" style="fill: rgb(30, 251, 208);">
<path d="M250,0c138.077,0,250,111.93,250,250c0,138.077-111.923,250-250,250C111.93,500,0,388.077,0,250C0,111.93,111.93,0,250,0z"
	/>
</g></g><g transform="translate(403,806) scale(0.31,0.31)"><g transform="" style="fill: rgb(30, 251, 208);">
<rect width="100" height="100"/>
</g></g><g transform="translate(465,806) scale(0.31,0.31)"><g transform="" style="fill: rgb(30, 251, 208);">
<rect width="100" height="100"/>
</g></g><g transform="translate(496,806) scale(0.31,0.31)"><g transform="" style="fill: rgb(30, 251, 208);">
<rect width="100" height="100"/>
</g></g><g transform="translate(558,806) scale(0.062,0.062)"><g transform="" style="fill: rgb(30, 251, 208);">
<path d="M0,250C0,191.729,0,0,0,0s170.201,0,250,0c62.324,0,250,0,250,0s0,174.261,0,250c0,138.064-111.936,250-250,250
	C111.929,500,0,388.064,0,250z"/>
</g></g><g transform="translate(620,806) scale(0.062,0.062)"><g transform="" style="fill: rgb(30, 251, 208);">
<g>
	<path d="M500,500V0H0C0.001,276.142,223.853,500,500,500z"/>
</g>
</g></g><g transform="translate(651,806) scale(0.062,0.062)"><g transform="" style="fill: rgb(30, 251, 208);">
<path d="M250,500c-58.271,0-250,0-250,0s0-170.207,0-250C0,187.676,0,0,0,0s174.261,0,250,0c138.064,0,250,111.929,250,250
	C500,388.064,388.064,500,250,500z"/>
</g></g><g transform="translate(713,806) scale(0.062,0.062)"><g transform="" style="fill: rgb(30, 251, 208);">
<g>
	<path d="M0,500h500V0C223.861,0.001,0,223.854,0,500z"/>
</g>
</g></g><g transform="translate(744,806) scale(0.31,0.31)"><g transform="" style="fill: rgb(30, 251, 208);">
<rect width="100" height="100"/>
</g></g><g transform="translate(806,806) scale(0.062,0.062)"><g transform="" style="fill: rgb(30, 251, 208);">
<path d="M250,0c138.077,0,250,111.93,250,250c0,138.077-111.923,250-250,250C111.93,500,0,388.077,0,250C0,111.93,111.93,0,250,0z"
	/>
</g></g><g transform="translate(868,806) scale(0.31,0.31)"><g transform="" style="fill: rgb(30, 251, 208);">
<rect width="100" height="100"/>
</g></g><g transform="translate(930,806) scale(0.31,0.31)"><g transform="" style="fill: rgb(30, 251, 208);">
<rect width="100" height="100"/>
</g></g><g transform="translate(961,806) scale(0.062,0.062)"><g transform="" style="fill: rgb(30, 251, 208);">
<g>
	<path d="M0,0v500h500C500,223.853,276.142,0,0,0z"/>
</g>
</g></g><g transform="translate(310,837) scale(0.062,0.062)"><g transform="" style="fill: rgb(30, 251, 208);">
<path d="M500,250c0,58.266,0,250,0,250s-170.194,0-250-0.012c-62.324,0.012-250,0-250,0s0-174.241,0-249.994
	C0.006,111.931,111.929,0,249.994,0C388.064,0,500,111.93,500,250z"/>
</g></g><g transform="translate(372,837) scale(0.062,0.062)"><g transform="" style="fill: rgb(30, 251, 208);">
<g>
	<path d="M0,500h500V0C223.861,0.001,0,223.854,0,500z"/>
</g>
</g></g><g transform="translate(403,837) scale(0.31,0.31)"><g transform="" style="fill: rgb(30, 251, 208);">
<rect width="100" height="100"/>
</g></g><g transform="translate(434,837) scale(0.31,0.31)"><g transform="" style="fill: rgb(30, 251, 208);">
<rect width="100" height="100"/>
</g></g><g transform="translate(465,837) scale(0.31,0.31)"><g transform="" style="fill: rgb(30, 251, 208);">
<rect width="100" height="100"/>
</g></g><g transform="translate(496,837) scale(0.062,0.062)"><g transform="" style="fill: rgb(30, 251, 208);">
<g>
	<path d="M500,0H0v500C276.142,500,500,276.142,500,0z"/>
</g>
</g></g><g transform="translate(589,837) scale(0.062,0.062)"><g transform="" style="fill: rgb(30, 251, 208);">
<path d="M500,250c0,58.266,0,250,0,250s-170.194,0-250-0.012c-62.324,0.012-250,0-250,0s0-174.241,0-249.994
	C0.006,111.931,111.929,0,249.994,0C388.064,0,500,111.93,500,250z"/>
</g></g><g transform="translate(713,837) scale(0.062,0.062)"><g transform="" style="fill: rgb(30, 251, 208);">
<g>
	<path d="M500,500V0H0C0.001,276.142,223.853,500,500,500z"/>
</g>
</g></g><g transform="translate(744,837) scale(0.31,0.31)"><g transform="" style="fill: rgb(30, 251, 208);">
<rect width="100" height="100"/>
</g></g><g transform="translate(868,837) scale(0.31,0.31)"><g transform="" style="fill: rgb(30, 251, 208);">
<rect width="100" height="100"/>
</g></g><g transform="translate(899,837) scale(0.31,0.31)"><g transform="" style="fill: rgb(30, 251, 208);">
<rect width="100" height="100"/>
</g></g><g transform="translate(930,837) scale(0.31,0.31)"><g transform="" style="fill: rgb(30, 251, 208);">
<rect width="100" height="100"/>
</g></g><g transform="translate(961,837) scale(0.062,0.062)"><g transform="" style="fill: rgb(30, 251, 208);">
<g>
	<path d="M500,0H0v500C276.142,500,500,276.142,500,0z"/>
</g>
</g></g><g transform="translate(310,868) scale(0.062,0.062)"><g transform="" style="fill: rgb(30, 251, 208);">
<g>
	<path d="M500,500V0H0C0.001,276.142,223.853,500,500,500z"/>
</g>
</g></g><g transform="translate(341,868) scale(0.31,0.31)"><g transform="" style="fill: rgb(30, 251, 208);">
<rect width="100" height="100"/>
</g></g><g transform="translate(372,868) scale(0.31,0.31)"><g transform="" style="fill: rgb(30, 251, 208);">
<rect width="100" height="100"/>
</g></g><g transform="translate(403,868) scale(0.31,0.31)"><g transform="" style="fill: rgb(30, 251, 208);">
<rect width="100" height="100"/>
</g></g><g transform="translate(434,868) scale(0.31,0.31)"><g transform="" style="fill: rgb(30, 251, 208);">
<rect width="100" height="100"/>
</g></g><g transform="translate(465,868) scale(0.062,0.062)"><g transform="" style="fill: rgb(30, 251, 208);">
<g>
	<path d="M500,0H0v500C276.142,500,500,276.142,500,0z"/>
</g>
</g></g><g transform="translate(558,868) scale(0.062,0.062)"><g transform="" style="fill: rgb(30, 251, 208);">
<path d="M250,0c58.27,0,250,0,250,0s0,170.182,0,250c0,62.305,0,250,0,250s-174.219,0-250,0
	C111.881,500,0,388.021,0,250C0,111.963,111.881,0,250,0z"/>
</g></g><g transform="translate(589,868) scale(0.062,0.062)"><g transform="" style="fill: rgb(30, 251, 208);">
<g>
	<path d="M500,0H0v500C276.142,500,500,276.142,500,0z"/>
</g>
</g></g><g transform="translate(651,868) scale(0.062,0.062)"><g transform="" style="fill: rgb(30, 251, 208);">
<path d="M250,0c138.077,0,250,111.93,250,250c0,138.077-111.923,250-250,250C111.93,500,0,388.077,0,250C0,111.93,111.93,0,250,0z"
	/>
</g></g><g transform="translate(744,868) scale(0.31,0.31)"><g transform="" style="fill: rgb(30, 251, 208);">
<rect width="100" height="100"/>
</g></g><g transform="translate(775,868) scale(0.31,0.31)"><g transform="" style="fill: rgb(30, 251, 208);">
<rect width="100" height="100"/>
</g></g><g transform="translate(806,868) scale(0.31,0.31)"><g transform="" style="fill: rgb(30, 251, 208);">
<rect width="100" height="100"/>
</g></g><g transform="translate(837,868) scale(0.31,0.31)"><g transform="" style="fill: rgb(30, 251, 208);">
<rect width="100" height="100"/>
</g></g><g transform="translate(868,868) scale(0.31,0.31)"><g transform="" style="fill: rgb(30, 251, 208);">
<rect width="100" height="100"/>
</g></g><g transform="translate(899,868) scale(0.31,0.31)"><g transform="" style="fill: rgb(30, 251, 208);">
<rect width="100" height="100"/>
</g></g><g transform="translate(279,899) scale(0.062,0.062)"><g transform="" style="fill: rgb(30, 251, 208);">
<path d="M500,250c0,58.266,0,250,0,250s-170.194,0-250-0.012c-62.324,0.012-250,0-250,0s0-174.241,0-249.994
	C0.006,111.931,111.929,0,249.994,0C388.064,0,500,111.93,500,250z"/>
</g></g><g transform="translate(372,899) scale(0.31,0.31)"><g transform="" style="fill: rgb(30, 251, 208);">
<rect width="100" height="100"/>
</g></g><g transform="translate(434,899) scale(0.31,0.31)"><g transform="" style="fill: rgb(30, 251, 208);">
<rect width="100" height="100"/>
</g></g><g transform="translate(496,899) scale(0.062,0.062)"><g transform="" style="fill: rgb(30, 251, 208);">
<g>
	<path d="M0,500h500V0C223.861,0.001,0,223.854,0,500z"/>
</g>
</g></g><g transform="translate(527,899) scale(0.062,0.062)"><g transform="" style="fill: rgb(30, 251, 208);">
<path d="M250,500c-58.271,0-250,0-250,0s0-170.207,0-250C0,187.676,0,0,0,0s174.261,0,250,0c138.064,0,250,111.929,250,250
	C500,388.064,388.064,500,250,500z"/>
</g></g><g transform="translate(620,899) scale(0.062,0.062)"><g transform="" style="fill: rgb(30, 251, 208);">
<path d="M500,250c0,58.266,0,250,0,250s-170.194,0-250-0.012c-62.324,0.012-250,0-250,0s0-174.241,0-249.994
	C0.006,111.931,111.929,0,249.994,0C388.064,0,500,111.93,500,250z"/>
</g></g><g transform="translate(682,899) scale(0.062,0.062)"><g transform="" style="fill: rgb(30, 251, 208);">
<path d="M500,250c0,58.266,0,250,0,250s-170.194,0-250-0.012c-62.324,0.012-250,0-250,0s0-174.241,0-249.994
	C0.006,111.931,111.929,0,249.994,0C388.064,0,500,111.93,500,250z"/>
</g></g><g transform="translate(744,899) scale(0.062,0.062)"><g transform="" style="fill: rgb(30, 251, 208);">
<g>
	<path d="M500,500V0H0C0.001,276.142,223.853,500,500,500z"/>
</g>
</g></g><g transform="translate(775,899) scale(0.31,0.31)"><g transform="" style="fill: rgb(30, 251, 208);">
<rect width="100" height="100"/>
</g></g><g transform="translate(837,899) scale(0.31,0.31)"><g transform="" style="fill: rgb(30, 251, 208);">
<rect width="100" height="100"/>
</g></g><g transform="translate(868,899) scale(0.31,0.31)"><g transform="" style="fill: rgb(30, 251, 208);">
<rect width="100" height="100"/>
</g></g><g transform="translate(899,899) scale(0.062,0.062)"><g transform="" style="fill: rgb(30, 251, 208);">
<g>
	<path d="M500,0H0v500C276.142,500,500,276.142,500,0z"/>
</g>
</g></g><g transform="translate(992,899) scale(0.062,0.062)"><g transform="" style="fill: rgb(30, 251, 208);">
<path d="M500,250c0,58.266,0,250,0,250s-170.194,0-250-0.012c-62.324,0.012-250,0-250,0s0-174.241,0-249.994
	C0.006,111.931,111.929,0,249.994,0C388.064,0,500,111.93,500,250z"/>
</g></g><g transform="translate(279,930) scale(0.062,0.062)"><g transform="" style="fill: rgb(30, 251, 208);">
<path d="M0,250C0,191.729,0,0,0,0s170.201,0,250,0c62.324,0,250,0,250,0s0,174.261,0,250c0,138.064-111.936,250-250,250
	C111.929,500,0,388.064,0,250z"/>
</g></g><g transform="translate(341,930) scale(0.062,0.062)"><g transform="" style="fill: rgb(30, 251, 208);">
<path d="M250,0c58.27,0,250,0,250,0s0,170.182,0,250c0,62.305,0,250,0,250s-174.219,0-250,0
	C111.881,500,0,388.021,0,250C0,111.963,111.881,0,250,0z"/>
</g></g><g transform="translate(372,930) scale(0.062,0.062)"><g transform="" style="fill: rgb(30, 251, 208);">
<g>
	<path d="M500,0H0v500C276.142,500,500,276.142,500,0z"/>
</g>
</g></g><g transform="translate(434,930) scale(0.31,0.31)"><g transform="" style="fill: rgb(30, 251, 208);">
<rect width="100" height="100"/>
</g></g><g transform="translate(496,930) scale(0.31,0.31)"><g transform="" style="fill: rgb(30, 251, 208);">
<rect width="100" height="100"/>
</g></g><g transform="translate(620,930) scale(0.31,0.31)"><g transform="" style="fill: rgb(30, 251, 208);">
<rect width="100" height="100"/>
</g></g><g transform="translate(682,930) scale(0.062,0.062)"><g transform="" style="fill: rgb(30, 251, 208);">
<path d="M0,250C0,191.729,0,0,0,0s170.201,0,250,0c62.324,0,250,0,250,0s0,174.261,0,250c0,138.064-111.936,250-250,250
	C111.929,500,0,388.064,0,250z"/>
</g></g><g transform="translate(775,930) scale(0.062,0.062)"><g transform="" style="fill: rgb(30, 251, 208);">
<path d="M0,250C0,191.729,0,0,0,0s170.201,0,250,0c62.324,0,250,0,250,0s0,174.261,0,250c0,138.064-111.936,250-250,250
	C111.929,500,0,388.064,0,250z"/>
</g></g><g transform="translate(837,930) scale(0.31,0.31)"><g transform="" style="fill: rgb(30, 251, 208);">
<rect width="100" height="100"/>
</g></g><g transform="translate(868,930) scale(0.31,0.31)"><g transform="" style="fill: rgb(30, 251, 208);">
<rect width="100" height="100"/>
</g></g><g transform="translate(930,930) scale(0.062,0.062)"><g transform="" style="fill: rgb(30, 251, 208);">
<g>
	<path d="M0,500h500V0C223.861,0.001,0,223.854,0,500z"/>
</g>
</g></g><g transform="translate(961,930) scale(0.31,0.31)"><g transform="" style="fill: rgb(30, 251, 208);">
<rect width="100" height="100"/>
</g></g><g transform="translate(992,930) scale(0.062,0.062)"><g transform="" style="fill: rgb(30, 251, 208);">
<g>
	<path d="M500,0H0v500C276.142,500,500,276.142,500,0z"/>
</g>
</g></g><g transform="translate(310,961) scale(0.062,0.062)"><g transform="" style="fill: rgb(30, 251, 208);">
<path d="M500,250c0,58.266,0,250,0,250s-170.194,0-250-0.012c-62.324,0.012-250,0-250,0s0-174.241,0-249.994
	C0.006,111.931,111.929,0,249.994,0C388.064,0,500,111.93,500,250z"/>
</g></g><g transform="translate(434,961) scale(0.31,0.31)"><g transform="" style="fill: rgb(30, 251, 208);">
<rect width="100" height="100"/>
</g></g><g transform="translate(465,961) scale(0.31,0.31)"><g transform="" style="fill: rgb(30, 251, 208);">
<rect width="100" height="100"/>
</g></g><g transform="translate(496,961) scale(0.31,0.31)"><g transform="" style="fill: rgb(30, 251, 208);">
<rect width="100" height="100"/>
</g></g><g transform="translate(589,961) scale(0.062,0.062)"><g transform="" style="fill: rgb(30, 251, 208);">
<g>
	<path d="M0,500h500V0C223.861,0.001,0,223.854,0,500z"/>
</g>
</g></g><g transform="translate(620,961) scale(0.062,0.062)"><g transform="" style="fill: rgb(30, 251, 208);">
<g>
	<path d="M500,0H0v500C276.142,500,500,276.142,500,0z"/>
</g>
</g></g><g transform="translate(806,961) scale(0.062,0.062)"><g transform="" style="fill: rgb(30, 251, 208);">
<path d="M250,0c58.27,0,250,0,250,0s0,170.182,0,250c0,62.305,0,250,0,250s-174.219,0-250,0
	C111.881,500,0,388.021,0,250C0,111.963,111.881,0,250,0z"/>
</g></g><g transform="translate(837,961) scale(0.31,0.31)"><g transform="" style="fill: rgb(30, 251, 208);">
<rect width="100" height="100"/>
</g></g><g transform="translate(868,961) scale(0.31,0.31)"><g transform="" style="fill: rgb(30, 251, 208);">
<rect width="100" height="100"/>
</g></g><g transform="translate(899,961) scale(0.31,0.31)"><g transform="" style="fill: rgb(30, 251, 208);">
<rect width="100" height="100"/>
</g></g><g transform="translate(930,961) scale(0.062,0.062)"><g transform="" style="fill: rgb(30, 251, 208);">
<g>
	<path d="M500,0H0v500C276.142,500,500,276.142,500,0z"/>
</g>
</g></g><g transform="translate(248,992) scale(0.062,0.062)"><g transform="" style="fill: rgb(30, 251, 208);">
<path d="M250,0c138.077,0,250,111.93,250,250c0,138.077-111.923,250-250,250C111.93,500,0,388.077,0,250C0,111.93,111.93,0,250,0z"
	/>
</g></g><g transform="translate(310,992) scale(0.062,0.062)"><g transform="" style="fill: rgb(30, 251, 208);">
<path d="M0,250C0,191.729,0,0,0,0s170.201,0,250,0c62.324,0,250,0,250,0s0,174.261,0,250c0,138.064-111.936,250-250,250
	C111.929,500,0,388.064,0,250z"/>
</g></g><g transform="translate(372,992) scale(0.062,0.062)"><g transform="" style="fill: rgb(30, 251, 208);">
<path d="M250,0c58.27,0,250,0,250,0s0,170.182,0,250c0,62.305,0,250,0,250s-174.219,0-250,0
	C111.881,500,0,388.021,0,250C0,111.963,111.881,0,250,0z"/>
</g></g><g transform="translate(403,992) scale(0.31,0.31)"><g transform="" style="fill: rgb(30, 251, 208);">
<rect width="100" height="100"/>
</g></g><g transform="translate(434,992) scale(0.062,0.062)"><g transform="" style="fill: rgb(30, 251, 208);">
<g>
	<path d="M500,0H0v500C276.142,500,500,276.142,500,0z"/>
</g>
</g></g><g transform="translate(496,992) scale(0.062,0.062)"><g transform="" style="fill: rgb(30, 251, 208);">
<g>
	<path d="M500,500V0H0C0.001,276.142,223.853,500,500,500z"/>
</g>
</g></g><g transform="translate(527,992) scale(0.062,0.062)"><g transform="" style="fill: rgb(30, 251, 208);">
<path d="M250,500c-58.271,0-250,0-250,0s0-170.207,0-250C0,187.676,0,0,0,0s174.261,0,250,0c138.064,0,250,111.929,250,250
	C500,388.064,388.064,500,250,500z"/>
</g></g><g transform="translate(589,992) scale(0.062,0.062)"><g transform="" style="fill: rgb(30, 251, 208);">
<path d="M0,250C0,191.729,0,0,0,0s170.201,0,250,0c62.324,0,250,0,250,0s0,174.261,0,250c0,138.064-111.936,250-250,250
	C111.929,500,0,388.064,0,250z"/>
</g></g><g transform="translate(682,992) scale(0.062,0.062)"><g transform="" style="fill: rgb(30, 251, 208);">
<path d="M250,0c138.077,0,250,111.93,250,250c0,138.077-111.923,250-250,250C111.93,500,0,388.077,0,250C0,111.93,111.93,0,250,0z"
	/>
</g></g><g transform="translate(744,992) scale(0.062,0.062)"><g transform="" style="fill: rgb(30, 251, 208);">
<path d="M250,0c138.077,0,250,111.93,250,250c0,138.077-111.923,250-250,250C111.93,500,0,388.077,0,250C0,111.93,111.93,0,250,0z"
	/>
</g></g><g transform="translate(837,992) scale(0.062,0.062)"><g transform="" style="fill: rgb(30, 251, 208);">
<path d="M0,250C0,191.729,0,0,0,0s170.201,0,250,0c62.324,0,250,0,250,0s0,174.261,0,250c0,138.064-111.936,250-250,250
	C111.929,500,0,388.064,0,250z"/>
</g></g><g transform="translate(899,992) scale(0.062,0.062)"><g transform="" style="fill: rgb(30, 251, 208);">
<path d="M0,250C0,191.729,0,0,0,0s170.201,0,250,0c62.324,0,250,0,250,0s0,174.261,0,250c0,138.064-111.936,250-250,250
	C111.929,500,0,388.064,0,250z"/>
</g></g><g transform="translate(961,992) scale(0.062,0.062)"><g transform="" style="fill: rgb(30, 251, 208);">
<path d="M250,0c138.077,0,250,111.93,250,250c0,138.077-111.923,250-250,250C111.93,500,0,388.077,0,250C0,111.93,111.93,0,250,0z"
	/>
</g></g><g transform="translate(0,0) scale(2.17, 2.17)"><g transform="" style="fill: rgb(30, 251, 208);">
<g>
	<path style="fill:none;" d="M65.859,15.008H34.141c-4.082,0-7.869,1.258-10.979,3.398c-2.419,1.665-4.428,3.864-5.848,6.421
		C15.838,27.484,15,30.526,15,33.758v32.471c0,10.344,8.586,18.76,19.145,18.76L50,84.992l15.855-0.004
		C76.414,84.988,85,76.572,85,66.229V33.758C85,23.419,76.414,15.008,65.859,15.008z"/>
	<path d="M65.859,0.008H34.141h0C18.683,0.008,5.587,10.221,1.4,24.18c-0.433,1.444-0.771,2.928-1.006,4.445
		C0.135,30.299,0,32.013,0,33.758v32.471c0,18.619,15.32,33.76,34.141,33.76L50,99.992l15.859-0.004
		c18.82,0,34.141-15.141,34.141-33.76V33.758C100,15.148,84.68,0.008,65.859,0.008z M85,66.229c0,10.344-8.586,18.76-19.145,18.76
		L50,84.992l-15.855-0.004C23.586,84.988,15,76.572,15,66.229V33.758c0-3.231,0.838-6.273,2.313-8.931
		c1.42-2.557,3.429-4.756,5.848-6.421c3.11-2.141,6.897-3.398,10.979-3.398h31.719C76.414,15.008,85,23.419,85,33.758V66.229z"/>
</g>
</g></g><g transform="translate(806,0) scale(2.17, 2.17)"><g transform="" style="fill: rgb(30, 251, 208);">
<g>
	<path style="fill:none;" d="M65.859,15.008H34.141c-4.082,0-7.869,1.258-10.979,3.398c-2.419,1.665-4.428,3.864-5.848,6.421
		C15.838,27.484,15,30.526,15,33.758v32.471c0,10.344,8.586,18.76,19.145,18.76L50,84.992l15.855-0.004
		C76.414,84.988,85,76.572,85,66.229V33.758C85,23.419,76.414,15.008,65.859,15.008z"/>
	<path d="M65.859,0.008H34.141h0C18.683,0.008,5.587,10.221,1.4,24.18c-0.433,1.444-0.771,2.928-1.006,4.445
		C0.135,30.299,0,32.013,0,33.758v32.471c0,18.619,15.32,33.76,34.141,33.76L50,99.992l15.859-0.004
		c18.82,0,34.141-15.141,34.141-33.76V33.758C100,15.148,84.68,0.008,65.859,0.008z M85,66.229c0,10.344-8.586,18.76-19.145,18.76
		L50,84.992l-15.855-0.004C23.586,84.988,15,76.572,15,66.229V33.758c0-3.231,0.838-6.273,2.313-8.931
		c1.42-2.557,3.429-4.756,5.848-6.421c3.11-2.141,6.897-3.398,10.979-3.398h31.719C76.414,15.008,85,23.419,85,33.758V66.229z"/>
</g>
</g></g><g transform="translate(0,806) scale(2.17, 2.17)"><g transform="" style="fill: rgb(30, 251, 208);">
<g>
	<path style="fill:none;" d="M65.859,15.008H34.141c-4.082,0-7.869,1.258-10.979,3.398c-2.419,1.665-4.428,3.864-5.848,6.421
		C15.838,27.484,15,30.526,15,33.758v32.471c0,10.344,8.586,18.76,19.145,18.76L50,84.992l15.855-0.004
		C76.414,84.988,85,76.572,85,66.229V33.758C85,23.419,76.414,15.008,65.859,15.008z"/>
	<path d="M65.859,0.008H34.141h0C18.683,0.008,5.587,10.221,1.4,24.18c-0.433,1.444-0.771,2.928-1.006,4.445
		C0.135,30.299,0,32.013,0,33.758v32.471c0,18.619,15.32,33.76,34.141,33.76L50,99.992l15.859-0.004
		c18.82,0,34.141-15.141,34.141-33.76V33.758C100,15.148,84.68,0.008,65.859,0.008z M85,66.229c0,10.344-8.586,18.76-19.145,18.76
		L50,84.992l-15.855-0.004C23.586,84.988,15,76.572,15,66.229V33.758c0-3.231,0.838-6.273,2.313-8.931
		c1.42-2.557,3.429-4.756,5.848-6.421c3.11-2.141,6.897-3.398,10.979-3.398h31.719C76.414,15.008,85,23.419,85,33.758V66.229z"/>
</g>
</g></g><g transform="translate(62,62) scale(0.93, 0.93)"><g transform="" style="fill: rgb(30, 251, 208);">
<g>
	<g id="XMLID_1_">
		<g>
			<path d="M27.351,100c-15.09,0-27.365-12.032-27.365-26.808V26.794c0-4.616,1.2-8.96,3.301-12.761
				c2.029-3.658,4.901-6.802,8.36-9.174C16.09,1.801,21.506,0,27.336,0h45.327c15.076,0,27.351,12.018,27.351,26.793v46.398
				c0,14.775-12.274,26.808-27.351,26.808H50H27.351z"/>
		</g>
		<g>
		</g>
	</g>
</g>
</g></g><g transform="translate(868,62) scale(0.93, 0.93)"><g transform="" style="fill: rgb(30, 251, 208);">
<g>
	<g id="XMLID_1_">
		<g>
			<path d="M27.351,100c-15.09,0-27.365-12.032-27.365-26.808V26.794c0-4.616,1.2-8.96,3.301-12.761
				c2.029-3.658,4.901-6.802,8.36-9.174C16.09,1.801,21.506,0,27.336,0h45.327c15.076,0,27.351,12.018,27.351,26.793v46.398
				c0,14.775-12.274,26.808-27.351,26.808H50H27.351z"/>
		</g>
		<g>
		</g>
	</g>
</g>
</g></g><g transform="translate(62,868) scale(0.93, 0.93)"><g transform="" style="fill: rgb(30, 251, 208);">
<g>
	<g id="XMLID_1_">
		<g>
			<path d="M27.351,100c-15.09,0-27.365-12.032-27.365-26.808V26.794c0-4.616,1.2-8.96,3.301-12.761
				c2.029-3.658,4.901-6.802,8.36-9.174C16.09,1.801,21.506,0,27.336,0h45.327c15.076,0,27.351,12.018,27.351,26.793v46.398
				c0,14.775-12.274,26.808-27.351,26.808H50H27.351z"/>
		</g>
		<g>
		</g>
	</g>
</g>
</g></g></g></svg>